<?xml version="1.0" encoding="utf-8"?>
<!-- Generator: Adobe Illustrator 18.1.1, SVG Export Plug-In . SVG Version: 6.00 Build 0)  -->
<svg version="1.1" id="Ebene_5" xmlns="http://www.w3.org/2000/svg" xmlns:xlink="http://www.w3.org/1999/xlink" x="0px" y="0px"
	 viewBox="0 0 1489.9 525.5" enable-background="new 0 0 1489.9 525.5" xml:space="preserve">
<g>
	<rect x="0" y="32.1" fill="#EDEDED" width="1489.9" height="461.4"/>
	<g>
		<g>
			<line fill="none" stroke="#706F6F" stroke-width="8" stroke-miterlimit="10" x1="765" y1="367" x2="803.3" y2="415.8"/>
			<g>
				<polygon fill="#706F6F" points="777.3,416.3 799,410.4 809.9,390.7 823.9,442.1 				"/>
			</g>
		</g>
	</g>
	<g>
		<path fill="#135729" d="M1429.4,466.8C1429.4,466.8,1429.4,466.8,1429.4,466.8c-0.3,0.1-8.5,2.4-10.2,7.1
			c-1.6,4.3-1.2,9.2-1.1,10.1c-3,1.7-5.4,2-5.4,2s-131.9-3.7-142.7-4.2c-10.8-0.5-18.1-4.8-18.1-4.8l-6,0l0-3.4l-4.7-1.1l-3.4-4.9
			l-0.2-3.6c0,0-5.6-5.8-5.5-22.1c0.1-18.1,6.1-23.3,6.1-23.3l-1.1-2.4l4.3-6.4l4.9,0l0.1-3.2l4.8,0c0,0,4.5-2.6,15.7-4.7
			c11.2-2.1,146.6-3.6,149.6-2.5c0.4,0.2,1,0.4,1.5,0.7c0,0-0.7,8.7,3.2,12.8c3,3.1,8.4,4.7,8.4,4.7c2,7.2,2.7,15.4,2.6,20.8
			C1432.2,444.6,1432.9,453.3,1429.4,466.8z"/>
		<path fill="#9D9D9C" d="M1429.5,417.7c0,0-5.4-1.6-8.4-4.7c-3.9-4.1-3.2-12.8-3.2-12.8c3.2,1.9,7.7,6.5,10.3,13.3
			C1428.7,414.9,1429.1,416.3,1429.5,417.7z"/>
		<path fill="#9D9D9C" d="M1429.3,466.8c-0.2,0.9-0.5,1.7-0.7,2.6c-2.4,8.2-7,12.4-10.6,14.5c-0.1-0.9-0.5-5.8,1.1-10.1
			C1420.9,469.2,1429.1,466.9,1429.3,466.8z"/>
		<path fill="none" stroke="#FFFFFF" stroke-width="2" stroke-miterlimit="10" d="M1418,484.1c0,0,0,0,0-0.1"/>
		<line fill="none" stroke="#FFFFFF" stroke-width="2" stroke-miterlimit="10" x1="1429.4" y1="466.8" x2="1429.3" y2="466.8"/>
		
			<rect x="1354.7" y="422.4" transform="matrix(1 3.633240e-03 -3.633240e-03 1 1.5595 -4.938)" fill="#FFFFFF" width="10.3" height="8.7"/>
		
			<rect x="1354.7" y="446.7" transform="matrix(1 3.633240e-03 -3.633240e-03 1 1.6479 -4.9376)" fill="#FFFFFF" width="10.3" height="8.7"/>
		
			<rect x="1354.7" y="434.9" transform="matrix(1 3.633240e-03 -3.633240e-03 1 1.6048 -4.9284)" fill="#FFFFFF" width="5.2" height="8.7"/>
		
			<ellipse transform="matrix(-1 -3.633165e-03 3.633165e-03 -1 2829.7952 891.1143)" fill="#FFFFFF" cx="1415.7" cy="443" rx="12.1" ry="14.4"/>
		
			<ellipse transform="matrix(-1 -3.633165e-03 3.633165e-03 -1 2490.2417 876.5362)" fill="#FFFFFF" cx="1245.9" cy="436" rx="13.3" ry="14.4"/>
		<path fill="none" stroke="#FFFFFF" stroke-miterlimit="10" d="M1431,423.9c0,0-0.4,0.3-0.9,19.2c-0.5,18.9,0.5,17.7,0.5,17.7"/>
		<path fill="none" stroke="#FFFFFF" stroke-miterlimit="10" d="M1424.3,419.3c-14.6-0.1-34.2,0.5-63-10.6"/>
		<path fill="none" stroke="#FFFFFF" stroke-miterlimit="10" d="M1423.3,465.3c0,0-19.1-0.1-33.2,2.3c-14.1,2.4-27.3,7.9-27.3,7.9"
			/>
		<path fill="none" stroke="#FFFFFF" stroke-miterlimit="10" d="M1326.8,438l-14.2-0.1c-7.5,0-13.6-6.2-13.6-13.7l0-0.9
			c0-7.5,6.2-13.6,13.7-13.6l14.2,0.1c7.5,0,13.6,6.2,13.6,13.7l0,0.9C1340.5,431.9,1334.3,438,1326.8,438z"/>
		<path fill="none" stroke="#FFFFFF" stroke-miterlimit="10" d="M1235.6,461l38.5,0.1c0,0,9.9,6.7,19.8,6.7"/>
		<path fill="none" stroke="#FFFFFF" stroke-miterlimit="10" d="M1234.9,459.5l2.8-1.3l36.8,0.1c0,0,9.5-6,19.8-6.2"/>
		<line fill="none" stroke="#FFFFFF" stroke-miterlimit="10" x1="1294.4" y1="399.9" x2="1294.1" y2="483"/>
		<line fill="none" stroke="#FFFFFF" stroke-miterlimit="10" x1="1351.2" y1="399" x2="1350.9" y2="484.3"/>
		<path fill="none" stroke="#FFFFFF" stroke-miterlimit="10" d="M1299.1,412.9c0,0-9.1,8.1-28.1,7.8c-18.9-0.3-26.9-4.4-26.9-4.4"/>
		<polygon fill="#E30613" points="1241.1,472.5 1237.1,472.4 1235.9,467.6 1237.7,467.6 		"/>
		<polygon fill="#E30613" points="1240.7,410.9 1237.3,410.9 1236.1,415.7 1237.4,415.7 		"/>
		<path fill="none" stroke="#FFFFFF" stroke-miterlimit="10" d="M1308.3,442.5l22.2-0.6c0,0,8.2,0.6,9.7,6.5
			c1.6,5.9,1,15.3-1.4,18.9s-4.9,6.9-10.2,7.7c-5.3,0.8-14.5,1-19.4,0.4c-4.9-0.6-13.2-6.6-13.2-6.6l0.1-16.1
			C1296.2,452.6,1298.6,443.5,1308.3,442.5z"/>
		<path fill="#3C3C3B" d="M1296.2,454.4c0,0,12.7-7,23-8.2c10.3-1.3,13.5,0.3,15.2,2.6c4.1,5.6,3.1,11.3,3.1,11.3s0.3,8-6.4,10.6
			c-6.6,2.6-16.2,1.4-19.5,0.6c-3.3-0.7-9.6-4.1-9.6-4.1l-5.9,0"/>
		
			<ellipse transform="matrix(-1 -3.633165e-03 3.633165e-03 -1 2664.6333 922.6765)" fill="#FFFFFF" cx="1333.2" cy="458.9" rx="2" ry="7.6"/>
		
			<text transform="matrix(-3.615153e-03 0.9959 -1 -3.630000e-03 1236.7258 428.6519)" font-family="'Calibre-Medium'" font-size="28.5277">6</text>
		
			<text transform="matrix(3.615153e-03 -0.9959 1 3.630000e-03 1424.6143 450.9493)" font-family="'Calibre-Medium'" font-size="28.5277">6</text>
	</g>
	<g>
		<path fill="none" stroke="#E30613" stroke-width="2" stroke-miterlimit="10" d="M632.4,195.8"/>
		<path fill="#9D9D9C" d="M769.1,337.6l9-9.8c0.8,2.3,0.7,4.5-0.8,6.1C771.1,340.8,769.1,337.6,769.1,337.6z"/>
		<path fill="#9D9D9C" d="M733.4,380.5c-4.5,4.3-7.5,3-7.5,3c-0.1,0-0.1,0-0.2-0.1l10.4-10.9C736.3,372.8,737.7,376.3,733.4,380.5z"
			/>
		<path fill="#343970" d="M739.3,369.9c-1.9,1.6-3.4,2.8-3.8,3.2l0,0c-0.1,0.1-0.1,0.1-0.1,0.1s0,0,0,0l-9.7,10.2
			c-5.6-2.3-8.2-4.4-16-11.8c-7.9-7.4-28.5-25.7-32.9-30.5c-4.4-4.8-29.6-29.1-38.1-36.7c-8.5-7.6-38.7-35.4-43.6-41.8
			c-4.9-6.5-11.8-14.5-9.2-17.8c2.3-2.8,3.8-2.5,3.8-2.5s13.4-15.5,19.5-21.9c6.1-6.5,15-14.7,15-14.7c5.6-4.5,5.5-4.5,5.5-4.5
			s0.2-2.9,1.9-4.6c1.6-1.7,6.9-3.7,21.3,8.6c0,0,38.1,37.4,52.9,50.6c15.1,13.5,49.7,46,60,56.5c0,0,10,8.5,12.2,15.5l-8.7,9.4
			c0,0-1.6,2-3.9,4.9c-0.3-0.4-1.3-1.8-2.4-1.3c-1.3,0.5-9.3,4.4-17.3,14c-8,9.6-8.1,13.5-7.4,14.1
			C738.9,369.3,739.2,369.7,739.3,369.9z"/>
		<path fill="none" stroke="#FFFFFF" stroke-miterlimit="10" d="M735.5,373.2l0.1-0.1l0,0c-24-23.7-54.4-47.5-73.7-59.3"/>
		<polygon fill="#FFFFFF" points="683.4,328.5 680,325.9 719.5,284.2 722.2,287.4 		"/>
		<path fill="none" stroke="#FFFFFF" stroke-miterlimit="10" d="M651.3,307.6L631,288.9c-8.7-7.8,0-13.4,16.3-30.3
			c16.2-16.9,24.8-26.6,32-19.6l19.4,18.5"/>
		<path fill="none" stroke="#FFFFFF" stroke-miterlimit="10" d="M630.1,201.7c0,0,2.3,7.4,18.2,19.3s21.7,13.6,21.7,13.6"/>
		<path fill="none" stroke="#FFFFFF" stroke-miterlimit="10" d="M590.2,241.4c0,0,10.5,4.2,22.3,18c11.8,13.8,13.8,20.4,13.8,20.4"
			/>
		
			<rect x="625.8" y="200.4" transform="matrix(0.7266 0.687 -0.687 0.7266 311.2342 -375.2213)" fill="#E30613" width="2.7" height="6.2"/>
		
			<rect x="592.1" y="236" transform="matrix(0.7266 0.687 -0.687 0.7266 326.5065 -342.3319)" fill="#E30613" width="2.7" height="6.2"/>
		
			<ellipse transform="matrix(-0.7266 -0.687 0.687 -0.7266 916.7166 834.4577)" fill="#FFFFFF" cx="624.4" cy="234.9" rx="13.8" ry="17.7"/>
		
			<ellipse transform="matrix(-0.7266 -0.687 0.687 -0.7266 1040.2872 1099.7428)" fill="#FFFFFF" cx="738.9" cy="342.9" rx="15.1" ry="17.6"/>
		<path fill="#9D9D9C" d="M739.3,369.9c-0.2-0.2-0.5-0.6-0.9-1c-0.7-0.6-0.6-4.5,7.4-14.1c8-9.6,16.1-13.5,17.3-14
			c1.1-0.4,2.1,0.9,2.4,1.3c-3.6,4.6-9,11.2-12.4,14.9C749.7,360.9,743.4,366.4,739.3,369.9z"/>
		<path fill="#9D9D9C" d="M750.3,342.6l-10.1,11.1c0,0,3.8-1.4,4.8-2.4c0.9-1,1.8-0.1,2.7-1c0.9-0.9,0-2,0.7-2.7
			S750.4,344.2,750.3,342.6z"/>
		<path fill="none" stroke="#FFFFFF" stroke-miterlimit="10" d="M631.3,211.3c0,0,15,14.4,19.8,17.1s2.2,7.5-0.7,10.5
			c0,0-17.9,19.1-21.9,22.3c-4.1,3.2-5.7,4.1-9.8-0.8c-4.1-4.9-12.7-14.7-16.3-17.3c-3.6-2.6-2.2-6-0.1-8.4
			c2.1-2.4,18.3-21,22.6-23.4C629.2,209.1,631.3,211.3,631.3,211.3z"/>
		<g>
			
				<ellipse transform="matrix(-0.7266 -0.687 0.687 -0.7266 937.2616 955.3834)" fill="#FFFFFF" cx="658.7" cy="291.2" rx="2.1" ry="8.1"/>
		</g>
		<path fill="none" stroke="#FFFFFF" stroke-miterlimit="10" d="M769.5,337.2c-19.5-18.5-51.7-53.9-63.4-69.3"/>
		<path fill="#9D9D9C" d="M693.8,254.9l9,2.5c0,0-5,16-21.1,32.6c-15.5,16-30.1,22-30.1,22l-3.2-9.5c0,0,14.7-7.2,26.1-20
			S693.8,254.9,693.8,254.9z"/>
		<text transform="matrix(0.6842 -0.7237 0.7266 0.687 736.6416 353.9436)"><tspan x="0" y="0" font-family="'Calibre-Medium'" font-size="20.7761">2</tspan><tspan x="9.3" y="0" font-family="'Calibre-Medium'" font-size="20.7761">6</tspan></text>
		<text transform="matrix(-0.6842 0.7237 -0.7266 -0.687 626.7308 223.4121)"><tspan x="0" y="0" font-family="'Calibre-Medium'" font-size="20.7761">2</tspan><tspan x="9.3" y="0" font-family="'Calibre-Medium'" font-size="20.7761">6</tspan></text>
	</g>
	<g>
		<polygon fill="#8C9699" points="1002,361.3 994.2,367.3 992.4,365.2 1000.2,359.1 		"/>
		<polygon fill="#8C9699" points="994.4,359.8 986.6,365.9 984.8,363.7 992.6,357.7 		"/>
		<polygon fill="#8C9699" points="997.3,279.8 988.9,274.7 987.3,277 995.7,282.2 		"/>
		<polygon fill="#8C9699" points="989.9,282.1 981.5,277 979.9,279.3 988.3,284.5 		"/>
		<polygon fill="#BE1622" points="884.5,360.7 880.5,360.1 873.9,349.8 875.2,348.3 		"/>
		<polygon fill="#BE1622" points="880.7,294 873.5,306.7 871.8,305.7 876.9,294.8 		"/>
		<path fill="#858FA1" d="M1078,339.9c0,0,2.8,3.1,2.8,7.2c-0.1,5.7-6.3,9.5-18.5,11.5l-0.2,0c0,0-123.5,6.7-140.3,8.6
			c-17,1.9-34.5-6.7-34.5-6.7l-9.3-12.4c0,0-3.3-10.3-3.9-20.5c-0.7-11.6,2.2-21.1,2.2-21.1l7.1-12.7c0,0,17-10.2,33.5-10.3
			c17.2-0.1,127.9-7.5,135.8-7.8c8-0.3,23.4,2.1,24.1,8.4c0.5,5.2-1.7,8.9-1.7,8.9c4.9,1.6,5.5,10.7,6.2,22.1
			S1082.6,337.3,1078,339.9z"/>
		<path fill="#DADADA" d="M1063.6,348.3c0.2,4.6,0.4,11,11.2,5.6c6.4-3.1,6-8.3,3-11c-1.5-1.4-3.8-1.7-6.1-1.7
			C1067.7,341.5,1063.3,342.3,1063.6,348.3z"/>
		<path fill="#DADADA" d="M1060.1,286.1c-0.3-4.6-0.9-10.9,10.5-6.9c6.7,2.4,6.9,7.5,4.3,10.6c-1.4,1.6-3.6,2.2-5.8,2.3
			C1064.9,292.5,1060.5,292.2,1060.1,286.1z"/>
		<path fill="none" stroke="#E30613" stroke-miterlimit="10" d="M1004.9,319.3"/>
		<path fill="none" stroke="#FFFFFF" stroke-miterlimit="10" d="M1033.3,343.6c-6,1.2-25,5.2-28.1,2.8c-3.1-2.4,0.7-13.6,0.3-25
			c-0.4-11.6-5.8-24.4-3.5-27.2c2.3-2.8,18.1-1.2,29.2-0.3c14.2,1.1,40,0.2,43.1,3s4,6,4.2,16.6c0.3,10.6,2.9,20.5-4.1,23.2
			C1067.5,339.7,1039.3,342.5,1033.3,343.6z"/>
		
			<ellipse transform="matrix(-0.9984 5.720938e-02 -5.720938e-02 -0.9984 2137.9067 572.9434)" fill="#FFFFFF" cx="1060.8" cy="317.1" rx="13.2" ry="14.1"/>
		<path fill="none" stroke="#FFFFFF" stroke-miterlimit="10" d="M1078,339.9c-11,0.3-55.7,10.2-69.1,14.1"/>
		<path fill="none" stroke="#FFFFFF" stroke-miterlimit="10" d="M1075.2,293c-16.1,0.3-65.6-5-71.8-6.9"/>
		<path fill="none" stroke="#FFFFFF" stroke-miterlimit="10" d="M973.6,311.4c0,0,1.5,26.5,1.9,33.7c0.4,7.1-12.8,11.4-12.8,11.4"/>
		<path fill="#3C3C3B" d="M938.8,298.7l1.6,27.2c0,0,2.5,8.1,21.2,5.9c18.7-2.2,19.3-12.2,19.3-12.2s1.6-15.5-3.4-20.3
			c-6.1-5.9-11.3-5.5-15.7-5.3C954.3,294.5,938.8,298.7,938.8,298.7z"/>
		<path fill="none" stroke="#FFFFFF" stroke-miterlimit="10" d="M934.7,353.3l-23.6,1.4c-2.2,0.1-4.8-5.1-4.9-7.2l-2.5-43
			c-0.1-2.1,2.1-7.6,4.3-7.7l23.3-1.3c2.2-0.1,4,1.5,4.2,3.5l2.9,50.3C938.6,351.3,936.9,353.1,934.7,353.3z"/>
		<path fill="none" stroke="#FFFFFF" stroke-miterlimit="10" d="M882.7,353c17.3,1.1,48.6,4.9,56.3,7.3"/>
		<path fill="none" stroke="#FFFFFF" stroke-miterlimit="10" d="M880.4,301.4c0.3,0.4,48.6-9.8,54.2-13"/>
		<path fill="none" stroke="#FFFFFF" stroke-miterlimit="10" d="M874.7,327.4c0.7,8.6,2,14.7,2.9,17.3c0.9,2.5,0.5,3.7,5.3,4.7
			c4.8,1,14.8,3.5,17.7,2.7c0,0,3.6-0.7,3.9-3.6s-3-17.4-3.2-22.5c-0.1-5.1,1-19.6,0.7-21.7c-0.3-2-2.2-3.7-4-3.5
			c-1.9,0.2-6,0.9-9.1,1.9s-10.5,2.6-12.1,5.2C874.3,311.7,874.7,327.4,874.7,327.4z"/>
		<path fill="none" stroke="#FFFFFF" stroke-miterlimit="10" d="M935.6,305.4c0,0-30.7,3.6-30.4,9.5c0.4,6.9,31.3,6.7,31.3,6.7"/>
		
			<ellipse transform="matrix(-0.9984 5.720938e-02 -5.720938e-02 -0.9984 1793.6139 602.4332)" fill="#FFFFFF" cx="888.2" cy="326.9" rx="13.2" ry="14.1"/>
		<path fill="none" stroke="#FFFFFF" stroke-miterlimit="10" d="M936.5,290.6l3.5,60.6c0,0,1.6,7.1,14.6,5.9s22.9-1.4,26.7-6.6
			c3.8-5.2,2-17.4,2-17.4s-0.4-32.2-2.1-38.3s-11-6.1-11-6.1L936.5,290.6z"/>
		
			<ellipse transform="matrix(-0.9984 5.720938e-02 -5.720938e-02 -0.9984 1969.6428 564.3109)" fill="#FFFFFF" cx="976.7" cy="310.3" rx="2.2" ry="8"/>
		<path fill="#9D9D9C" d="M972.9,293.9c0,0,7.1,6.3,7.7,17.7c0.7,11.3-5.7,18-5.7,18s4.5,0.4,7.7-4.4c4-6.2,1.7-22.4,0-24.9
			C979.6,293.9,972.9,293.9,972.9,293.9z"/>
		
			<text transform="matrix(5.697601e-02 0.9943 -0.9984 5.721000e-02 881.4941 318.2783)" font-family="'Calibre-Medium'" font-size="20.7761">19</text>
		
			<text transform="matrix(-5.697601e-02 -0.9943 0.9984 -5.721000e-02 1067.5105 325.7109)" font-family="'Calibre-Medium'" font-size="20.7761">19</text>
	</g>
	<g>
		<g>
			<line fill="none" stroke="#706F6F" stroke-width="8" stroke-miterlimit="10" x1="1103.7" y1="310.9" x2="1248.7" y2="297.6"/>
			<g>
				<polygon fill="#706F6F" points="1235,319.7 1241.8,298.2 1231.2,278.4 1282,294.5 				"/>
			</g>
		</g>
	</g>
	<rect x="0" y="-0.1" fill="#0098A1" width="1489.9" height="32.1"/>
	<rect x="0" y="493.4" fill="#0098A1" width="1489.9" height="32.1"/>
	<g>
		<defs>
			<rect id="SVGID_3_" x="506.1" y="-0.1" width="221" height="171"/>
		</defs>
		<clipPath id="SVGID_2_">
			<use xlink:href="#SVGID_3_"  overflow="visible"/>
		</clipPath>
		<g clip-path="url(#SVGID_2_)">
			<path opacity="0.8" d="M721.3,43.7c0,0,3.9,1.5,5.7,5.2c2.5,5.2-1.3,11.3-11.3,18.6l-0.2,0.1c0,0-107,62.1-121.1,71.4
				c-14.3,9.5-33.7,9.7-33.7,9.7l-13.9-6.9c0,0-7.6-7.7-12.8-16.5c-5.9-10-7.6-19.8-7.6-19.8l0.6-14.6c0,0,10.5-16.8,25.2-24.4
				c15.2-7.9,110.5-64.7,117.5-68.6c7-3.9,21.8-8.8,25.3-3.5c2.8,4.4,2.5,8.7,2.5,8.7c5.1-0.8,9.8,7.1,15.5,16.9
				S724.2,39.3,721.3,43.7z"/>
		</g>
		<g clip-path="url(#SVGID_2_)">
			<polygon fill="#8C9699" points="652.7,97.4 648.8,106.4 646.2,105.4 650.1,96.4 			"/>
			<polygon fill="#8C9699" points="645.3,99.8 641.5,108.8 638.9,107.9 642.7,98.8 			"/>
			<polygon fill="#8C9699" points="609,28.5 599.2,28 599,30.8 608.8,31.2 			"/>
			<polygon fill="#8C9699" points="603.7,34 593.9,33.6 593.6,36.4 603.5,36.8 			"/>
			<polygon fill="#BE1622" points="552,152.4 548.3,153.7 537.5,148 537.9,146 			"/>
			<polygon fill="#BE1622" points="516.3,95.9 516.2,110.4 514.3,110.4 513.4,98.4 			"/>
			<path fill="#858FA1" d="M708.8,41.8c0,0,4,1.4,5.9,5c2.7,5.1-0.9,11.3-10.6,19l-0.2,0.1c0,0-104.7,65.8-118.5,75.6
				c-13.9,10-33.4,10.9-33.4,10.9l-14.2-6.4c0,0-7.9-7.4-13.3-16c-6.2-9.8-8.3-19.5-8.3-19.5l0.1-14.6c0,0,10-17.2,24.3-25.3
				c15-8.4,108.2-68.5,115-72.7c6.8-4.2,21.5-9.5,25.1-4.3c3,4.3,2.8,8.6,2.8,8.6c5.1-1,10,6.7,16.1,16.4
				C705.8,28.2,711.5,37.3,708.8,41.8z"/>
			<path fill="#DADADA" d="M700.3,56.2c2.4,3.9,5.7,9.4,12.5-0.5c4-5.8,1.2-10.2-2.7-11.1c-2-0.5-4.2,0.3-6.1,1.5
				C700.5,48.2,697.1,51,700.3,56.2z"/>
			<path fill="#DADADA" d="M667,3.5c-2.5-3.9-6.1-9.1,5.9-11.1c7-1.1,9.7,3.2,8.9,7.2c-0.4,2-2.1,3.6-4,4.9
				C674.3,6.7,670.3,8.6,667,3.5z"/>
			<path fill="none" stroke="#E30613" stroke-miterlimit="10" d="M634.9,59.2"/>
			<path fill="none" stroke="#FFFFFF" stroke-miterlimit="10" d="M671.5,66.8c-4.7,3.9-19.3,16.7-23.2,16.1c-3.9-0.6-6-12.3-11.9-22
				c-6-10-16.9-18.5-16.3-22.1c0.7-3.6,15.2-9.8,25.4-14.4c12.9-5.9,35-19.2,39.1-18.2c4.1,1,6.4,3.4,11.8,12.5
				c5.4,9.1,12.4,16.5,7.7,22.3S676.2,62.8,671.5,66.8z"/>
			
				<ellipse transform="matrix(-0.8453 0.5342 -0.5342 -0.8453 1275.8021 -308.8871)" fill="#FFFFFF" cx="682.6" cy="30.2" rx="13.2" ry="14.1"/>
			<path fill="none" stroke="#FFFFFF" stroke-miterlimit="10" d="M708.8,41.8c-9.5,5.6-43.8,36-53.6,45.8"/>
			<path fill="none" stroke="#FFFFFF" stroke-miterlimit="10" d="M683.5,2.1c-13.9,8.1-59.8,27.4-66.1,28.8"/>
			<path fill="none" stroke="#FFFFFF" stroke-miterlimit="10" d="M606,66c0,0,14.2,22.4,18,28.5c3.8,6-5.6,16.2-5.6,16.2"/>
			<path fill="#3C3C3B" d="M569.5,71.8l14.6,23.1c0,0,6.1,5.8,21.4-5.1c15.3-11,10.9-20,10.9-20s-6.1-14.3-12.9-16.1
				c-8.2-2.2-12.5,0.6-16.3,3C580.9,60.6,569.5,71.8,569.5,71.8z"/>
			<path fill="none" stroke="#FFFFFF" stroke-miterlimit="10" d="M592.3,121.5l-19.9,12.6c-1.8,1.2-6.6-2.2-7.7-3.9l-23-36.4
				c-1.1-1.8-1.8-7.7,0-8.8l19.7-12.5c1.8-1.2,4.2-0.7,5.4,1.1l26.9,42.6C594.8,117.9,594.2,120.3,592.3,121.5z"/>
			<path fill="none" stroke="#FFFFFF" stroke-miterlimit="10" d="M546.7,146.5c15.7-7.5,44.9-19.3,52.7-21"/>
			<path fill="none" stroke="#FFFFFF" stroke-miterlimit="10" d="M519.7,102.5c0.5,0.2,37.8-32.1,41.1-37.7"/>
			<path fill="none" stroke="#FFFFFF" stroke-miterlimit="10" d="M527.3,128c4.8,7.2,8.9,11.9,10.9,13.7c2,1.8,2.3,3,6.9,1.6
				s14.7-4.1,16.8-6.2c0,0,2.8-2.4,1.6-5s-11.1-13.8-13.7-18.1s-8.7-17.7-9.9-19.3s-3.7-2.2-5.2-1.1s-4.8,3.7-7.1,6.1
				c-2.3,2.4-7.9,7.4-8.1,10.5C519.3,114.4,527.3,128,527.3,128z"/>
			<path fill="none" stroke="#FFFFFF" stroke-miterlimit="10" d="M569.9,79.2c0,0-25.2,18-22,23.1c3.7,5.9,30.7-9.3,30.7-9.3"/>
			
				<ellipse transform="matrix(-0.8453 0.5342 -0.5342 -0.8453 1059.0071 -64.598)" fill="#FFFFFF" cx="538.9" cy="121" rx="13.2" ry="14.1"/>
			<path fill="none" stroke="#FFFFFF" stroke-miterlimit="10" d="M563.5,65.9l32.4,51.3c0,0,4.8,5.4,15.7-1.9
				c10.8-7.3,19.3-12.3,20.1-18.7c0.8-6.4-6.6-16.2-6.6-16.2s-16-28-20.4-32.5c-4.4-4.5-12.6,0-12.6,0L563.5,65.9z"/>
			
				<ellipse transform="matrix(-0.8453 0.5342 -0.5342 -0.8453 1156.4481 -207.6394)" fill="#FFFFFF" cx="608.3" cy="63.6" rx="2.2" ry="8"/>
			<path fill="#9D9D9C" d="M597,51c0,0,9.3,2.1,15.4,11.8c6.1,9.6,3.8,18.5,3.8,18.5s4.1-1.8,4.6-7.6c0.5-7.4-9.4-20.5-12.1-21.8
				C602.8,47.8,597,51,597,51z"/>
			<text transform="matrix(0.532 0.8419 -0.8453 0.5342 528.0452 115.4903)" font-family="'Calibre-Medium'" font-size="20.7761">20</text>
			<text transform="matrix(-0.532 -0.8419 0.8453 -0.5342 693.4429 35.6858)" font-family="'Calibre-Medium'" font-size="20.7761">20</text>
		</g>
	</g>
	<g>
		<circle fill="#E30613" cx="661.2" cy="32.2" r="32.5"/>
		<g>
			<path fill="#FFFFFF" d="M661.7,38.1c2.3,0,4,1.7,4,4c0,2.3-1.7,3.9-4,3.9c-2.3,0-3.9-1.7-3.9-3.9
				C657.8,39.8,659.4,38.1,661.7,38.1z M665,35.2h-6.6l-0.4-19.5h7.3L665,35.2z"/>
		</g>
	</g>
	<g>
		<circle fill="#E30613" cx="850.8" cy="481.4" r="32.5"/>
		<g>
			<path fill="#FFFFFF" d="M851.3,487.3c2.3,0,4,1.7,4,4c0,2.3-1.7,3.9-4,3.9c-2.3,0-3.9-1.7-3.9-3.9
				C847.4,489,849,487.3,851.3,487.3z M854.6,484.4H848l-0.4-19.5h7.3L854.6,484.4z"/>
		</g>
	</g>
	<g>
		<g>
			<line fill="none" stroke="#E30613" stroke-width="8" stroke-miterlimit="10" x1="427.9" y1="189" x2="547.5" y2="209.4"/>
			<g>
				<polygon fill="#E30613" points="528.6,227.2 540.7,208.2 535.5,186.3 580.5,215 				"/>
			</g>
		</g>
	</g>
	<g>
		<g>
			<line fill="none" stroke="#E30613" stroke-width="8" stroke-miterlimit="10" x1="427.9" y1="189" x2="482.9" y2="152.2"/>
			<g>
				<polygon fill="#E30613" points="481.4,178.2 477.1,156.1 458.3,143.8 510.7,133.7 				"/>
			</g>
		</g>
	</g>
	<g>
		<rect x="1208.8" y="397.6" fill="#B2B2B2" width="9.9" height="89.8"/>
		<rect x="1218.7" y="397.6" fill="#B2B2B2" width="9.9" height="9.9"/>
		<rect x="1218.7" y="477.5" fill="#B2B2B2" width="9.9" height="9.9"/>
	</g>
	<g>
		<rect x="1447.7" y="397.6" fill="#B2B2B2" width="9.9" height="89.8"/>
		<rect x="1437.8" y="477.5" fill="#B2B2B2" width="9.9" height="9.9"/>
		<rect x="1437.8" y="397.6" fill="#B2B2B2" width="9.9" height="9.9"/>
	</g>
</g>
</svg>
