<?xml version="1.0" encoding="utf-8"?>
<!-- Generator: Adobe Illustrator 18.1.1, SVG Export Plug-In . SVG Version: 6.00 Build 0)  -->
<svg version="1.1" id="Ebene_3" xmlns="http://www.w3.org/2000/svg" xmlns:xlink="http://www.w3.org/1999/xlink" x="0px" y="0px"
	 viewBox="0 0 1588.1 951.7" enable-background="new 0 0 1588.1 951.7" xml:space="preserve">
<g>
	<g>
		<path fill="none" stroke="#FFFFFF" stroke-width="6" stroke-miterlimit="10" d="M906.9,726.6l-42.4,29.3l-10.2-13.5l22.9-15.8
			C887.2,726.6,897.1,726.6,906.9,726.6z"/>
		<path fill="none" stroke="#FFFFFF" stroke-width="6" stroke-miterlimit="10" d="M845.1,726.7l-26,17.9L809,731.1l6.4-4.5
			C825.3,726.7,835.2,726.7,845.1,726.7z"/>
		<path fill="none" stroke="#FFFFFF" stroke-width="6" stroke-miterlimit="10" d="M906.8,225.3c-9.8,0-19.6,0.1-29.4,0.1L854,209.2
			l10.2-13.5L906.8,225.3z"/>
		<path fill="none" stroke="#FFFFFF" stroke-width="6" stroke-miterlimit="10" d="M845.5,225.5c-9.8,0-19.6,0.1-29.4,0.1h0l-7.4-5.1
			l10.2-13.5L845.5,225.5z"/>
		<polyline fill="none" stroke="#FFFFFF" stroke-width="6" stroke-miterlimit="10" points="222.1,678.4 198.5,673.2 162.2,608.9 
			170.3,600.2 		"/>
		<polyline fill="none" stroke="#FFFFFF" stroke-width="6" stroke-miterlimit="10" points="174.7,348.7 164.9,342.2 198.9,278.4 
			222.1,274.4 		"/>
		<path fill="none" stroke="#FFFFFF" stroke-width="6" stroke-miterlimit="10" d="M170.3,600.2c0,0-16.3-63.4-16.3-125
			c0-70.3,20.7-126.5,20.7-126.5"/>
		<path fill="none" stroke="#FFFFFF" stroke-width="6" stroke-miterlimit="10" d="M222.1,274.4c0,0,106.3-55.7,205.5-50.6
			c47.8,2.4,216.2,2.4,388.4,1.8h0c9.8,0,19.6-0.1,29.4-0.1c10.7,0,21.3-0.1,31.9-0.1c9.8,0,19.7-0.1,29.4-0.1
			c168.4-0.8,320.5-1.9,342.5-1.5c48.2,0.8,140.5,20.7,142.3,58.9c1.5,31.3-13.5,52.9-13.5,52.9c29,11.3,29.5,66.5,29.5,135.6
			c0,69.1,0,134.2-28.6,148.5c0,0,16,19.8,14.1,44.5c-2.6,34.6-41.1,54.9-115.5,62.8l-1.2-0.1c0,0-176.5-0.5-369.7-0.4
			c-9.8,0-19.7,0-29.6,0c-10.7,0-21.4,0-32.1,0c-9.9,0-19.8,0-29.7,0c-175,0.3-343.2,1.3-387.8,3.8
			c-103.3,5.8-205.5-52.1-205.5-52.1"/>
		<path fill="none" stroke="#FFFFFF" stroke-width="4" stroke-miterlimit="10" d="M1289.3,665.4c-0.3,28-1.4,66.2,65.7,37.8
			c39.5-16.8,39-47.9,22.1-65.2c-8.7-8.9-22.5-11.8-36.1-12.1C1316.1,625.5,1289.6,628.9,1289.3,665.4z"/>
		<path fill="none" stroke="#FFFFFF" stroke-width="4" stroke-miterlimit="10" d="M1289.4,289.2c-0.3-28-1.4-66.2,65.7-37.8
			c39.5,16.8,39,47.9,22.1,65.2c-8.7,8.9-22.5,11.8-36.1,12.1C1316.3,329,1289.8,325.7,1289.4,289.2z"/>
	</g>
	<path fill="none" stroke="#FFFFFF" stroke-width="2" stroke-miterlimit="10" d="M945.5,469.9"/>
	<path fill="none" stroke="#FFFFFF" stroke-width="2" stroke-miterlimit="10" d="M1108.2,626.8c-36.8,5-152.5,23-170.2,7.3
		c-17.7-15.6,8.9-82,10.2-150.5c1.4-70.4-26.5-149.2-11.6-165.5c15-16.3,109.2-0.8,176.3,8.5c85.1,11.7,240.9,15,258.6,33.2
		s21.8,37.8,19.7,101.6s10.2,124.4-32.7,138.8S1145,621.8,1108.2,626.8z"/>
	<ellipse fill="none" stroke="#FFFFFF" stroke-width="2" stroke-miterlimit="10" cx="1282.9" cy="476" rx="79.9" ry="85.1"/>
	<path fill="none" stroke="#FFFFFF" stroke-width="2" stroke-miterlimit="10" d="M1379.1,619.8c-66.7-2-339.6,42.4-421.3,61.2"/>
	<path fill="none" stroke="#FFFFFF" stroke-width="2" stroke-miterlimit="10" d="M1378.2,335.6c-97.1-3.8-393.7-52.8-430.6-66.4"/>
	<path fill="none" stroke="#FFFFFF" stroke-width="2" stroke-miterlimit="10" d="M776.5,512.1c0,0,0,59.9,0,103.1
		c0,43.2-81,64.3-81,64.3"/>
	<path fill="none" stroke="#FFFFFF" stroke-width="4" stroke-miterlimit="10" d="M819.1,415.3c0.1,36.9-11.8,65.1-22.7,83.2
		c-5.2,4.7-11.8,9.3-19.9,13.6c-17.8,9.4-43.1,16.9-79.4,19c-113.7,6.5-125.9-43-125.9-43V323.3c0,0,94.6-20.3,140.1-20.3
		c25.2,0,54.9-0.5,87.6,32C809,353.8,819,381.1,819.1,415.3z"/>
	<path fill="none" stroke="#FFFFFF" stroke-width="2" stroke-miterlimit="10" d="M527.6,650.6H385.1c-13.1,0-26.9-32.4-26.9-45
		V345.5c0-12.6,15.4-45,28.5-45h141c13.1,0,23.8,10.3,23.8,22.8v304.4C551.5,640.3,540.7,650.6,527.6,650.6z"/>
	<path fill="none" stroke="#FFFFFF" stroke-width="2" stroke-miterlimit="10" d="M213.9,630.8C318,643.2,505.2,677.1,550.8,694"/>
	<path fill="none" stroke="#FFFFFF" stroke-width="2" stroke-miterlimit="10" d="M218,319.4c1.8,2.5,296.7-42.2,331.5-59.9"/>
	<path fill="none" stroke="#FFFFFF" stroke-width="2" stroke-miterlimit="10" d="M174.4,473.8c1.4,52.1,6.8,89.5,11.3,105.1
		c4.5,15.6,1.8,22.6,30.4,30.4s88,26.5,105.7,22.6c0,0,22.2-3,24.5-20.4c2.3-17.4-12.3-106-11.3-136.8
		c0.9-30.8,12.7-118.1,11.8-130.3c-0.9-12.2-11.8-23-23.1-22.6c-11.3,0.4-36.3,3.5-55.8,8.3s-64.1,12.3-74.9,27.4
		C177.6,379.1,174.4,473.8,174.4,473.8z"/>
	<path fill="none" stroke="#FFFFFF" stroke-width="2" stroke-miterlimit="10" d="M549.4,362.4c0,0-186.6,10.8-186.6,47
		c0,42,186.6,51.4,186.6,51.4"/>
	<ellipse fill="none" stroke="#FFFFFF" stroke-width="2" stroke-miterlimit="10" cx="256.1" cy="475.6" rx="79.9" ry="85.1"/>
	<path fill="none" stroke="#FFFFFF" stroke-width="2" stroke-miterlimit="10" d="M829.3,493.4c-1,30.6-1,30.8-0.6,52.8
		c0,0,4.9,74.1-19.8,104.2c-19.2,23.4-59.4,27.4-113.5,29.2c-15.5,0.5-32.1,0.9-49.7,1.4c-79,2.5-86.2-40.6-86.2-40.6V273.6h204.2
		c0,0,56.3,3.5,64.3,40.8c1.1,5.3,1.9,13.8,2.5,24.5c-18.2-31.1-52-33.2-52-33.2s10.2,10.3,20.4,29.3c10.1,18.8,20.1,46.1,20.1,80.3
		c0.1,36.9-11.8,65.1-22.7,83.2c-9.3,15.4-17.9,23.5-17.9,23.5s27,4,47.7-23.9C827.4,496.6,828.4,495.1,829.3,493.4z"/>
	<ellipse fill="none" stroke="#FFFFFF" stroke-width="4" stroke-miterlimit="10" cx="795.8" cy="406.4" rx="13" ry="48.5"/>
	<path fill="none" stroke="#FFFFFF" stroke-width="4" stroke-miterlimit="10" d="M829.3,493.4c-1,1.7-2,3.2-3.1,4.7
		C805.6,526,778.5,522,778.5,522s8.6-8.1,17.9-23.5c10.9-18.1,22.8-46.3,22.7-83.2c0-34.3-10.1-61.6-20.1-80.3
		c-10.2-19-20.4-29.3-20.4-29.3s33.8,2.1,52,33.2c0,0,0,0,0,0c1.6,2.8,3.1,5.8,4.5,9C844.1,362.8,852.1,454.3,829.3,493.4z"/>
	<g>
		<path fill="#FFFFFF" d="M285.6,442.3c0-7.6-5.5-11.7-12.8-12.2v-13.4c14.3,1.5,24.3,11.4,24.3,25.6c0,15.4-8.7,24.4-22.3,24.4
			c-9.4,0-17.2-7.7-26.1-15.6l-18.4-16.5v33.4h-11.4v-51.1h8.5l25.3,22.7c8.8,7.9,15.3,14.5,22,14.5
			C281,454,285.6,449.5,285.6,442.3z"/>
		<path fill="#FFFFFF" d="M257.3,476.4c23.5,0,39.8,11.6,39.8,29c0,17.4-16.3,29-39.8,29c-23.5,0-39.8-11.6-39.8-29
			C217.5,488,233.9,476.4,257.3,476.4z M257.3,489c-16.2,0-28,5-28,16.4c0,11.2,11.8,16.2,28,16.2c16.2,0,28-5,28-16.2
			C285.3,494,273.5,489,257.3,489z"/>
	</g>
	<g>
		<path fill="#FFFFFF" d="M1254,509.7c0,7.6,5.5,11.7,12.8,12.2v13.4c-14.3-1.5-24.3-11.4-24.3-25.6c0-15.4,8.7-24.4,22.3-24.4
			c9.4,0,17.2,7.7,26.1,15.6l18.4,16.5v-33.4h11.4v51.1h-8.5l-25.3-22.7c-8.8-7.9-15.3-14.5-22-14.5
			C1258.5,498,1254,502.5,1254,509.7z"/>
		<path fill="#FFFFFF" d="M1282.2,475.6c-23.5,0-39.8-11.6-39.8-29c0-17.4,16.3-29,39.8-29c23.5,0,39.8,11.6,39.8,29
			C1322,464,1305.7,475.6,1282.2,475.6z M1282.2,463c16.2,0,28-5,28-16.4c0-11.2-11.8-16.2-28-16.2c-16.2,0-28,5-28,16.2
			C1254.2,458,1266,463,1282.2,463z"/>
	</g>
	<line fill="none" stroke="#FFFFFF" stroke-width="4" stroke-miterlimit="10" x1="222.1" y1="274.4" x2="174.7" y2="348.7"/>
	<line fill="none" stroke="#FFFFFF" stroke-width="4" stroke-miterlimit="10" x1="170.3" y1="600.2" x2="222.1" y2="678.4"/>
</g>
</svg>
