<?xml version="1.0" encoding="utf-8"?>
<!-- Generator: Adobe Illustrator 18.1.1, SVG Export Plug-In . SVG Version: 6.00 Build 0)  -->
<svg version="1.1" id="Ebene_5" xmlns="http://www.w3.org/2000/svg" xmlns:xlink="http://www.w3.org/1999/xlink" x="0px" y="0px"
	 viewBox="0 0 1489.9 480" enable-background="new 0 0 1489.9 480" xml:space="preserve">
<g>
	<rect x="328.9" y="61.9" fill="#135729" width="80.4" height="80.4"/>
	<g>
		<path fill="#FFFFFF" d="M375.8,94c-1.5-1.4-4.2-1.7-5.8-1.7c-4.5,0-4.8,2.2-4.9,8.2c1.3-1.7,3.2-2.3,5.7-2.3
			c2.6,0,4.5,0.7,6.1,2.1c1.8,1.5,2.7,3.8,2.7,7.2c0,3.4-0.9,5.9-2.9,7.6c-1.7,1.5-4.2,2.3-7.4,2.3c-4,0-6.5-1.2-8.1-3.2
			c-2.3-2.7-2.7-6.9-2.7-11.8c0-5.3,0.5-9.7,3-12.5c1.8-2,4.6-3.2,8.7-3.2c2.9,0,6.9,0.6,9,2.8L375.8,94z M365.4,107.8
			c0,2.9,1,4.3,3.9,4.3c3,0,3.8-1.5,3.8-4.5c0-3.3-0.9-4.5-3.5-4.5C366.6,103.1,365.4,104.5,365.4,107.8z"/>
	</g>
	<rect x="328.9" y="242.4" fill="#858FA1" width="80.4" height="80.4"/>
	<g>
		<path fill="#FFFFFF" d="M367,297.3h-20.1v-4.5c0-5.9,2.4-7.9,8.6-11.6c2.9-1.8,4.8-2.9,4.8-5.4c0-2.3-1.6-2.9-3.8-2.9
			c-2.5,0-4.2,0.8-5.8,2.4l-4.2-4.1c2.4-2.7,6.1-4,10.5-4c5.4,0,10.2,2,10.2,8.6c0,4.9-2.7,6.8-6.7,9.2c-4.6,2.8-6.3,4.1-6.3,6.4
			l12.8,0V297.3z"/>
		<path fill="#FFFFFF" d="M390.2,294.8c-1.7,1.9-4,3.1-7.7,3.1c-3.7,0-6.2-1.2-7.7-3.1c-2.4-2.8-2.9-7.4-2.9-12.1
			c0-4.9,0.6-9.5,3.3-12.5c1.6-1.8,4.1-3,7.7-3c3.6,0,6.1,1.2,7.7,3.1c2.4,2.8,2.9,7.4,2.9,12C393.4,287.3,392.8,291.8,390.2,294.8z
			 M382.7,273.1c-3.1,0-3.9,2.7-3.9,9.8c0,6.4,0.6,9.1,3.6,9.1c3.1,0,3.8-2.8,3.8-9.8C386.3,275.7,385.7,273.1,382.7,273.1z"/>
	</g>
	<rect x="328.9" y="332.7" fill="#343970" width="80.4" height="80.4"/>
	<g>
		<path fill="#FFFFFF" d="M367.5,387.6h-20.1v-4.5c0-5.9,2.4-7.9,8.6-11.6c2.9-1.8,4.8-2.9,4.8-5.4c0-2.3-1.6-2.9-3.8-2.9
			c-2.5,0-4.2,0.8-5.8,2.4l-4.2-4.1c2.4-2.7,6.1-4,10.5-4c5.4,0,10.2,2,10.2,8.6c0,4.9-2.7,6.8-6.7,9.2c-4.6,2.8-6.3,4.1-6.3,6.4
			l12.8,0V387.6z"/>
		<path fill="#FFFFFF" d="M390,364.7c-1.5-1.4-4.2-1.7-5.8-1.7c-4.5,0-4.8,2.2-4.9,8.2c1.3-1.7,3.2-2.3,5.7-2.3
			c2.6,0,4.5,0.7,6.1,2.1c1.8,1.5,2.7,3.8,2.7,7.2c0,3.4-0.9,5.9-2.9,7.6c-1.7,1.5-4.2,2.3-7.4,2.3c-4,0-6.5-1.2-8.1-3.2
			c-2.3-2.7-2.7-6.9-2.7-11.8c0-5.3,0.5-9.7,3-12.5c1.8-2,4.6-3.2,8.7-3.2c2.9,0,6.9,0.6,9,2.8L390,364.7z M379.6,378.5
			c0,2.9,1,4.3,3.9,4.3c3,0,3.8-1.5,3.8-4.5c0-3.3-0.9-4.5-3.5-4.5C380.9,373.8,379.6,375.2,379.6,378.5z"/>
	</g>
	<g>
		<path fill="#135729" d="M449.4,88.1l5.2,18.1l5.4-18.1h8.9l1.6,28.6h-6.6l-0.7-21.2l-5.6,19.9h-6.1L446,95.6l-0.7,21.2h-6.5
			l1.6-28.6H449.4z"/>
		<path fill="#135729" d="M479.3,84.7c2.2,0,3.8,1.7,3.8,3.9c0,2.2-1.6,3.9-3.8,3.9c-2.2,0-3.8-1.7-3.8-3.9
			C475.5,86.4,477.1,84.7,479.3,84.7z M482.6,95.6v21.2H476V95.6H482.6z"/>
		<path fill="#135729" d="M495.1,85v17.8h1.6l3.9-7.2h7.7l-6.4,10.2l7.1,11h-8l-4.4-7.8h-1.4v7.8h-6.5V85H495.1z"/>
		<path fill="#135729" d="M529.5,113.8c-2.4,2.4-5.3,3.5-9,3.5c-2.9,0-5.2-0.7-6.9-2.2c-1.9-1.7-2.9-4.3-2.9-8.5
			c0-3.5,0.7-6.7,2.8-8.9c1.5-1.5,3.8-2.7,7.3-2.7c6.9,0,9,4.4,9,10.2c0,0.8,0,1.5-0.2,2.5l-12.5,0.1c0,2.7,0.5,4.4,3.6,4.4
			c2.2,0,4.1-0.8,5.6-2.2L529.5,113.8z M523.6,103.6c0-2.4-0.5-3.8-3-3.8c-2.6,0-3.3,1.5-3.4,3.8H523.6z"/>
		<path fill="#135729" d="M550.9,88.1v11h9v-11h6.7v28.6h-6.7v-11.6h-9v11.6h-6.7V88.1H550.9z"/>
		<path fill="#135729" d="M572.3,98.2c2.2-2.3,5.1-3,8.5-3c6,0,8.8,2.2,8.8,8.1v13.5h-5.5l0-2.7c-1.5,2.2-3.7,3.2-6.1,3.2
			c-2,0-3.6-0.7-4.7-1.7c-1.2-1.2-1.9-2.7-1.9-4.9c0-2.6,0.9-4.3,2.6-5.5c1.8-1.2,4.6-1.7,7.4-1.7h2.2v-0.5c0-2.3-0.8-3-3.1-3
			c-2,0-3.6,0.5-5,1.9L572.3,98.2z M581.1,107.7c-2.3,0-3.6,0.3-3.6,2.7c0,1.3,0.4,2.1,1.5,2.1c1.7,0,4.5-1.9,4.8-4.9H581.1z"/>
		<path fill="#135729" d="M599.6,95.6l2.5,13.9L605,96h6.7l2.9,13.4l2.5-13.8h6.4l-5.3,21.2h-7.1l-3-13.5l-3.1,13.5h-7.1L593,95.6
			H599.6z"/>
		<path fill="#135729" d="M641.2,116.5c-1.4,0.3-2.9,0.5-4.4,0.5c-5.9,0-7.5-2.9-7.5-8.1v-7.3h-3.1V96h3.1v-5.8l6.5-0.6V96h5.2v5.6
			h-5.2v6.8c0,2.2,0,2.9,2.4,2.9c0.8,0,1.9-0.1,2.7-0.3L641.2,116.5z"/>
		<path fill="#135729" d="M653,85v13.2c1.1-1.9,3.2-3.2,6-3.2c3.9,0,6.1,2.7,6.1,7.6v14.2h-6.6v-13.2c0-1.6-0.3-2.4-1.5-2.4
			c-2,0-4,2.1-4,7.3v8.4h-6.5V85H653z"/>
		<path fill="#135729" d="M687,114.9c-1.7,1.7-3.9,2.5-7.1,2.5c-3.1,0-5.3-0.8-6.9-2.3c-2.2-2-2.8-4.6-2.8-8.6c0-4.3,0.7-6.9,2.9-9
			c1.7-1.7,4-2.6,7.2-2.6c3.1,0,5.3,0.8,6.9,2.3c2.1,2,2.8,4.7,2.8,8.7C689.9,110.2,689.2,112.8,687,114.9z M682.2,101.2
			c-0.4-0.5-1.1-0.7-2.1-0.7c-1.2,0-2,0.4-2.3,0.8c-0.7,0.9-1,2.8-1,5.1c0,2.4,0.3,4.2,1,4.9c0.4,0.5,1.2,0.7,2.2,0.7
			c1.1,0,1.8-0.4,2.2-0.9c0.7-0.9,1.1-2.7,1.1-5.1C683.2,103.7,682.9,102,682.2,101.2z"/>
		<path fill="#135729" d="M701.2,95.6l0,3.4c1.2-2.9,3.4-4,5.6-4c0.7,0,1.5,0.2,2.1,0.4l-0.8,6.2c-0.5-0.1-1-0.2-1.6-0.2
			c-3.7,0-5,3.7-5,8.4v7h-6.5V95.6H701.2z"/>
		<path fill="#135729" d="M719,95.6v3.2c1.3-2.4,3.4-3.8,6.3-3.8c4.1,0,6.2,2.7,6.2,7.6v14.2H725v-13.1c0-1.7-0.3-2.6-1.6-2.6
			c-2.1,0-3.9,2.3-3.9,7.2v8.5H713V95.6H719z"/>
		<path fill="#135729" d="M755.3,113.8c-2.4,2.4-5.3,3.5-9,3.5c-2.9,0-5.2-0.7-6.9-2.2c-1.9-1.7-2.9-4.3-2.9-8.5
			c0-3.5,0.7-6.7,2.8-8.9c1.5-1.5,3.8-2.7,7.3-2.7c6.9,0,9,4.4,9,10.2c0,0.8,0,1.5-0.2,2.5l-12.5,0.1c0,2.7,0.5,4.4,3.6,4.4
			c2.2,0,4.1-0.8,5.6-2.2L755.3,113.8z M749.4,103.6c0-2.4-0.5-3.8-3-3.8c-2.6,0-3.3,1.5-3.4,3.8H749.4z"/>
	</g>
	<g>
		<path fill="#135729" d="M842.1,88.1v26.5c0,6.9-3.1,11.2-10.3,11.2c-1.2,0-2.4-0.1-3.4-0.5l0.9-5.7c0.7,0.2,1.6,0.3,2.4,0.3
			c3.1,0,3.7-1.7,3.7-4.9V88.1H842.1z"/>
		<path fill="#135729" d="M847.8,98.2c2.2-2.3,5.1-3,8.5-3c6,0,8.8,2.2,8.8,8.1v13.5h-5.5l0-2.7c-1.5,2.2-3.7,3.2-6.1,3.2
			c-2,0-3.6-0.7-4.7-1.7c-1.2-1.2-1.9-2.7-1.9-4.9c0-2.6,0.9-4.3,2.6-5.5c1.8-1.2,4.6-1.7,7.4-1.7h2.2v-0.5c0-2.3-0.8-3-3.1-3
			c-2,0-3.6,0.5-5,1.9L847.8,98.2z M856.5,107.7c-2.3,0-3.6,0.3-3.6,2.7c0,1.3,0.4,2.1,1.5,2.1c1.7,0,4.5-1.9,4.8-4.9H856.5z"/>
		<path fill="#135729" d="M889.7,95.6v20.8c0,5.1-2.2,10-11.2,10c-3.1,0-6.2-0.6-8.2-2.4l3-4.6c1.5,1.2,3.4,1.7,5.4,1.7
			c3.8,0,4.4-1.6,4.4-4.2v-3c-1.4,1.9-3.4,2.9-5.8,2.9c-2.2,0-3.9-0.8-5.2-2.3c-1.5-1.8-2.2-4.4-2.2-8.3c0-3.9,0.7-6.8,2.6-8.8
			c1.3-1.4,3.1-2.2,5.7-2.2c2.2,0,4.2,0.6,5.7,2.5l0.1-2.1H889.7z M881.9,110c0.9-1.1,1.5-3,1.5-5c0-1.2-0.2-2.5-1.1-3.4
			c-0.6-0.6-1.5-1-2.6-1c-2.4,0-2.8,1.8-2.8,5.6s0.4,5.4,2.2,5.4C880.1,111.6,881.1,111,881.9,110z"/>
		<path fill="#135729" d="M907.9,116.8v-3.2c-1.3,2.4-3.3,3.8-6.2,3.8c-4,0-6.1-2.7-6.1-7.5V95.6h6.5v13.2c0,1.5,0.3,2.6,1.6,2.6
			c1.8,0,3.7-2.2,3.7-7.1v-8.7h6.5v21.2H907.9z"/>
		<path fill="#135729" d="M919.4,98.2c2.2-2.3,5.1-3,8.5-3c6,0,8.8,2.2,8.8,8.1v13.5h-5.5l0-2.7c-1.5,2.2-3.7,3.2-6.1,3.2
			c-2,0-3.6-0.7-4.7-1.7c-1.2-1.2-1.9-2.7-1.9-4.9c0-2.6,0.9-4.3,2.6-5.5c1.8-1.2,4.6-1.7,7.4-1.7h2.2v-0.5c0-2.3-0.8-3-3.1-3
			c-2,0-3.6,0.5-5,1.9L919.4,98.2z M928.2,107.7c-2.3,0-3.6,0.3-3.6,2.7c0,1.3,0.4,2.1,1.5,2.1c1.7,0,4.5-1.9,4.8-4.9H928.2z"/>
		<path fill="#135729" d="M948.7,95.6l0,3.4c1.2-2.9,3.4-4,5.6-4c0.7,0,1.5,0.2,2.1,0.4l-0.8,6.2c-0.5-0.1-1-0.2-1.6-0.2
			c-3.7,0-5,3.7-5,8.4v7h-6.5V95.6H948.7z"/>
		<path fill="#135729" d="M980.8,88.1c4,0,6.7,1,8.5,2.7c2.5,2.4,3.2,6.2,3.2,11.3c0,4.9-0.6,9.3-3.5,12c-1.8,1.7-4.4,2.7-7.9,2.7
			h-11.5V88.1H980.8z M976.3,110.9h4.1c1.7,0,3-0.5,3.8-1.4c1-1.1,1.3-3.1,1.3-7.1c0-4-0.3-6.1-1.3-7.2c-0.7-0.8-1.9-1.2-3.7-1.2
			h-4.2V110.9z"/>
		<path fill="#135729" d="M995.6,108.5v-6h12.1v6H995.6z"/>
		<path fill="#135729" d="M1026.7,88.1v6h-7.3v22.7h-6.7V94.1h-7.3v-6H1026.7z"/>
		<path fill="#135729" d="M1042.4,115.5c-2,7-5.2,10.9-10.4,10.9c-1.7,0-3.3-0.4-4.2-1l2-5.3c0.5,0.3,1.4,0.5,2,0.5
			c2.1,0,3.2-1.3,4.2-4.7h-3l-6.3-20.4h6.9l4,16.3l3.7-16.3h6.8L1042.4,115.5z"/>
		<path fill="#135729" d="M1058.1,95.6l0,2.8c1.4-2.1,3.7-3.3,6.1-3.3c2,0,3.5,0.7,4.6,1.8c2.1,2,2.7,5.4,2.7,9.1
			c0,3.9-0.7,7.3-2.9,9.3c-1.3,1.2-3.2,2-5.6,2c-1.6,0-3.2-0.3-4.6-1.5v10.5h-6.5V95.6H1058.1z M1059.8,102.5
			c-1.1,1.5-1.6,3.5-1.6,5.4c0,1.4,0.3,2.3,0.9,3c0.6,0.7,1.5,1,2.6,1c2.3,0,3-1.4,3-5.9c0-4-0.5-5.4-2.2-5.4
			C1061.5,100.7,1060.6,101.4,1059.8,102.5z"/>
		<path fill="#135729" d="M1094.6,113.8c-2.4,2.4-5.3,3.5-9,3.5c-2.9,0-5.2-0.7-6.9-2.2c-1.9-1.7-2.9-4.3-2.9-8.5
			c0-3.5,0.7-6.7,2.8-8.9c1.5-1.5,3.8-2.7,7.3-2.7c6.9,0,9,4.4,9,10.2c0,0.8,0,1.5-0.2,2.5l-12.5,0.1c0,2.7,0.5,4.4,3.6,4.4
			c2.2,0,4.1-0.8,5.6-2.2L1094.6,113.8z M1088.7,103.6c0-2.4-0.5-3.8-3-3.8c-2.6,0-3.3,1.5-3.4,3.8H1088.7z"/>
	</g>
	<g>
		<path fill="#858FA1" d="M451.6,268.7c2.6,0,5.1,0.5,6.9,1.9c1.9,1.5,3.1,3.8,3.1,8c0,4-1.1,6.6-3.1,8.1c-1.7,1.4-4.1,1.9-7.1,1.9
			h-4.1v8.8h-6.7v-28.6H451.6z M447.4,282.8h3.9c1.3,0,2.1-0.2,2.6-0.7c0.6-0.6,0.8-1.7,0.8-3.4c0-2.1-0.3-3.1-0.9-3.6
			c-0.6-0.5-1.4-0.6-2.7-0.6h-3.7V282.8z"/>
		<path fill="#858FA1" d="M469.6,265.2c2.2,0,3.8,1.7,3.8,3.9s-1.6,3.9-3.8,3.9c-2.2,0-3.8-1.7-3.8-3.9
			C465.7,267,467.4,265.2,469.6,265.2z M472.8,276.1v21.2h-6.5v-21.2H472.8z"/>
		<path fill="#858FA1" d="M496.7,294.3c-2.4,2.4-5.3,3.5-9,3.5c-2.9,0-5.2-0.7-6.9-2.2c-1.9-1.7-2.9-4.3-2.9-8.5
			c0-3.5,0.7-6.7,2.8-8.9c1.5-1.5,3.8-2.7,7.3-2.7c6.9,0,9,4.4,9,10.2c0,0.8,0,1.5-0.2,2.5l-12.5,0.1c0,2.7,0.5,4.4,3.6,4.4
			c2.2,0,4.1-0.8,5.6-2.2L496.7,294.3z M490.8,284.1c0-2.4-0.5-3.8-3-3.8c-2.6,0-3.3,1.5-3.4,3.8H490.8z"/>
		<path fill="#858FA1" d="M508.4,276.1l0,3.4c1.2-2.9,3.4-4,5.6-4c0.7,0,1.5,0.2,2.1,0.4l-0.8,6.2c-0.5-0.1-1-0.2-1.6-0.2
			c-3.7,0-5,3.7-5,8.4v7h-6.5v-21.2H508.4z"/>
		<path fill="#858FA1" d="M526.3,276.1l0,3.4c1.2-2.9,3.4-4,5.6-4c0.7,0,1.5,0.2,2.1,0.4l-0.8,6.2c-0.5-0.1-1-0.2-1.6-0.2
			c-3.7,0-5,3.7-5,8.4v7h-6.5v-21.2H526.3z"/>
		<path fill="#858FA1" d="M554.8,294.3c-2.4,2.4-5.3,3.5-9,3.5c-2.9,0-5.2-0.7-6.9-2.2c-1.9-1.7-2.9-4.3-2.9-8.5
			c0-3.5,0.7-6.7,2.8-8.9c1.5-1.5,3.8-2.7,7.3-2.7c6.9,0,9,4.4,9,10.2c0,0.8,0,1.5-0.2,2.5l-12.5,0.1c0,2.7,0.5,4.4,3.6,4.4
			c2.2,0,4.1-0.8,5.6-2.2L554.8,294.3z M548.9,284.1c0-2.4-0.5-3.8-3-3.8c-2.6,0-3.3,1.5-3.4,3.8H548.9z"/>
		<path fill="#858FA1" d="M576.2,268.7v22.7h9.8v6h-16.6v-28.6H576.2z"/>
		<path fill="#858FA1" d="M607.8,294.3c-2.4,2.4-5.3,3.5-9,3.5c-2.9,0-5.2-0.7-6.9-2.2c-1.9-1.7-2.9-4.3-2.9-8.5
			c0-3.5,0.7-6.7,2.8-8.9c1.5-1.5,3.8-2.7,7.3-2.7c6.9,0,9,4.4,9,10.2c0,0.8,0,1.5-0.2,2.5l-12.5,0.1c0,2.7,0.5,4.4,3.6,4.4
			c2.2,0,4.1-0.8,5.6-2.2L607.8,294.3z M601.9,284.1c0-2.4-0.5-3.8-3-3.8c-2.6,0-3.3,1.5-3.4,3.8H601.9z"/>
		<path fill="#858FA1" d="M617.3,276.1l3.6,14.3l3.5-14.3h6.8l-6.8,21.2h-7.3l-6.7-21.2H617.3z"/>
		<path fill="#858FA1" d="M652.3,294.3c-2.4,2.4-5.3,3.5-9,3.5c-2.9,0-5.2-0.7-6.9-2.2c-1.9-1.7-2.9-4.3-2.9-8.5
			c0-3.5,0.7-6.7,2.8-8.9c1.5-1.5,3.8-2.7,7.3-2.7c6.9,0,9,4.4,9,10.2c0,0.8,0,1.5-0.2,2.5l-12.5,0.1c0,2.7,0.5,4.4,3.6,4.4
			c2.2,0,4.1-0.8,5.6-2.2L652.3,294.3z M646.4,284.1c0-2.4-0.5-3.8-3-3.8c-2.6,0-3.3,1.5-3.4,3.8H646.4z"/>
		<path fill="#858FA1" d="M676.6,276.1V297c0,5.1-2.2,10-11.2,10c-3.1,0-6.2-0.6-8.2-2.4l3-4.6c1.5,1.2,3.4,1.7,5.4,1.7
			c3.8,0,4.4-1.6,4.4-4.2v-3c-1.4,1.9-3.4,2.9-5.8,2.9c-2.2,0-3.9-0.8-5.2-2.3c-1.5-1.8-2.2-4.4-2.2-8.3c0-3.9,0.7-6.8,2.6-8.8
			c1.3-1.4,3.1-2.2,5.7-2.2c2.2,0,4.2,0.6,5.7,2.5l0.1-2.1H676.6z M668.8,290.5c0.9-1.1,1.5-3,1.5-5c0-1.2-0.2-2.5-1.1-3.4
			c-0.6-0.6-1.5-1-2.6-1c-2.4,0-2.8,1.8-2.8,5.6s0.4,5.4,2.2,5.4C667.1,292.1,668,291.5,668.8,290.5z"/>
		<path fill="#858FA1" d="M689.2,265.5v13.2c1.1-1.9,3.2-3.2,6-3.2c3.9,0,6.1,2.7,6.1,7.6v14.2h-6.6v-13.2c0-1.6-0.3-2.4-1.5-2.4
			c-2,0-4,2.1-4,7.3v8.4h-6.5v-31.8H689.2z"/>
	</g>
	<g>
		<path fill="#858FA1" d="M844.4,268.7l5.2,18.1l5.4-18.1h8.9l1.6,28.6H859l-0.7-21.2l-5.6,19.9h-6.1l-5.5-19.9l-0.7,21.2h-6.5
			l1.6-28.6H844.4z"/>
		<path fill="#858FA1" d="M888.9,294.3c-2.4,2.4-5.3,3.5-9,3.5c-2.9,0-5.2-0.7-6.9-2.2c-1.9-1.7-2.9-4.3-2.9-8.5
			c0-3.5,0.7-6.7,2.8-8.9c1.5-1.5,3.8-2.7,7.3-2.7c6.9,0,9,4.4,9,10.2c0,0.8,0,1.5-0.2,2.5l-12.5,0.1c0,2.7,0.5,4.4,3.6,4.4
			c2.2,0,4.1-0.8,5.6-2.2L888.9,294.3z M883,284.1c0-2.4-0.5-3.8-3-3.8c-2.6,0-3.3,1.5-3.4,3.8H883z"/>
		<path fill="#858FA1" d="M900.6,276.1l0,3.4c1.2-2.9,3.4-4,5.6-4c0.7,0,1.5,0.2,2.1,0.4l-0.8,6.2c-0.5-0.1-1-0.2-1.6-0.2
			c-3.7,0-5,3.7-5,8.4v7h-6.5v-21.2H900.6z"/>
		<path fill="#858FA1" d="M927.5,294.4c-2,2.3-4.8,3.4-8.1,3.4c-3.1,0-5.2-1-6.6-2.5c-1.8-2-2.5-4.7-2.5-8.2c0-3.4,0.7-6.7,2.8-8.8
			c1.5-1.5,3.7-2.5,7.1-2.5c2.6,0,5.2,0.6,7,2.4l-3.7,4.4c-1-0.8-2.1-1.2-3.3-1.2c-2.7,0-3.2,1.6-3.2,5.4s0.5,5.5,2.7,5.5
			c1.4,0,2.7-0.7,3.9-1.9L927.5,294.4z"/>
		<path fill="#858FA1" d="M948.9,294.3c-2.4,2.4-5.3,3.5-9,3.5c-2.9,0-5.2-0.7-6.9-2.2c-1.9-1.7-2.9-4.3-2.9-8.5
			c0-3.5,0.7-6.7,2.8-8.9c1.5-1.5,3.8-2.7,7.3-2.7c6.9,0,9,4.4,9,10.2c0,0.8,0,1.5-0.2,2.5l-12.5,0.1c0,2.7,0.5,4.4,3.6,4.4
			c2.2,0,4.1-0.8,5.6-2.2L948.9,294.3z M943,284.1c0-2.4-0.5-3.8-3-3.8c-2.6,0-3.3,1.5-3.4,3.8H943z"/>
		<path fill="#858FA1" d="M973.3,265.5v31.8h-6.1l-0.1-2.8c-1.4,2.2-3.7,3.3-6.2,3.3c-2,0-3.6-0.7-4.8-2c-1.7-1.8-2.5-4.6-2.5-8.9
			c0-4.1,0.7-7.1,2.8-9.1c1.4-1.3,3.3-2.2,5.9-2.2c1.7,0,3.2,0.4,4.4,1.5v-11.6H973.3z M965.2,290.7c1.1-1.4,1.7-3.3,1.7-5.4
			c0-1.5-0.3-2.6-1.1-3.4c-0.6-0.6-1.5-0.9-2.4-0.9c-2.5,0-3,1.8-3,5.7c0,4.1,0.5,5.5,2.1,5.5C963.6,292.3,964.5,291.7,965.2,290.7z
			"/>
		<path fill="#858FA1" d="M997.2,294.3c-2.4,2.4-5.3,3.5-9,3.5c-2.9,0-5.2-0.7-6.9-2.2c-1.9-1.7-2.9-4.3-2.9-8.5
			c0-3.5,0.7-6.7,2.8-8.9c1.5-1.5,3.8-2.7,7.3-2.7c6.9,0,9,4.4,9,10.2c0,0.8,0,1.5-0.2,2.5l-12.5,0.1c0,2.7,0.5,4.4,3.6,4.4
			c2.2,0,4.1-0.8,5.6-2.2L997.2,294.3z M991.3,284.1c0-2.4-0.5-3.8-3-3.8c-2.6,0-3.3,1.5-3.4,3.8H991.3z"/>
		<path fill="#858FA1" d="M1013.8,282.1c-1.4-1.1-2.9-1.5-4.5-1.5c-1.5,0-2.2,0.4-2.2,1.5c0,2.6,10.1,1.3,10.1,8.9
			c0,5.1-4.5,6.9-8.9,6.9c-2.9,0-5.9-0.7-7.7-2.7l3-4c1.3,1.2,3.1,1.8,5.1,1.8c1.5,0,2.5-0.3,2.5-1.7c0-2.9-10.1-1.4-10.1-9
			c0-4.4,4-6.6,8.7-6.6c2.6,0,5.4,0.7,7.1,2.4L1013.8,282.1z"/>
		<path fill="#858FA1" d="M1034,280.1h3.8c2.9,0,4.6-0.9,4.6-3.5c0-2.4-1.4-2.9-3.8-2.9c-1.9,0-4.3,0.4-5.9,1.8l-3.2-4.4
			c2.2-2.3,6.4-3,9.4-3c2.7,0,5.3,0.6,7.2,1.8c1.9,1.2,3.1,3.1,3.1,5.9c0,3.1-1.6,5.6-4.7,6.7c3.4,0.9,5.1,3.4,5.1,7
			c0,2.9-1.2,5-3.2,6.4c-1.9,1.3-4.5,2-7.6,2c-3.5,0-7.4-0.8-9.3-2.9l3.2-4.4c1.4,1.3,3.8,2,6,2c2.5,0,4.2-0.8,4.2-3.6
			c0-2.7-1.5-3.4-4.9-3.4h-3.9V280.1z"/>
		<path fill="#858FA1" d="M1072,294.9c-1.6,1.8-3.9,3-7.4,3c-3.6,0-6-1.2-7.5-3c-2.3-2.7-2.8-7.2-2.8-11.7c0-4.8,0.6-9.3,3.2-12.2
			c1.6-1.8,3.9-2.9,7.4-2.9c3.5,0,5.9,1.2,7.5,3c2.3,2.7,2.8,7.2,2.8,11.7C1075.2,287.6,1074.5,291.9,1072,294.9z M1064.8,273.8
			c-3,0-3.7,2.6-3.7,9.5c0,6.2,0.6,8.8,3.5,8.8c3,0,3.7-2.7,3.7-9.5C1068.3,276.4,1067.7,273.8,1064.8,273.8z"/>
		<path fill="#858FA1" d="M1096.8,294.9c-1.6,1.8-3.9,3-7.4,3c-3.6,0-6-1.2-7.5-3c-2.3-2.7-2.8-7.2-2.8-11.7c0-4.8,0.6-9.3,3.2-12.2
			c1.6-1.8,3.9-2.9,7.4-2.9c3.5,0,5.9,1.2,7.5,3c2.3,2.7,2.8,7.2,2.8,11.7C1099.9,287.6,1099.3,291.9,1096.8,294.9z M1089.6,273.8
			c-3,0-3.7,2.6-3.7,9.5c0,6.2,0.6,8.8,3.5,8.8c3,0,3.7-2.7,3.7-9.5C1093.1,276.4,1092.5,273.8,1089.6,273.8z"/>
		<path fill="#858FA1" d="M1128.6,275.5c-1.7-1.2-4.3-1.7-6-1.7c-2,0-3.4,0.5-3.4,2.8c0,4.4,13.2,1.8,13.2,12.2c0,3.3-1.6,5.6-3.6,7
			c-2,1.3-4.7,2-7.4,2c-3,0-7.1-0.7-9.5-2.9l3.3-4.9c1.9,1.5,4.7,2.1,6.8,2.1c2,0,3.6-0.5,3.6-3c0-4.9-13.2-2.1-13.2-12.3
			c0-3,1.3-5,3.2-6.4c2.1-1.5,4.6-2.2,7.5-2.2c2.7,0,6.4,0.7,8.6,2.5L1128.6,275.5z"/>
		<path fill="#858FA1" d="M1143.9,268.7v22.7h9.8v6h-16.6v-28.6H1143.9z"/>
		<path fill="#858FA1" d="M1170.1,268.7c2.7,0,5,0.4,6.7,1.5c1.9,1.2,3.2,3.1,3.2,6.6c0,3.9-1.6,6.9-5.4,7.9
			c3.6,0.7,4.7,4.2,5.6,12.5h-7.1c-1-7.7-1.6-9.7-4.2-9.7h-3.8v9.7h-6.7v-28.6H1170.1z M1165.1,281.9h3c3.2,0,4.9-0.7,4.9-4.3
			c0-1.4-0.2-2.2-0.8-2.7c-0.5-0.5-1.2-0.6-2.5-0.6h-4.6V281.9z"/>
	</g>
	<rect x="328.9" y="152.2" fill="#858FA1" width="80.4" height="80.4"/>
	<g>
		<path fill="#FFFFFF" d="M347.9,201h7.2v-16.6l-5.6,4.4l-3.8-4.8l8.6-6.5h7.6V201h5.6v6h-19.7V201z"/>
		<path fill="#FFFFFF" d="M375.7,200.3c1.5,1.4,4.1,1.7,5.8,1.7c4.5,0,4.8-2.2,4.9-8.2c-1.2,1.7-3.1,2.3-5.6,2.3
			c-2.5,0-4.6-0.7-6.2-2.1c-1.8-1.5-2.7-3.8-2.7-7.2c0-3.4,0.9-5.8,2.9-7.5c1.6-1.4,4.1-2.3,7.3-2.3c4,0,6.5,1.2,8.1,3.2
			c2.3,2.8,2.8,6.7,2.8,11.8c0,5.3-0.5,9.8-3,12.5c-1.8,2-4.6,3.2-8.7,3.2c-2.9,0-6.9-0.6-9-2.8L375.7,200.3z M386.1,186.5
			c0-2.9-1-4.3-3.9-4.3c-3,0-3.8,1.5-3.8,4.5c0,3.3,0.9,4.5,3.5,4.5C384.8,191.2,386.1,189.8,386.1,186.5z"/>
	</g>
	<g>
		<path fill="#858FA1" d="M450.2,178.4v26.5c0,6.9-3.1,11.2-10.3,11.2c-1.2,0-2.4-0.1-3.4-0.5l0.9-5.7c0.7,0.2,1.6,0.3,2.4,0.3
			c3.1,0,3.7-1.7,3.7-4.9v-26.9H450.2z"/>
		<path fill="#858FA1" d="M468.7,207v-3.2c-1.3,2.4-3.3,3.8-6.2,3.8c-4,0-6.1-2.7-6.1-7.5v-14.2h6.5v13.2c0,1.5,0.3,2.6,1.6,2.6
			c1.8,0,3.7-2.2,3.7-7.1v-8.7h6.5V207H468.7z"/>
		<path fill="#858FA1" d="M480.2,188.4c2.2-2.3,5.1-3,8.5-3c6,0,8.8,2.2,8.8,8.1V207h-5.5l0-2.7c-1.5,2.2-3.7,3.2-6.1,3.2
			c-2,0-3.6-0.7-4.7-1.7c-1.2-1.2-1.9-2.7-1.9-4.9c0-2.6,0.9-4.3,2.6-5.5c1.8-1.2,4.6-1.7,7.4-1.7h2.2v-0.5c0-2.3-0.8-3-3.1-3
			c-2,0-3.6,0.5-5,1.9L480.2,188.4z M489,198c-2.3,0-3.6,0.3-3.6,2.7c0,1.3,0.4,2.1,1.5,2.1c1.7,0,4.5-1.9,4.8-4.9H489z"/>
		<path fill="#858FA1" d="M509.4,185.9v3.2c1.3-2.4,3.4-3.8,6.3-3.8c4.1,0,6.2,2.7,6.2,7.6V207h-6.6v-13.1c0-1.7-0.3-2.6-1.6-2.6
			c-2.1,0-3.9,2.3-3.9,7.2v8.5h-6.5v-21.2H509.4z"/>
		<path fill="#858FA1" d="M554.1,178.4v6h-10.5v5.9h9.6v5.9h-9.6V207h-6.7v-28.6H554.1z"/>
		<path fill="#858FA1" d="M557.2,188.4c2.2-2.3,5.1-3,8.5-3c6,0,8.8,2.2,8.8,8.1V207H569l0-2.7c-1.5,2.2-3.7,3.2-6.1,3.2
			c-2,0-3.6-0.7-4.7-1.7c-1.2-1.2-1.9-2.7-1.9-4.9c0-2.6,0.9-4.3,2.6-5.5c1.8-1.2,4.6-1.7,7.4-1.7h2.2v-0.5c0-2.3-0.8-3-3.1-3
			c-2,0-3.6,0.5-5,1.9L557.2,188.4z M566,198c-2.3,0-3.6,0.3-3.6,2.7c0,1.3,0.4,2.1,1.5,2.1c1.7,0,4.5-1.9,4.8-4.9H566z"/>
		<path fill="#858FA1" d="M586.4,185.9v3.2c1.3-2.4,3.4-3.8,6.3-3.8c4.1,0,6.2,2.7,6.2,7.6V207h-6.6v-13.1c0-1.7-0.3-2.6-1.6-2.6
			c-2.1,0-3.9,2.3-3.9,7.2v8.5h-6.5v-21.2H586.4z"/>
		<path fill="#858FA1" d="M623.6,185.9v20.8c0,5.1-2.2,10-11.2,10c-3.1,0-6.2-0.6-8.2-2.4l3-4.6c1.5,1.2,3.4,1.7,5.4,1.7
			c3.8,0,4.4-1.6,4.4-4.2v-3c-1.4,1.9-3.4,2.9-5.8,2.9c-2.2,0-3.9-0.8-5.2-2.3c-1.5-1.8-2.2-4.4-2.2-8.3c0-3.9,0.7-6.8,2.6-8.8
			c1.3-1.4,3.1-2.2,5.7-2.2c2.2,0,4.2,0.6,5.7,2.5l0.1-2.1H623.6z M615.8,200.3c0.9-1.1,1.5-3,1.5-5c0-1.2-0.2-2.5-1.1-3.4
			c-0.6-0.6-1.5-1-2.6-1c-2.4,0-2.8,1.8-2.8,5.6c0,3.8,0.4,5.4,2.2,5.4C614,201.8,615,201.3,615.8,200.3z"/>
		<path fill="#858FA1" d="M632.8,175c2.2,0,3.8,1.7,3.8,3.9s-1.6,3.9-3.8,3.9c-2.2,0-3.8-1.7-3.8-3.9S630.7,175,632.8,175z
			 M636.1,185.9V207h-6.5v-21.2H636.1z"/>
		<path fill="#858FA1" d="M658.1,205.2c-1.7,1.7-3.9,2.5-7.1,2.5c-3.1,0-5.3-0.8-6.9-2.3c-2.2-2-2.8-4.6-2.8-8.6
			c0-4.3,0.7-6.9,2.9-9c1.7-1.7,4-2.6,7.2-2.6c3.1,0,5.3,0.8,6.9,2.3c2.1,2,2.8,4.7,2.8,8.7C661,200.4,660.3,203.1,658.1,205.2z
			 M653.4,191.4c-0.4-0.5-1.1-0.7-2.1-0.7c-1.2,0-2,0.4-2.3,0.8c-0.7,0.9-1,2.8-1,5.1c0,2.4,0.3,4.2,1,4.9c0.4,0.5,1.2,0.7,2.2,0.7
			c1.1,0,1.8-0.4,2.2-0.9c0.7-0.9,1.1-2.7,1.1-5.1C654.4,194,654.1,192.3,653.4,191.4z"/>
	</g>
	<g>
		<path fill="#858FA1" d="M844.4,178.4l5.2,18.1l5.4-18.1h8.9l1.6,28.6H859l-0.7-21.2l-5.6,19.9h-6.1l-5.5-19.9l-0.7,21.2h-6.5
			l1.6-28.6H844.4z"/>
		<path fill="#858FA1" d="M888.9,204c-2.4,2.4-5.3,3.5-9,3.5c-2.9,0-5.2-0.7-6.9-2.2c-1.9-1.7-2.9-4.3-2.9-8.5
			c0-3.5,0.7-6.7,2.8-8.9c1.5-1.5,3.8-2.7,7.3-2.7c6.9,0,9,4.4,9,10.2c0,0.8,0,1.5-0.2,2.5l-12.5,0.1c0,2.7,0.5,4.4,3.6,4.4
			c2.2,0,4.1-0.8,5.6-2.2L888.9,204z M883,193.9c0-2.4-0.5-3.8-3-3.8c-2.6,0-3.3,1.5-3.4,3.8H883z"/>
		<path fill="#858FA1" d="M900.6,185.9l0,3.4c1.2-2.9,3.4-4,5.6-4c0.7,0,1.5,0.2,2.1,0.4l-0.8,6.2c-0.5-0.1-1-0.2-1.6-0.2
			c-3.7,0-5,3.7-5,8.4v7h-6.5v-21.2H900.6z"/>
		<path fill="#858FA1" d="M927.5,204.1c-2,2.3-4.8,3.4-8.1,3.4c-3.1,0-5.2-1-6.6-2.5c-1.8-2-2.5-4.7-2.5-8.2c0-3.4,0.7-6.7,2.8-8.8
			c1.5-1.5,3.7-2.5,7.1-2.5c2.6,0,5.2,0.6,7,2.4l-3.7,4.4c-1-0.8-2.1-1.2-3.3-1.2c-2.7,0-3.2,1.6-3.2,5.4c0,3.7,0.5,5.5,2.7,5.5
			c1.4,0,2.7-0.7,3.9-1.9L927.5,204.1z"/>
		<path fill="#858FA1" d="M948.9,204c-2.4,2.4-5.3,3.5-9,3.5c-2.9,0-5.2-0.7-6.9-2.2c-1.9-1.7-2.9-4.3-2.9-8.5
			c0-3.5,0.7-6.7,2.8-8.9c1.5-1.5,3.8-2.7,7.3-2.7c6.9,0,9,4.4,9,10.2c0,0.8,0,1.5-0.2,2.5l-12.5,0.1c0,2.7,0.5,4.4,3.6,4.4
			c2.2,0,4.1-0.8,5.6-2.2L948.9,204z M943,193.9c0-2.4-0.5-3.8-3-3.8c-2.6,0-3.3,1.5-3.4,3.8H943z"/>
		<path fill="#858FA1" d="M973.3,175.3V207h-6.1l-0.1-2.8c-1.4,2.2-3.7,3.3-6.2,3.3c-2,0-3.6-0.7-4.8-2c-1.7-1.8-2.5-4.6-2.5-8.9
			c0-4.1,0.7-7.1,2.8-9.1c1.4-1.3,3.3-2.2,5.9-2.2c1.7,0,3.2,0.4,4.4,1.5v-11.6H973.3z M965.2,200.4c1.1-1.4,1.7-3.3,1.7-5.4
			c0-1.5-0.3-2.6-1.1-3.4c-0.6-0.6-1.5-0.9-2.4-0.9c-2.5,0-3,1.8-3,5.7c0,4.1,0.5,5.5,2.1,5.5C963.6,202,964.5,201.4,965.2,200.4z"
			/>
		<path fill="#858FA1" d="M997.2,204c-2.4,2.4-5.3,3.5-9,3.5c-2.9,0-5.2-0.7-6.9-2.2c-1.9-1.7-2.9-4.3-2.9-8.5
			c0-3.5,0.7-6.7,2.8-8.9c1.5-1.5,3.8-2.7,7.3-2.7c6.9,0,9,4.4,9,10.2c0,0.8,0,1.5-0.2,2.5l-12.5,0.1c0,2.7,0.5,4.4,3.6,4.4
			c2.2,0,4.1-0.8,5.6-2.2L997.2,204z M991.3,193.9c0-2.4-0.5-3.8-3-3.8c-2.6,0-3.3,1.5-3.4,3.8H991.3z"/>
		<path fill="#858FA1" d="M1013.8,191.8c-1.4-1.1-2.9-1.5-4.5-1.5c-1.5,0-2.2,0.4-2.2,1.5c0,2.6,10.1,1.3,10.1,8.9
			c0,5.1-4.5,6.9-8.9,6.9c-2.9,0-5.9-0.7-7.7-2.7l3-4c1.3,1.2,3.1,1.8,5.1,1.8c1.5,0,2.5-0.3,2.5-1.7c0-2.9-10.1-1.4-10.1-9
			c0-4.4,4-6.6,8.7-6.6c2.6,0,5.4,0.7,7.1,2.5L1013.8,191.8z"/>
		<path fill="#858FA1" d="M1034,189.8h3.8c2.9,0,4.6-0.9,4.6-3.5c0-2.4-1.4-2.9-3.8-2.9c-1.9,0-4.3,0.4-5.9,1.8l-3.2-4.4
			c2.2-2.3,6.4-3,9.4-3c2.7,0,5.3,0.6,7.2,1.8c1.9,1.2,3.1,3.1,3.1,5.9c0,3.1-1.6,5.6-4.7,6.7c3.4,0.9,5.1,3.4,5.1,7
			c0,2.9-1.2,5-3.2,6.4c-1.9,1.3-4.5,2-7.6,2c-3.5,0-7.4-0.8-9.3-2.9l3.2-4.4c1.4,1.3,3.8,2,6,2c2.5,0,4.2-0.8,4.2-3.6
			c0-2.7-1.5-3.4-4.9-3.4h-3.9V189.8z"/>
		<path fill="#858FA1" d="M1072,204.6c-1.6,1.8-3.9,3-7.4,3c-3.6,0-6-1.2-7.5-3c-2.3-2.7-2.8-7.2-2.8-11.7c0-4.8,0.6-9.3,3.2-12.2
			c1.6-1.8,3.9-2.9,7.4-2.9c3.5,0,5.9,1.2,7.5,3c2.3,2.7,2.8,7.2,2.8,11.7C1075.2,197.3,1074.5,201.7,1072,204.6z M1064.8,183.5
			c-3,0-3.7,2.6-3.7,9.5c0,6.2,0.6,8.8,3.5,8.8c3,0,3.7-2.7,3.7-9.5C1068.3,186.1,1067.7,183.5,1064.8,183.5z"/>
		<path fill="#858FA1" d="M1096.8,204.6c-1.6,1.8-3.9,3-7.4,3c-3.6,0-6-1.2-7.5-3c-2.3-2.7-2.8-7.2-2.8-11.7c0-4.8,0.6-9.3,3.2-12.2
			c1.6-1.8,3.9-2.9,7.4-2.9c3.5,0,5.9,1.2,7.5,3c2.3,2.7,2.8,7.2,2.8,11.7C1099.9,197.3,1099.3,201.7,1096.8,204.6z M1089.6,183.5
			c-3,0-3.7,2.6-3.7,9.5c0,6.2,0.6,8.8,3.5,8.8c3,0,3.7-2.7,3.7-9.5C1093.1,186.1,1092.5,183.5,1089.6,183.5z"/>
		<path fill="#858FA1" d="M1128.6,185.3c-1.7-1.2-4.3-1.7-6-1.7c-2,0-3.4,0.5-3.4,2.8c0,4.4,13.2,1.8,13.2,12.2c0,3.3-1.6,5.6-3.6,7
			c-2,1.3-4.7,2-7.4,2c-3,0-7.1-0.7-9.5-2.9l3.3-4.9c1.9,1.5,4.7,2.1,6.8,2.1c2,0,3.6-0.5,3.6-3c0-4.9-13.2-2.1-13.2-12.3
			c0-3,1.3-5,3.2-6.4c2.1-1.5,4.6-2.2,7.5-2.2c2.7,0,6.4,0.7,8.6,2.5L1128.6,185.3z"/>
		<path fill="#858FA1" d="M1143.9,178.4v22.7h9.8v6h-16.6v-28.6H1143.9z"/>
		<path fill="#858FA1" d="M1170.1,178.4c2.7,0,5,0.4,6.7,1.5c1.9,1.2,3.2,3.1,3.2,6.6c0,3.9-1.6,6.9-5.4,7.9
			c3.6,0.7,4.7,4.2,5.6,12.5h-7.1c-1-7.7-1.6-9.7-4.2-9.7h-3.8v9.7h-6.7v-28.6H1170.1z M1165.1,191.7h3c3.2,0,4.9-0.7,4.9-4.3
			c0-1.4-0.2-2.2-0.8-2.7c-0.5-0.5-1.2-0.6-2.5-0.6h-4.6V191.7z"/>
	</g>
	<g>
		<path fill="#343970" d="M850.6,387.6l-1.5-5.4h-9.1l-1.5,5.4h-6.9l9-28.6h8.1l9,28.6H850.6z M844.5,365.7l-3.1,11.1h6.2
			L844.5,365.7z"/>
		<path fill="#343970" d="M873.2,387.6v-3.2c-1.3,2.4-3.3,3.8-6.2,3.8c-4,0-6.1-2.7-6.1-7.5v-14.2h6.5v13.2c0,1.5,0.3,2.6,1.6,2.6
			c1.8,0,3.7-2.2,3.7-7.1v-8.7h6.5v21.2H873.2z"/>
		<path fill="#343970" d="M896.7,372.3c-1.4-1.1-2.9-1.5-4.5-1.5c-1.5,0-2.2,0.4-2.2,1.5c0,2.6,10.1,1.3,10.1,8.9
			c0,5.1-4.5,6.9-8.9,6.9c-2.9,0-5.9-0.7-7.7-2.7l3-4c1.3,1.2,3.1,1.8,5.1,1.8c1.5,0,2.5-0.3,2.5-1.7c0-2.9-10.1-1.4-10.1-9
			c0-4.4,4-6.6,8.7-6.6c2.6,0,5.4,0.7,7.1,2.4L896.7,372.3z"/>
		<path fill="#343970" d="M917.7,387.3c-1.4,0.3-2.9,0.5-4.4,0.5c-5.9,0-7.5-2.9-7.5-8.1v-7.3h-3.1v-5.6h3.1v-5.8l6.5-0.6v6.4h5.2
			v5.6h-5.2v6.8c0,2.2,0,2.9,2.4,2.9c0.8,0,1.9-0.1,2.7-0.3L917.7,387.3z"/>
		<path fill="#343970" d="M926.2,355.5c2.2,0,3.8,1.7,3.8,3.9s-1.6,3.9-3.8,3.9c-2.2,0-3.8-1.7-3.8-3.9
			C922.4,357.2,924.1,355.5,926.2,355.5z M929.5,366.4v21.2H923v-21.2H929.5z"/>
		<path fill="#343970" d="M941.6,366.4v3.2c1.3-2.4,3.4-3.8,6.3-3.8c4.1,0,6.2,2.7,6.2,7.6v14.2h-6.6v-13.1c0-1.7-0.3-2.6-1.6-2.6
			c-2.1,0-3.9,2.3-3.9,7.2v8.5h-6.5v-21.2H941.6z"/>
		<path fill="#343970" d="M957.9,379.3v-6H970v6H957.9z"/>
		<path fill="#343970" d="M981,358.9v11h9v-11h6.7v28.6H990v-11.6h-9v11.6h-6.7v-28.6H981z"/>
		<path fill="#343970" d="M1020.9,384.5c-2.4,2.4-5.3,3.5-9,3.5c-2.9,0-5.2-0.7-6.9-2.2c-1.9-1.7-2.9-4.3-2.9-8.5
			c0-3.5,0.7-6.7,2.8-8.9c1.5-1.5,3.8-2.7,7.3-2.7c6.9,0,9,4.4,9,10.2c0,0.8,0,1.5-0.2,2.5l-12.5,0.1c0,2.7,0.5,4.4,3.6,4.4
			c2.2,0,4.1-0.8,5.6-2.2L1020.9,384.5z M1015,374.4c0-2.4-0.5-3.8-3-3.8c-2.6,0-3.3,1.5-3.4,3.8H1015z"/>
		<path fill="#343970" d="M1025.4,369c2.2-2.3,5.1-3,8.5-3c6,0,8.8,2.2,8.8,8.1v13.5h-5.5l0-2.7c-1.5,2.2-3.7,3.2-6.1,3.2
			c-2,0-3.6-0.7-4.7-1.7c-1.2-1.2-1.9-2.7-1.9-4.9c0-2.6,0.9-4.3,2.6-5.5c1.8-1.2,4.6-1.7,7.4-1.7h2.2v-0.5c0-2.3-0.8-3-3.1-3
			c-2,0-3.6,0.5-5,1.9L1025.4,369z M1034.2,378.5c-2.3,0-3.6,0.3-3.6,2.7c0,1.3,0.4,2.1,1.5,2.1c1.7,0,4.5-1.9,4.8-4.9H1034.2z"/>
		<path fill="#343970" d="M1055.1,355.8v31.8h-6.5v-31.8H1055.1z"/>
		<path fill="#343970" d="M1078.9,384.5c-2.4,2.4-5.3,3.5-9,3.5c-2.9,0-5.2-0.7-6.9-2.2c-1.9-1.7-2.9-4.3-2.9-8.5
			c0-3.5,0.7-6.7,2.8-8.9c1.5-1.5,3.8-2.7,7.3-2.7c6.9,0,9,4.4,9,10.2c0,0.8,0,1.5-0.2,2.5l-12.5,0.1c0,2.7,0.5,4.4,3.6,4.4
			c2.2,0,4.1-0.8,5.6-2.2L1078.9,384.5z M1073,374.4c0-2.4-0.5-3.8-3-3.8c-2.6,0-3.3,1.5-3.4,3.8H1073z"/>
		<path fill="#343970" d="M1097.2,386.3c-2,7-5.2,10.9-10.4,10.9c-1.7,0-3.3-0.4-4.2-1l2-5.3c0.5,0.3,1.4,0.5,2,0.5
			c2.1,0,3.2-1.3,4.2-4.7h-3l-6.3-20.4h6.9l4,16.3l3.7-16.3h6.8L1097.2,386.3z"/>
		<path fill="#343970" d="M1116.1,381.7h7v-16.1l-5.4,4.2l-3.7-4.7l8.3-6.3h7.4v22.8h5.4v5.9h-19.1V381.7z"/>
		<path fill="#343970" d="M1157.1,385.1c-1.6,1.8-3.9,3-7.4,3c-3.6,0-6-1.2-7.5-3c-2.3-2.7-2.8-7.2-2.8-11.7c0-4.8,0.6-9.3,3.2-12.2
			c1.6-1.8,3.9-2.9,7.4-2.9c3.5,0,5.9,1.2,7.5,3c2.3,2.7,2.8,7.2,2.8,11.7C1160.2,377.8,1159.6,382.2,1157.1,385.1z M1149.9,364.1
			c-3,0-3.7,2.6-3.7,9.5c0,6.2,0.6,8.8,3.5,8.8c3,0,3.7-2.7,3.7-9.5C1153.4,366.6,1152.8,364.1,1149.9,364.1z"/>
		<path fill="#343970" d="M1181.9,385.1c-1.6,1.8-3.9,3-7.4,3c-3.6,0-6-1.2-7.5-3c-2.3-2.7-2.8-7.2-2.8-11.7c0-4.8,0.6-9.3,3.2-12.2
			c1.6-1.8,3.9-2.9,7.4-2.9c3.5,0,5.9,1.2,7.5,3c2.3,2.7,2.8,7.2,2.8,11.7C1185,377.8,1184.4,382.2,1181.9,385.1z M1174.7,364.1
			c-3,0-3.7,2.6-3.7,9.5c0,6.2,0.6,8.8,3.5,8.8c3,0,3.7-2.7,3.7-9.5C1178.2,366.6,1177.6,364.1,1174.7,364.1z"/>
		<path fill="#343970" d="M1204.7,365.8c-1.7-1.2-4.3-1.7-6-1.7c-2,0-3.4,0.5-3.4,2.8c0,4.4,13.2,1.8,13.2,12.2c0,3.3-1.6,5.6-3.6,7
			c-2,1.3-4.7,2-7.4,2c-3,0-7.1-0.7-9.5-2.9l3.3-4.9c1.9,1.5,4.7,2.1,6.8,2.1c2,0,3.6-0.5,3.6-3c0-4.9-13.2-2.1-13.2-12.3
			c0-3,1.3-5,3.2-6.4c2.1-1.5,4.6-2.2,7.5-2.2c2.7,0,6.4,0.7,8.6,2.5L1204.7,365.8z"/>
	</g>
</g>
<g>
	<path fill="#343970" d="M447.2,359.2v22.7h9.8v6h-16.6v-28.6H447.2z"/>
	<path fill="#343970" d="M460.8,369.3c2.2-2.3,5.1-3,8.5-3c6,0,8.8,2.2,8.8,8.1v13.5h-5.5l0-2.7c-1.5,2.2-3.7,3.2-6.1,3.2
		c-2,0-3.6-0.7-4.6-1.7c-1.2-1.2-1.9-2.7-1.9-4.9c0-2.6,0.9-4.3,2.6-5.5c1.8-1.2,4.6-1.7,7.4-1.7h2.2v-0.5c0-2.3-0.8-3-3.1-3
		c-2,0-3.6,0.5-5,1.9L460.8,369.3z M469.6,378.8c-2.3,0-3.6,0.3-3.6,2.7c0,1.3,0.4,2.1,1.5,2.1c1.7,0,4.5-1.9,4.8-4.9H469.6z"/>
	<path fill="#343970" d="M490,366.7v3.2c1.3-2.4,3.4-3.8,6.3-3.8c4.1,0,6.2,2.7,6.2,7.6v14.1h-6.6v-13.1c0-1.7-0.3-2.6-1.6-2.6
		c-2.1,0-3.9,2.3-3.9,7.2v8.5h-6.5v-21.2H490z"/>
	<path fill="#343970" d="M524.7,384.9c-2,2.3-4.8,3.4-8,3.4c-3.1,0-5.2-1-6.6-2.5c-1.8-2-2.5-4.7-2.5-8.2c0-3.4,0.7-6.7,2.8-8.8
		c1.5-1.5,3.7-2.5,7.1-2.5c2.6,0,5.2,0.6,7,2.4l-3.7,4.4c-1-0.8-2.1-1.2-3.3-1.2c-2.7,0-3.2,1.6-3.2,5.4s0.5,5.5,2.7,5.5
		c1.4,0,2.7-0.7,3.9-1.9L524.7,384.9z"/>
	<path fill="#343970" d="M546,384.8c-2.4,2.4-5.3,3.5-9,3.5c-2.9,0-5.2-0.7-6.8-2.2c-1.9-1.7-2.9-4.3-2.9-8.5c0-3.5,0.7-6.7,2.8-8.9
		c1.5-1.5,3.8-2.7,7.3-2.7c6.8,0,9,4.4,9,10.2c0,0.8,0,1.5-0.2,2.5l-12.5,0.1c0,2.7,0.5,4.4,3.6,4.4c2.2,0,4.1-0.8,5.6-2.2
		L546,384.8z M540.1,374.7c0-2.4-0.5-3.8-3-3.8c-2.6,0-3.3,1.5-3.4,3.8H540.1z"/>
	<path fill="#343970" d="M570.6,359.2l5.2,18.1l5.4-18.1h8.9l1.6,28.6h-6.6l-0.7-21.2l-5.6,19.9h-6.1l-5.5-19.9l-0.7,21.2H560
		l1.6-28.6H570.6z"/>
	<path fill="#343970" d="M596.6,369.3c2.2-2.3,5.1-3,8.5-3c6,0,8.8,2.2,8.8,8.1v13.5h-5.5l0-2.7c-1.5,2.2-3.7,3.2-6.1,3.2
		c-2,0-3.6-0.7-4.6-1.7c-1.2-1.2-1.9-2.7-1.9-4.9c0-2.6,0.9-4.3,2.6-5.5c1.8-1.2,4.6-1.7,7.4-1.7h2.2v-0.5c0-2.3-0.8-3-3.1-3
		c-2,0-3.6,0.5-5,1.9L596.6,369.3z M605.3,378.8c-2.3,0-3.6,0.3-3.6,2.7c0,1.3,0.4,2.1,1.5,2.1c1.7,0,4.5-1.9,4.8-4.9H605.3z"/>
	<path fill="#343970" d="M636,384.9c-2,2.3-4.8,3.4-8,3.4c-3.1,0-5.2-1-6.6-2.5c-1.8-2-2.5-4.7-2.5-8.2c0-3.4,0.7-6.7,2.8-8.8
		c1.5-1.5,3.7-2.5,7.1-2.5c2.6,0,5.2,0.6,7,2.4l-3.7,4.4c-1-0.8-2.1-1.2-3.3-1.2c-2.7,0-3.2,1.6-3.2,5.4s0.5,5.5,2.7,5.5
		c1.4,0,2.7-0.7,3.9-1.9L636,384.9z"/>
	<path fill="#343970" d="M646.9,356.1v17.8h1.6l3.9-7.2h7.7l-6.4,10.2l7.1,11h-8l-4.4-7.8h-1.4v7.8h-6.5v-31.7H646.9z"/>
	<path fill="#343970" d="M671,356.1v31.7h-6.5v-31.7H671z"/>
	<path fill="#343970" d="M680.2,355.8c2.2,0,3.8,1.7,3.8,3.9c0,2.2-1.6,3.9-3.8,3.9c-2.2,0-3.8-1.7-3.8-3.9
		C676.4,357.5,678.1,355.8,680.2,355.8z M683.5,366.7v21.2H677v-21.2H683.5z"/>
	<path fill="#343970" d="M695.6,366.7v3.2c1.3-2.4,3.4-3.8,6.3-3.8c4.1,0,6.2,2.7,6.2,7.6v14.1h-6.6v-13.1c0-1.7-0.3-2.6-1.6-2.6
		c-2.1,0-3.9,2.3-3.9,7.2v8.5h-6.5v-21.2H695.6z"/>
</g>
</svg>
