<?xml version="1.0" encoding="utf-8"?>
<!-- Generator: Adobe Illustrator 18.1.1, SVG Export Plug-In . SVG Version: 6.00 Build 0)  -->
<svg version="1.1" id="Ebene_5" xmlns="http://www.w3.org/2000/svg" xmlns:xlink="http://www.w3.org/1999/xlink" x="0px" y="0px"
	 viewBox="0 0 1489.9 525.5" enable-background="new 0 0 1489.9 525.5" xml:space="preserve">
<g>
	<rect x="0" y="32.1" fill="#EDEDED" width="1489.9" height="461.4"/>
	<rect x="0" y="0" fill="#0098A1" width="1489.9" height="32.1"/>
	<rect x="0" y="493.5" fill="#0098A1" width="1489.9" height="32.1"/>
	<g>
		<path fill="#135729" d="M877.2,402.9C877.2,402.9,877.2,402.9,877.2,402.9c-0.3,0-8.8,0.4-11.6,4.5c-2.5,3.8-3.3,8.7-3.4,9.5
			c-3.3,1-5.7,0.7-5.7,0.7S729,383.4,718.7,380.4c-10.4-3-16.5-8.9-16.5-8.9l-5.9-1.4l0.8-3.3l-4.3-2.2l-2.2-5.5l0.6-3.5
			c0,0-4.1-7-0.2-22.8c4.3-17.6,11.4-21.2,11.4-21.2l-0.5-2.6l5.7-5.3l4.7,1.2l0.8-3.1l4.6,1.1c0,0,5-1.5,16.4-1
			c11.4,0.5,143.4,30.6,146.1,32.4c0.4,0.3,0.8,0.6,1.3,1.1c0,0-2.7,8.3,0.2,13.2c2.2,3.7,7.1,6.5,7.1,6.5c0.2,7.4-1,15.6-2.2,20.8
			C885.1,381.9,883.8,390.6,877.2,402.9z"/>
		<path fill="#9D9D9C" d="M888.8,355.2c0,0-4.9-2.8-7.1-6.5c-2.9-4.9-0.2-13.2-0.2-13.2c2.6,2.6,6,8.1,6.9,15.3
			C888.6,352.2,888.7,353.7,888.8,355.2z"/>
		<path fill="#9D9D9C" d="M877.2,402.9c-0.4,0.8-0.9,1.6-1.3,2.4c-4.2,7.5-9.6,10.5-13.7,11.6c0.1-0.9,0.9-5.7,3.4-9.5
			C868.4,403.3,876.9,402.9,877.2,402.9z"/>
		<path fill="none" stroke="#FFFFFF" stroke-width="2" stroke-miterlimit="10" d="M862.2,417.1c0,0,0,0,0-0.1"/>
		<path fill="none" stroke="#FFFFFF" stroke-width="2" stroke-miterlimit="10" d="M877.2,402.9C877.2,402.9,877.2,402.9,877.2,402.9
			"/>
		
			<rect x="813.8" y="343.4" transform="matrix(0.9718 0.2358 -0.2358 0.9718 105.1277 -183.3397)" fill="#FFFFFF" width="10.3" height="8.7"/>
		
			<rect x="808.1" y="367.1" transform="matrix(0.9718 0.2358 -0.2358 0.9718 110.54 -181.3202)" fill="#FFFFFF" width="10.3" height="8.7"/>
		
			<rect x="810.9" y="354.9" transform="matrix(0.9718 0.2358 -0.2358 0.9718 107.6912 -181.7284)" fill="#FFFFFF" width="5.2" height="8.7"/>
		
			<ellipse transform="matrix(-0.9718 -0.2358 0.2358 -0.9718 1625.6206 947.5074)" fill="#FFFFFF" cx="869.5" cy="376.5" rx="12.1" ry="14.4"/>
		
			<ellipse transform="matrix(-0.9718 -0.2358 0.2358 -0.9718 1314.0917 817.7772)" fill="#FFFFFF" cx="706" cy="330.3" rx="13.3" ry="14.4"/>
		<path fill="none" stroke="#FFFFFF" stroke-miterlimit="10" d="M888.8,361.5c0,0-0.5,0.2-5.4,18.5c-4.9,18.3-3.6,17.3-3.6,17.3"/>
		<path fill="none" stroke="#FFFFFF" stroke-miterlimit="10" d="M883.3,355.5c-14.2-3.5-33.4-7.4-58.8-24.9"/>
		<path fill="none" stroke="#FFFFFF" stroke-miterlimit="10" d="M871.6,400c0,0-18.5-4.5-32.8-5.4c-14.2-0.9-28.4,1.4-28.4,1.4"/>
		<path fill="none" stroke="#FFFFFF" stroke-miterlimit="10" d="M784.2,351l-13.8-3.3c-7.3-1.8-11.8-9.2-10.1-16.5l0.2-0.8
			c1.8-7.3,9.2-11.8,16.5-10.1l13.8,3.3c7.3,1.8,11.8,9.2,10.1,16.5l-0.2,0.8C798.9,348.3,791.5,352.8,784.2,351z"/>
		<path fill="none" stroke="#FFFFFF" stroke-miterlimit="10" d="M690.1,352.2l37.4,9.1c0,0,8,8.8,17.7,11.2"/>
		<path fill="none" stroke="#FFFFFF" stroke-miterlimit="10" d="M689.8,350.6l3.1-0.6l35.8,8.7c0,0,10.6-3.6,20.7-1.4"/>
		<line fill="none" stroke="#FFFFFF" stroke-miterlimit="10" x1="761.5" y1="306.4" x2="741.9" y2="387.2"/>
		<line fill="none" stroke="#FFFFFF" stroke-miterlimit="10" x1="816.9" y1="318.8" x2="796.8" y2="401.6"/>
		<path fill="none" stroke="#FFFFFF" stroke-miterlimit="10" d="M763,320.2c0,0-10.8,5.7-29.1,1.1c-18.4-4.7-25.1-10.5-25.1-10.5"/>
		<polygon fill="#E30613" points="692.8,364.6 688.9,363.7 688.9,358.7 690.6,359.1 		"/>
		<polygon fill="#E30613" points="706.7,304.7 703.4,303.9 701.1,308.3 702.4,308.6 		"/>
		<path fill="none" stroke="#FFFFFF" stroke-miterlimit="10" d="M765.1,351.1l21.8,4.5c0,0,7.8,2.5,8,8.6c0.1,6.1-2.5,15.2-5.8,18.1
			c-3.2,2.9-6.3,5.6-11.7,5.2c-5.4-0.4-14.3-2.4-18.9-4.2c-4.6-1.7-11.3-9.5-11.3-9.5l3.8-15.6C751,358.2,755.5,349.8,765.1,351.1z"
			/>
		<path fill="#3C3C3B" d="M750.6,359.8c0,0,13.9-3.9,24.3-2.7c10.3,1.2,13,3.4,14.2,6.1c2.7,6.4,0.4,11.8,0.4,11.8s-1.6,7.9-8.6,8.8
			s-16.1-2.4-19.1-3.9s-8.4-6.2-8.4-6.2l-5.7-1.4"/>
		
			<ellipse transform="matrix(-0.9718 -0.2358 0.2358 -0.9718 1460.8691 920.4358)" fill="#FFFFFF" cx="785.5" cy="372.9" rx="2" ry="7.6"/>
		<text transform="matrix(-0.2349 0.9678 -0.9718 -0.2358 698.685 321.092)" font-family="'Calibre-Medium'" font-size="28.5277">6</text>
		<text transform="matrix(0.2349 -0.9678 0.9718 0.2358 876.2532 386.4299)" font-family="'Calibre-Medium'" font-size="28.5277">6</text>
	</g>
	<g>
		<path fill="none" stroke="#E30613" stroke-width="2" stroke-miterlimit="10" d="M416.9,311.1"/>
		<path fill="#9D9D9C" d="M613.7,320.3l-0.2-13.3c2.1,1.2,3.6,2.8,3.6,5C617.3,321.2,613.7,320.3,613.7,320.3z"/>
		<path fill="#9D9D9C" d="M617.2,376c-0.3,6.3-3.4,7.3-3.4,7.3c-0.1,0-0.1,0-0.2,0.1l0-15.1C614,368.4,617.5,370,617.2,376z"/>
		<path fill="#343970" d="M614.2,364.2c-0.3,2.5-0.5,4.4-0.5,4.9v0c0,0.1,0,0.1,0,0.1s0,0,0,0l0,14.1c-5.6,2.2-9,2.4-19.7,2.4
			c-10.8,0-38.3,0.9-44.8,0.5c-6.5-0.5-41.5-0.8-52.9-0.5c-11.4,0.3-52.5,0.9-60.4-0.4c-8-1.4-18.6-2.4-18.9-6.6
			c-0.2-3.6,1-4.4,1-4.4s-0.9-20.4-0.9-29.3c0-8.9,0.8-21,0.8-21c1-7.1,0.9-7,0.9-7s-1.8-2.3-1.8-4.7c0-2.4,2.5-7.5,21.4-8.4
			c0,0,53.3,1,73.2,0.4c20.2-0.6,67.8-0.7,82.4-0.2c0,0,13.1-0.7,19.5,2.8l0.2,12.8c0,0,0.2,2.6,0.5,6.2c-0.5-0.1-2.2-0.4-2.7,0.7
			c-0.6,1.2-3.7,9.6-2.9,22.1c0.8,12.5,3.4,15.3,4.3,15.3C613.5,364.1,613.9,364.1,614.2,364.2z"/>
		<path fill="none" stroke="#FFFFFF" stroke-miterlimit="10" d="M613.7,369.2v-0.1v0c-33.7-0.8-72.2,2.9-94.3,7.5"/>
		<polygon fill="#FFFFFF" points="545.1,372.5 540.9,373 540.9,315.6 545.1,316 		"/>
		<path fill="none" stroke="#FFFFFF" stroke-miterlimit="10" d="M507.4,379.4l-27.6,0.3c-11.7,0.3-9.2-9.8-9-33.2
			s-0.3-36.4,9.8-36.2l26.8,0.2"/>
		<path fill="none" stroke="#FFFFFF" stroke-miterlimit="10" d="M419.3,317c0,0,6.8,3.8,26.5,1.5c19.7-2.3,25.1-5,25.1-5"/>
		<path fill="none" stroke="#FFFFFF" stroke-miterlimit="10" d="M417.6,373.3c0,0,10.5-4.2,28.6-2.3s24,5.3,24,5.3"/>
		<rect x="417" y="317.3" fill="#E30613" width="2.7" height="6.2"/>
		<rect x="417" y="366.3" fill="#E30613" width="2.7" height="6.2"/>
		<ellipse fill="#FFFFFF" cx="437.9" cy="345" rx="13.8" ry="17.7"/>
		<ellipse fill="#FFFFFF" cx="595.4" cy="344.9" rx="15.1" ry="17.6"/>
		<path fill="#9D9D9C" d="M614.2,364.2c-0.3,0-0.8-0.1-1.3-0.1c-0.9,0-3.5-2.8-4.3-15.3c-0.8-12.5,2.4-20.9,2.9-22.1
			c0.5-1.1,2.2-0.8,2.7-0.7c0.5,5.8,1.2,14.3,1.3,19.3C615.5,350.5,614.8,358.9,614.2,364.2z"/>
		<path fill="#9D9D9C" d="M603.4,336.8l0.3,15c0,0,1.8-3.7,1.8-5s1.2-1.4,1.2-2.6s-1.4-1.4-1.4-2.4
			C605.4,340.8,604.6,337.9,603.4,336.8z"/>
		<path fill="none" stroke="#FFFFFF" stroke-miterlimit="10" d="M426.8,323.2c0,0,20.7,0.2,26.2-1.2c5.4-1.4,6.8,3.9,6.8,8.1
			c0,0,0.2,26.2-0.6,31.3c-0.8,5.1-1.4,6.9-7.7,6.2c-6.3-0.8-19.4-2-23.8-1.4c-4.4,0.6-5.7-2.9-5.9-6c-0.2-3.2-1.1-27.9,0.4-32.5
			C423.7,323,426.8,323.2,426.8,323.2z"/>
		<g>
			<ellipse fill="#FFFFFF" cx="501.6" cy="362.4" rx="2.1" ry="8.1"/>
		</g>
		<path fill="none" stroke="#FFFFFF" stroke-miterlimit="10" d="M613.6,319.7c-26.9,0-74.6-3.6-93.7-6.8"/>
		<path fill="#9D9D9C" d="M502.1,311.9l8.3-4.4c0,0,7.4,15,7.1,38.2c-0.3,22.3-6.8,36.7-6.8,36.7l-8.9-4.7c0,0,5.7-15.3,5.3-32.5
			C506.6,328.2,502.1,311.9,502.1,311.9z"/>
		<text transform="matrix(0 -0.9959 1 0 601.2684 354.4584)"><tspan x="0" y="0" font-family="'Calibre-Medium'" font-size="20.7761">2</tspan><tspan x="9.3" y="0" font-family="'Calibre-Medium'" font-size="20.7761">6</tspan></text>
		<text transform="matrix(0 0.9959 -1 0 431.7254 335.12)"><tspan x="0" y="0" font-family="'Calibre-Medium'" font-size="20.7761">2</tspan><tspan x="9.3" y="0" font-family="'Calibre-Medium'" font-size="20.7761">6</tspan></text>
	</g>
	<g>
		<polygon fill="#8C9699" points="287.7,307.8 279.6,313.4 278,311.1 286,305.5 		"/>
		<polygon fill="#8C9699" points="280.2,305.9 272.1,311.5 270.4,309.3 278.5,303.7 		"/>
		<polygon fill="#8C9699" points="287.7,226.2 279.6,220.6 277.9,222.9 286,228.5 		"/>
		<polygon fill="#8C9699" points="280.1,228.1 272.1,222.5 270.4,224.7 278.5,230.3 		"/>
		<polygon fill="#BE1622" points="173.3,300.5 169.3,299.7 163.3,289 164.7,287.6 		"/>
		<polygon fill="#BE1622" points="173.3,233.7 165.4,246 163.8,244.9 169.4,234.3 		"/>
		<path fill="#858FA1" d="M364.8,290.8c0,0,2.6,3.3,2.3,7.4c-0.4,5.7-6.8,9.1-19.1,10.4l-0.2,0c0,0-123.7-0.4-140.6,0.6
			c-17.1,1-34-8.6-34-8.6l-8.6-12.9c0,0-2.7-10.5-2.7-20.7c0-11.6,3.4-20.9,3.4-20.9l7.8-12.3c0,0,17.6-9.2,34-8.4
			c17.1,0.9,128.1-0.1,136.1,0c8,0.1,23.3,3.4,23.6,9.8c0.2,5.2-2.2,8.8-2.2,8.8c4.8,1.9,4.9,11,4.9,22.5
			C369.6,277.7,369.6,288.5,364.8,290.8z"/>
		<path fill="#DADADA" d="M350,298.4c0,4.6-0.2,11,10.9,6.3c6.5-2.8,6.5-7.9,3.7-10.8c-1.4-1.5-3.7-2-6-2
			C354.4,291.8,350,292.3,350,298.4z"/>
		<path fill="#DADADA" d="M350,236.1c0-4.6-0.2-11,10.9-6.3c6.5,2.8,6.5,7.9,3.7,10.8c-1.4,1.5-3.7,2-6,2
			C354.4,242.7,350,242.1,350,236.1z"/>
		<path fill="none" stroke="#E30613" stroke-miterlimit="10" d="M293,266"/>
		<path fill="none" stroke="#FFFFFF" stroke-miterlimit="10" d="M320,292c-6.1,0.8-25.2,3.8-28.2,1.2c-2.9-2.6,1.5-13.6,1.7-24.9
			c0.2-11.7-4.4-24.7-1.9-27.4c2.5-2.7,18.1-0.1,29.2,1.4c14.1,1.9,39.9,2.5,42.8,5.5c2.9,3,3.6,6.3,3.3,16.8
			c-0.3,10.6,1.7,20.6-5.4,23C354.3,290,326.1,291.2,320,292z"/>
		<ellipse fill="#FFFFFF" cx="348.9" cy="267" rx="13.2" ry="14.1"/>
		<path fill="none" stroke="#FFFFFF" stroke-miterlimit="10" d="M364.8,290.8c-11-0.3-56.2,7-69.8,10.1"/>
		<path fill="none" stroke="#FFFFFF" stroke-miterlimit="10" d="M364.7,243.8c-16.1-0.6-65.2-8.7-71.3-11"/>
		<path fill="none" stroke="#FFFFFF" stroke-miterlimit="10" d="M265.1,256.4c0,0,0,26.6,0,33.7s-13.4,10.6-13.4,10.6"/>
		<path fill="#3C3C3B" d="M231.1,241.7V269c0,0,2,8.2,20.8,7.1c18.8-1.1,19.9-11.1,19.9-11.1s2.5-15.3-2.3-20.5
			c-5.7-6.3-10.9-6.2-15.3-6.2C246.7,238.4,231.1,241.7,231.1,241.7z"/>
		<path fill="none" stroke="#FFFFFF" stroke-miterlimit="10" d="M223.8,295.9h-23.6c-2.2,0-4.5-5.4-4.5-7.4v-43.1
			c0-2.1,2.5-7.4,4.7-7.4h23.3c2.2,0,3.9,1.7,3.9,3.8v50.4C227.8,294.2,226,295.9,223.8,295.9z"/>
		<path fill="none" stroke="#FFFFFF" stroke-miterlimit="10" d="M171.9,292.7c17.2,2,48.2,7.7,55.8,10.5"/>
		<path fill="none" stroke="#FFFFFF" stroke-miterlimit="10" d="M172.6,241.1c0.3,0.4,49.1-7,54.9-9.9"/>
		<path fill="none" stroke="#FFFFFF" stroke-miterlimit="10" d="M165.4,266.7c0.2,8.6,1.1,14.8,1.9,17.4c0.8,2.6,0.3,3.7,5,5
			c4.7,1.3,14.6,4.4,17.5,3.7c0,0,3.7-0.5,4.1-3.4s-2-17.5-1.9-22.7s2.1-19.6,2-21.6c-0.2-2-2-3.8-3.8-3.7c-1.9,0.1-6,0.6-9.2,1.4
			c-3.2,0.8-10.6,2-12.4,4.5C165.9,251,165.4,266.7,165.4,266.7z"/>
		<path fill="none" stroke="#FFFFFF" stroke-miterlimit="10" d="M227.5,248.2c0,0-30.9,1.8-30.9,7.8c0,7,30.9,8.5,30.9,8.5"/>
		<ellipse fill="#FFFFFF" cx="178.9" cy="267" rx="13.2" ry="14.1"/>
		<path fill="none" stroke="#FFFFFF" stroke-miterlimit="10" d="M229.1,233.5v60.7c0,0,1.2,7.1,14.3,6.7s22.9-0.1,27-5.1
			s3-17.2,3-17.2s1.4-32.2,0.1-38.4s-10.6-6.8-10.6-6.8H229.1z"/>
		<ellipse fill="#FFFFFF" cx="268.2" cy="255.5" rx="2.2" ry="8"/>
		<path fill="#9D9D9C" d="M265.4,238.8c0,0,6.7,6.7,6.7,18.2c0,11.3-6.7,17.7-6.7,17.7s4.5,0.7,7.9-4c4.4-5.9,3-22.3,1.5-24.9
			C272,239.2,265.4,238.8,265.4,238.8z"/>
		<text transform="matrix(0 0.9959 -1 0 172.7132 256.5812)" font-family="'Calibre-Medium'" font-size="20.7761">20</text>
		<text transform="matrix(0 -0.9959 1 0 355.1654 277.4782)" font-family="'Calibre-Medium'" font-size="20.7761">20</text>
	</g>
	<g>
		<g>
			<line fill="none" stroke="#706F6F" stroke-width="8" stroke-miterlimit="10" x1="389.9" y1="266" x2="583.1" y2="266"/>
			<g>
				<polygon fill="#706F6F" points="567.4,286.8 576.2,266 567.4,245.3 616.6,266 				"/>
			</g>
		</g>
	</g>
	<g>
		<g>
			<line fill="none" stroke="#706F6F" stroke-width="8" stroke-miterlimit="10" x1="90.1" y1="402.9" x2="295.4" y2="402.9"/>
			<g>
				<polygon fill="#706F6F" points="279.7,423.6 288.5,402.9 279.7,382.2 328.9,402.9 				"/>
			</g>
		</g>
	</g>
	<g>
		<g>
			<line fill="none" stroke="#706F6F" stroke-width="8" stroke-miterlimit="10" x1="622.2" y1="336.8" x2="728.8" y2="268.2"/>
			<g>
				<polygon fill="#706F6F" points="726.8,294.2 723,272 704.3,259.3 756.9,250.1 				"/>
			</g>
		</g>
	</g>
	<g>
		<g>
			<line fill="none" stroke="#706F6F" stroke-width="8" stroke-miterlimit="10" x1="909.3" y1="380.6" x2="1050.4" y2="416.8"/>
			<g>
				<polygon fill="#706F6F" points="1030,433 1043.7,415.1 1040.3,392.9 1082.8,425.2 				"/>
			</g>
		</g>
	</g>
	<path fill="none" stroke="#E30613" stroke-width="8" stroke-miterlimit="10" d="M691,332.8"/>
	<g>
		<defs>
			<rect id="SVGID_7_" x="0" y="346.9" width="85.2" height="108"/>
		</defs>
		<clipPath id="SVGID_2_">
			<use xlink:href="#SVGID_7_"  overflow="visible"/>
		</clipPath>
		<g clip-path="url(#SVGID_2_)">
			<path fill="#858FA1" d="M69.6,423.8c0,0,2.6,3.3,2.3,7.4c-0.4,5.7-6.8,9.1-19.1,10.4l-0.2,0c0,0-123.7-0.4-140.6,0.6
				c-17.1,1-34-8.6-34-8.6l-8.6-12.9c0,0-2.7-10.5-2.7-20.7c0-11.6,3.4-20.9,3.4-20.9l7.8-12.3c0,0,17.6-9.2,34-8.4
				c17.1,0.9,128.1-0.1,136.1,0c8,0.1,23.3,3.4,23.6,9.8c0.2,5.2-2.2,8.8-2.2,8.8c4.8,1.9,4.9,11,4.9,22.5
				C74.4,410.7,74.4,421.4,69.6,423.8z"/>
			<path fill="#DADADA" d="M54.8,431.4c0,4.6-0.2,11,10.9,6.3c6.5-2.8,6.5-7.9,3.7-10.8c-1.4-1.5-3.7-2-6-2
				C59.2,424.8,54.8,425.3,54.8,431.4z"/>
			<path fill="#DADADA" d="M54.8,369.1c0-4.6-0.2-11,10.9-6.3c6.5,2.8,6.5,7.9,3.7,10.8c-1.4,1.5-3.7,2-6,2
				C59.3,375.7,54.9,375.1,54.8,369.1z"/>
			<path fill="none" stroke="#FFFFFF" stroke-miterlimit="10" d="M24.8,425c-6.1,0.8-25.2,3.8-28.2,1.2s1.5-13.6,1.7-24.9
				c0.2-11.7-4.4-24.7-1.9-27.4s18.1-0.1,29.2,1.4c14.1,1.9,39.9,2.5,42.8,5.5c2.9,3,3.6,6.3,3.3,16.8c-0.3,10.6,1.7,20.6-5.4,23
				C59.2,423,30.9,424.1,24.8,425z"/>
			<ellipse fill="#FFFFFF" cx="53.7" cy="400" rx="13.2" ry="14.1"/>
			<path fill="none" stroke="#FFFFFF" stroke-miterlimit="10" d="M69.6,423.8c-11-0.3-56.2,7-69.8,10.1"/>
			<path fill="none" stroke="#FFFFFF" stroke-miterlimit="10" d="M69.5,376.8c-16.1-0.6-65.2-8.7-71.3-11"/>
			<text transform="matrix(0 -0.9959 1 0 59.9882 409.0468)" font-family="'Calibre-Medium'" font-size="20.7761">19</text>
		</g>
	</g>
	<g>
		<rect x="1208.8" y="397.6" fill="#B2B2B2" width="9.9" height="89.8"/>
		<rect x="1218.7" y="397.6" fill="#B2B2B2" width="9.9" height="9.9"/>
		<rect x="1218.7" y="477.5" fill="#B2B2B2" width="9.9" height="9.9"/>
	</g>
	<g>
		<rect x="1447.7" y="397.6" fill="#B2B2B2" width="9.9" height="89.8"/>
		<rect x="1437.8" y="477.5" fill="#B2B2B2" width="9.9" height="9.9"/>
		<rect x="1437.8" y="397.6" fill="#B2B2B2" width="9.9" height="9.9"/>
	</g>
	<g>
		<path fill="#B2B2B2" d="M1301.5,420c4.1,0,7.9,0.7,10.7,2.9c2.9,2.3,4.8,5.9,4.8,12.3c0,6.2-1.7,10.2-4.8,12.6
			c-2.7,2.1-6.3,3-11.1,3h-6.3v13.6h-10.4V420H1301.5z M1294.9,441.9h6c2.1,0,3.3-0.4,4.1-1.2c1-0.9,1.2-2.6,1.2-5.3
			c0-3.3-0.5-4.8-1.4-5.5c-0.9-0.8-2.1-1-4.1-1h-5.8V441.9z"/>
		<path fill="#B2B2B2" d="M1337.7,414.7c3.4,0,5.9,2.6,5.9,6s-2.5,6-5.9,6c-3.3,0-5.9-2.6-5.9-6S1334.3,414.7,1337.7,414.7z
			 M1342.8,431.6v32.8h-10.1v-32.8H1342.8z"/>
		<path fill="#B2B2B2" d="M1381.5,463.9c-2.1,0.5-4.4,0.8-6.9,0.8c-9.1,0-11.6-4.5-11.6-12.5v-11.3h-4.8v-8.7h4.8v-9l10.1-0.9v9.9
			h8.1v8.7h-8.1v10.5c0,3.4,0.1,4.5,3.7,4.5c1.2,0,2.9-0.1,4.2-0.5L1381.5,463.9z"/>
	</g>
</g>
</svg>
