<?xml version="1.0" encoding="utf-8"?>
<!-- Generator: Adobe Illustrator 18.1.1, SVG Export Plug-In . SVG Version: 6.00 Build 0)  -->
<svg version="1.1" xmlns="http://www.w3.org/2000/svg" xmlns:xlink="http://www.w3.org/1999/xlink" x="0px" y="0px"
	 viewBox="0 0 4535.4 2551.2" enable-background="new 0 0 4535.4 2551.2" xml:space="preserve">
<g id="Ebene_2">
	<g>
		<polygon fill="#EDEDED" points="4535.4,278.5 4536.7,0 0,1895.7 0,2551.2 345.1,2551.2 1195.3,1788.8 		"/>
		<polygon fill="#DADADA" points="4535.4,255.5 4535.4,277.3 1196.4,1787.3 345.1,2551.2 0,2551.2 0,2264.1 		"/>
		<g>
			<g>
				<polygon fill="#878787" stroke="#FFFFFF" stroke-miterlimit="10" points="3335.8,388.8 3335.8,559.8 3573.2,681.2 3567.2,655.4 
					3484.9,569.2 3478.6,535 3404.8,459.9 3404.8,418 				"/>
				<polygon fill="none" stroke="#FFFFFF" stroke-miterlimit="10" points="3743.6,239.5 3743.6,391.4 3983.6,499.1 3975.8,476.2 
					3895.2,403.9 3890.6,374.3 3813.4,302.7 3805.7,267.5 				"/>
				<polygon fill="#878787" stroke="#FFFFFF" stroke-miterlimit="10" points="3573.2,681.2 3983.6,499.1 3975.8,476.2 3567.2,655.4 
									"/>
				<polygon fill="#706F6F" stroke="#FFFFFF" stroke-miterlimit="10" points="3890.6,374.3 3478.6,535 3484.9,569.2 3895.2,403.9 
									"/>
				<linearGradient id="SVGID_1_" gradientUnits="userSpaceOnUse" x1="3675.4419" y1="489.7195" x2="3607.4419" y2="311.7195">
					<stop  offset="0" style="stop-color:#808080"/>
					<stop  offset="0.7574" style="stop-color:#333333"/>
				</linearGradient>
				<polygon fill="url(#SVGID_1_)" stroke="#FFFFFF" stroke-miterlimit="10" points="3404.8,459.9 3813.4,302.7 3890.6,374.3 
					3478.6,535 				"/>
				<polygon fill="#9D9D9C" stroke="#FFFFFF" stroke-miterlimit="10" points="3484.9,569.2 3567.2,655.4 3975.8,476.2 3895.2,403.9 
									"/>
				<polygon fill="#575756" stroke="#FFFFFF" stroke-miterlimit="10" points="3404.8,459.9 3813.4,302.7 3805.7,267.5 3404.8,418 
									"/>
				<polygon fill="#3C3C3B" stroke="#FFFFFF" stroke-miterlimit="10" points="3319.6,381.9 3404.8,418 3489.4,430.3 3897.5,280.3 
					3805.7,267.5 3743.6,239.5 				"/>
			</g>
			<g>
				<polygon fill="#878787" stroke="#FFFFFF" stroke-miterlimit="10" points="2815.4,567.3 2815.4,760.4 3083.4,897.4 3076.6,868.4 
					2983.7,771.1 2976.5,732.4 2893.2,647.7 2893.2,600.3 				"/>
				<polygon fill="none" stroke="#FFFFFF" stroke-miterlimit="10" points="3275.7,398.8 3275.7,570.3 3546.7,691.9 3537.9,666 
					3446.9,584.4 3441.7,551 3354.5,470.1 3345.8,430.3 				"/>
				<polygon fill="#878787" stroke="#FFFFFF" stroke-miterlimit="10" points="3083.4,897.4 3546.7,691.9 3537.9,666 3076.6,868.4 
									"/>
				<polygon fill="#706F6F" stroke="#FFFFFF" stroke-miterlimit="10" points="3441.7,551 2976.5,732.4 2983.7,771.1 3446.9,584.4 
									"/>
				<linearGradient id="SVGID_2_" gradientUnits="userSpaceOnUse" x1="3195.6204" y1="673.0221" x2="3127.6204" y2="495.0221">
					<stop  offset="0" style="stop-color:#808080"/>
					<stop  offset="0.7574" style="stop-color:#333333"/>
				</linearGradient>
				<polygon fill="url(#SVGID_2_)" stroke="#FFFFFF" stroke-miterlimit="10" points="2893.2,647.7 3354.5,470.1 3441.7,551 
					2976.5,732.4 				"/>
				<polygon fill="#9D9D9C" stroke="#FFFFFF" stroke-miterlimit="10" points="2983.7,771.1 3076.6,868.4 3537.9,666 3446.9,584.4 
									"/>
				<polygon fill="#575756" stroke="#FFFFFF" stroke-miterlimit="10" points="2893.2,647.7 3354.5,470.1 3345.8,430.3 2893.2,600.3 
									"/>
				<polygon fill="#3C3C3B" stroke="#FFFFFF" stroke-miterlimit="10" points="2797,559.5 2893.2,600.3 2988.7,614.2 3449.5,444.8 
					3345.8,430.3 3275.7,398.8 				"/>
			</g>
			<g>
				<polygon fill="#878787" stroke="#FFFFFF" stroke-miterlimit="10" points="2122.2,803.2 2122.2,1027.3 2433.2,1186.3 
					2425.3,1152.5 2317.5,1039.6 2309.2,994.7 2212.6,896.4 2212.6,841.5 				"/>
				<polygon fill="none" stroke="#FFFFFF" stroke-miterlimit="10" points="2656.3,607.7 2656.3,806.6 2970.8,947.8 2960.6,917.7 
					2855,823.1 2848.9,784.2 2747.7,690.5 2737.7,644.3 				"/>
				<polygon fill="#878787" stroke="#FFFFFF" stroke-miterlimit="10" points="2433.2,1186.3 2970.8,947.8 2960.6,917.7 
					2425.3,1152.5 				"/>
				<polygon fill="#706F6F" stroke="#FFFFFF" stroke-miterlimit="10" points="2848.9,784.2 2309.2,994.7 2317.5,1039.6 2855,823.1 
									"/>
				<linearGradient id="SVGID_3_" gradientUnits="userSpaceOnUse" x1="2559.6284" y1="915.9854" x2="2491.6284" y2="737.9854">
					<stop  offset="0" style="stop-color:#808080"/>
					<stop  offset="0.7574" style="stop-color:#333333"/>
				</linearGradient>
				<polygon fill="url(#SVGID_3_)" stroke="#FFFFFF" stroke-miterlimit="10" points="2212.6,896.4 2747.7,690.5 2848.9,784.2 
					2309.2,994.7 				"/>
				<polygon fill="#9D9D9C" stroke="#FFFFFF" stroke-miterlimit="10" points="2317.5,1039.6 2425.3,1152.5 2960.6,917.7 2855,823.1 
									"/>
				<polygon fill="#575756" stroke="#FFFFFF" stroke-miterlimit="10" points="2212.6,896.4 2747.7,690.5 2737.7,644.3 2212.6,841.5 
									"/>
				<polygon fill="#3C3C3B" stroke="#FFFFFF" stroke-miterlimit="10" points="2100.9,794.2 2212.6,841.5 2323.3,857.6 2858,661.1 
					2737.7,644.3 2656.3,607.7 				"/>
			</g>
			<g>
				<polygon fill="#878787" stroke="#FFFFFF" stroke-miterlimit="10" points="1443.9,1040.7 1443.9,1291.6 1792.1,1469.6 
					1783.3,1431.9 1662.6,1305.5 1653.3,1255.2 1545.1,1145.1 1545.1,1083.6 				"/>
				<polygon fill="none" stroke="#FFFFFF" stroke-miterlimit="10" points="2042,821.8 2042,1044.6 2394.1,1202.6 2382.6,1168.9 
					2264.4,1063 2257.6,1019.5 2144.3,914.5 2133.1,862.8 				"/>
				<polygon fill="#878787" stroke="#FFFFFF" stroke-miterlimit="10" points="1792.1,1469.6 2394.1,1202.6 2382.6,1168.9 
					1783.3,1431.9 				"/>
				<polygon fill="#706F6F" stroke="#FFFFFF" stroke-miterlimit="10" points="2257.6,1019.5 1653.3,1255.2 1662.6,1305.5 
					2264.4,1063 				"/>
				<linearGradient id="SVGID_4_" gradientUnits="userSpaceOnUse" x1="1929.71" y1="1156.6283" x2="1861.71" y2="978.6283">
					<stop  offset="0" style="stop-color:#808080"/>
					<stop  offset="0.7574" style="stop-color:#333333"/>
				</linearGradient>
				<polygon fill="url(#SVGID_4_)" stroke="#FFFFFF" stroke-miterlimit="10" points="1545.1,1145.1 2144.3,914.5 2257.6,1019.5 
					1653.3,1255.2 				"/>
				<polygon fill="#9D9D9C" stroke="#FFFFFF" stroke-miterlimit="10" points="1662.6,1305.5 1783.3,1431.9 2382.6,1168.9 
					2264.4,1063 				"/>
				<polygon fill="#575756" stroke="#FFFFFF" stroke-miterlimit="10" points="1545.1,1145.1 2144.3,914.5 2133.1,862.8 
					1545.1,1083.6 				"/>
				<polygon fill="#3C3C3B" stroke="#FFFFFF" stroke-miterlimit="10" points="1420.1,1030.6 1545.1,1083.6 1669.1,1101.6 
					2267.7,881.6 2133.1,862.8 2042,821.8 				"/>
			</g>
		</g>
		<path fill="#C6C6C6" d="M4535.4,296v154.9l-3192,1646.8c0,0-491.6,231-491.6,453.5H288.7c0-375.6,731.1-640.6,731.1-640.6
			L4535.4,296z"/>
		<path fill="#575756" d="M4535.4,277.3V296L1019.8,1910.6c-3.8,5.8-658.8,249.3-719.3,640.6h-54.9
			c97.4-358.5,515.4-566.2,685.9-643.4L4535.4,277.3z"/>
		<path fill="#575756" d="M4536.7,430.3l-1.3,20.6L1313.6,2113c-347.4,223.2-418.6,438.2-418.6,438.2h-66.5
			c0,0,64.2-221.1,479.1-478.5L4536.7,430.3z"/>
		<path fill="#9D9D9C" d="M4536.7,430.3l-1.3,8L1352.3,2065.8c-123.6,77.9-393.8,252.8-485.3,485.3l-41.3,0
			c42.1-156.5,334-410,511.8-493.7L4536.7,430.3z"/>
		<g>
			<polygon fill="#9D9D9C" stroke="#FFFFFF" stroke-miterlimit="10" points="2485.1,1230.8 2454.8,1277.4 2688.5,1277.4 
				2709.1,1230.8 			"/>
			<rect x="2454.8" y="1277.4" fill="#9D9D9C" stroke="#FFFFFF" stroke-miterlimit="10" width="233.7" height="56.6"/>
			<polygon fill="#9D9D9C" stroke="#FFFFFF" stroke-miterlimit="10" points="2709.1,1230.8 2709.1,1282.4 2688.5,1334 
				2688.5,1277.4 			"/>
		</g>
		<g>
			<polygon fill="#9D9D9C" stroke="#FFFFFF" stroke-miterlimit="10" points="2219.8,1484.4 2394.1,1396.5 2455.6,1426.5 
				2283.1,1515 			"/>
			<polygon fill="#9D9D9C" stroke="#FFFFFF" stroke-miterlimit="10" points="2219.8,1484.4 2219.8,1528.7 2283.1,1560.3 
				2283.1,1515 			"/>
			<polygon fill="#9D9D9C" stroke="#FFFFFF" stroke-miterlimit="10" points="2283.1,1560.3 2455.6,1472.3 2455.6,1426.5 
				2283.1,1515 			"/>
		</g>
		<g>
			<g>
				<polygon fill="#706F6F" stroke="#FFFFFF" stroke-miterlimit="10" points="3777.7,841.8 3881.8,891.7 3881.8,828.6 3760.5,774.6 
					3777,801.4 				"/>
				<polygon fill="#878787" stroke="#FFFFFF" stroke-miterlimit="10" points="3952.3,752.2 4049.9,798.7 4049.9,739.8 3936.3,689.3 
					3951.7,714.3 				"/>
				<polygon fill="#575756" stroke="#FFFFFF" stroke-miterlimit="10" points="4049.9,798.7 3881.8,891.7 3881.8,828.6 4049.9,739.8 
									"/>
				<polygon fill="#B2B2B2" stroke="#FFFFFF" stroke-miterlimit="10" points="3999.8,705.6 3936.3,689.3 3760.5,774.6 3830,792 				
					"/>
				<polygon fill="#878787" stroke="#FFFFFF" stroke-miterlimit="10" points="3881.8,828.6 3830,792 3760.5,774.6 				"/>
				<polygon fill="#9D9D9C" stroke="#FFFFFF" stroke-miterlimit="10" points="3999.8,705.6 3830,792 3881.8,828.6 4049.9,739.8 				
					"/>
			</g>
			<g>
				<polygon fill="#706F6F" stroke="#FFFFFF" stroke-miterlimit="10" points="3580.2,945.6 3687.8,997.2 3687.8,932 3562.5,876.3 
					3579.6,903.9 				"/>
				<polygon fill="#878787" stroke="#FFFFFF" stroke-miterlimit="10" points="3760.6,853.1 3861.4,901.1 3861.4,840.3 3744,788.2 
					3760,814 				"/>
				<polygon fill="#575756" stroke="#FFFFFF" stroke-miterlimit="10" points="3861.4,901.1 3687.8,997.2 3687.8,932 3861.4,840.3 
									"/>
				<polygon fill="#B2B2B2" stroke="#FFFFFF" stroke-miterlimit="10" points="3809.7,805 3744,788.2 3562.5,876.3 3634.3,894.2 				
					"/>
				<polygon fill="#878787" stroke="#FFFFFF" stroke-miterlimit="10" points="3687.8,932 3634.3,894.2 3562.5,876.3 				"/>
				<polygon fill="#9D9D9C" stroke="#FFFFFF" stroke-miterlimit="10" points="3809.7,805 3634.3,894.2 3687.8,932 3861.4,840.3 				
					"/>
			</g>
			<g>
				<polygon fill="#706F6F" stroke="#FFFFFF" stroke-miterlimit="10" points="3367.3,1054.8 3482.1,1109.9 3482.1,1040.3 
					3348.4,980.9 3366.6,1010.3 				"/>
				<polygon fill="#878787" stroke="#FFFFFF" stroke-miterlimit="10" points="3559.8,956.1 3667.4,1007.4 3667.4,942.5 
					3542.1,886.8 3559.1,914.4 				"/>
				<polygon fill="#575756" stroke="#FFFFFF" stroke-miterlimit="10" points="3667.4,1007.4 3482.1,1109.9 3482.1,1040.3 
					3667.4,942.5 				"/>
				<polygon fill="#B2B2B2" stroke="#FFFFFF" stroke-miterlimit="10" points="3612.2,904.8 3542.1,886.8 3348.4,980.9 3425,1000 
									"/>
				<polygon fill="#878787" stroke="#FFFFFF" stroke-miterlimit="10" points="3482.1,1040.3 3425,1000 3348.4,980.9 				"/>
				<polygon fill="#9D9D9C" stroke="#FFFFFF" stroke-miterlimit="10" points="3612.2,904.8 3425,1000 3482.1,1040.3 3667.4,942.5 
									"/>
			</g>
			<g>
				<polygon fill="#706F6F" stroke="#FFFFFF" stroke-miterlimit="10" points="3136.2,1173 3258.8,1231.8 3258.8,1157.4 3116.1,1094 
					3135.4,1125.5 				"/>
				<polygon fill="#878787" stroke="#FFFFFF" stroke-miterlimit="10" points="3341.7,1067.6 3456.6,1122.3 3456.6,1053 
					3322.8,993.6 3341,1023 				"/>
				<polygon fill="#575756" stroke="#FFFFFF" stroke-miterlimit="10" points="3456.6,1122.3 3258.8,1231.8 3258.8,1157.4 
					3456.6,1053 				"/>
				<polygon fill="#B2B2B2" stroke="#FFFFFF" stroke-miterlimit="10" points="3397.6,1012.8 3322.8,993.6 3116.1,1094 
					3197.8,1114.4 				"/>
				<polygon fill="#878787" stroke="#FFFFFF" stroke-miterlimit="10" points="3258.8,1157.4 3197.8,1114.4 3116.1,1094 				"/>
				<polygon fill="#9D9D9C" stroke="#FFFFFF" stroke-miterlimit="10" points="3397.6,1012.8 3197.8,1114.4 3258.8,1157.4 
					3456.6,1053 				"/>
			</g>
			<g>
				<polygon fill="#706F6F" stroke="#FFFFFF" stroke-miterlimit="10" points="2894,1298.7 3022.5,1360.3 3022.5,1282.4 
					2872.8,1215.9 2893.2,1248.9 				"/>
				<polygon fill="#878787" stroke="#FFFFFF" stroke-miterlimit="10" points="3109.4,1188.2 3229.9,1245.6 3229.9,1172.9 
					3089.6,1110.6 3108.7,1141.5 				"/>
				<polygon fill="#575756" stroke="#FFFFFF" stroke-miterlimit="10" points="3229.9,1245.6 3022.5,1360.3 3022.5,1282.4 
					3229.9,1172.9 				"/>
				<polygon fill="#B2B2B2" stroke="#FFFFFF" stroke-miterlimit="10" points="3168.1,1130.7 3089.6,1110.6 2872.8,1215.9 
					2958.6,1237.3 				"/>
				<polygon fill="#878787" stroke="#FFFFFF" stroke-miterlimit="10" points="3022.5,1282.4 2958.6,1237.3 2872.8,1215.9 				"/>
				<polygon fill="#9D9D9C" stroke="#FFFFFF" stroke-miterlimit="10" points="3168.1,1130.7 2958.6,1237.3 3022.5,1282.4 
					3229.9,1172.9 				"/>
			</g>
			<g>
				<polygon fill="#706F6F" stroke="#FFFFFF" stroke-miterlimit="10" points="2638.2,1430.6 2775.4,1496.4 2775.4,1413.2 
					2615.6,1342.2 2637.3,1377.4 				"/>
				<polygon fill="#878787" stroke="#FFFFFF" stroke-miterlimit="10" points="2868.2,1312.6 2996.7,1373.9 2996.7,1296.3 
					2847.1,1229.8 2867.4,1262.8 				"/>
				<polygon fill="#575756" stroke="#FFFFFF" stroke-miterlimit="10" points="2996.7,1373.9 2775.4,1496.4 2775.4,1413.2 
					2996.7,1296.3 				"/>
				<polygon fill="#B2B2B2" stroke="#FFFFFF" stroke-miterlimit="10" points="2930.8,1251.3 2847.1,1229.8 2615.6,1342.2 
					2707.1,1365.1 				"/>
				<polygon fill="#878787" stroke="#FFFFFF" stroke-miterlimit="10" points="2775.4,1413.2 2707.1,1365.1 2615.6,1342.2 				"/>
				<polygon fill="#9D9D9C" stroke="#FFFFFF" stroke-miterlimit="10" points="2930.8,1251.3 2707.1,1365.1 2775.4,1413.2 
					2996.7,1296.3 				"/>
			</g>
			<g>
				<polygon fill="#878787" stroke="#FFFFFF" stroke-miterlimit="10" points="2361.8,1572.8 2508.2,1643 2508.2,1554.2 
					2337.7,1478.4 2360.9,1516 				"/>
				<polygon fill="#878787" stroke="#FFFFFF" stroke-miterlimit="10" points="2607.3,1446.8 2744.5,1512.2 2744.5,1429.4 
					2584.8,1358.4 2606.5,1393.6 				"/>
				<polygon fill="#575756" stroke="#FFFFFF" stroke-miterlimit="10" points="2744.5,1512.2 2508.2,1643 2508.2,1554.2 
					2744.5,1429.4 				"/>
				<polygon fill="#B2B2B2" stroke="#FFFFFF" stroke-miterlimit="10" points="2674.1,1381.4 2584.8,1358.4 2337.7,1478.4 
					2435.4,1502.8 				"/>
				<polygon fill="#878787" stroke="#FFFFFF" stroke-miterlimit="10" points="2508.2,1554.2 2435.4,1502.8 2337.7,1478.4 				"/>
				<polygon fill="#9D9D9C" stroke="#FFFFFF" stroke-miterlimit="10" points="2674.1,1381.4 2435.4,1502.8 2508.2,1554.2 
					2744.5,1429.4 				"/>
			</g>
		</g>
		<path fill="#9D9D9C" d="M4535.4,277.3v8.7L937.3,1923.6c-56.7,28.3-621.7,262.8-658.3,627.6h-36.5
			c34.5-234.4,186.3-410.3,672.4-636.5L4535.4,277.3z"/>
		<polygon fill="#575756" points="4030.4,505.7 4030.4,493.3 1754,1514.6 1754,1535.7 		"/>
	</g>
</g>
<g id="Ebene_4">
	<g>
		<polygon fill="#9D9D9C" stroke="#FFFFFF" stroke-miterlimit="10" points="1600.3,1656.1 1681,1512.2 1783.3,1512.2 1703.8,1656.1 
					"/>
		<rect x="1600.3" y="1656.1" fill="#9D9D9C" stroke="#FFFFFF" stroke-miterlimit="10" width="103.5" height="53"/>
		<polygon fill="#9D9D9C" stroke="#FFFFFF" stroke-miterlimit="10" points="1783.3,1512.2 1783.3,1570.3 1703.8,1709.1 
			1703.8,1656.1 		"/>
	</g>
	<g>
		<polygon fill="#9D9D9C" stroke="#FFFFFF" stroke-miterlimit="10" points="2998.1,1032.2 3172.5,944.3 3234,974.2 3061.5,1062.7 		
			"/>
		<polygon fill="#9D9D9C" stroke="#FFFFFF" stroke-miterlimit="10" points="2998.1,1032.2 2998.1,1076.5 3061.5,1108.1 
			3061.5,1062.7 		"/>
		<polygon fill="#9D9D9C" stroke="#FFFFFF" stroke-miterlimit="10" points="3061.5,1108.1 3234,1020 3234,974.2 3061.5,1062.7 		"/>
	</g>
	<g>
		<circle fill="#E30613" cx="2455.6" cy="1229.8" r="79.9"/>
		<g>
			<path fill="#FFFFFF" d="M2456.9,1244.3c5.7,0,9.8,4.2,9.8,9.8c0,5.5-4.2,9.7-9.8,9.7c-5.5,0-9.7-4.2-9.7-9.7
				C2447.2,1248.4,2451.4,1244.3,2456.9,1244.3z M2465,1237.1h-16.1l-1-47.9h18L2465,1237.1z"/>
		</g>
	</g>
	<g>
		<g>
			<circle fill="#E30613" cx="1743.5" cy="1493.4" r="79.9"/>
		</g>
		<g>
			<path fill="#FFFFFF" d="M1714.4,1493.9c1.1,0.8,2.2,1.6,3.5,2c1.5,0.5,3.2,0.5,4.4-0.3c2.1-1.4,2.3-4.3,1.9-6.8
				c-0.6-3.6-1.9-7.1-2.3-10.8c-0.4-4.3,1.1-8,4.4-10.6c2.3-1.8,5.4-2.9,8.4-2.7c-0.1,1-0.5,2.1-0.6,3.1c-0.3,3.2-0.2,4.9,1.9,7.6
				c2.9,3.8,9.4,3.6,9.7-2c0.1-2.2-0.8-4.3-1.8-6.2c-2.1-4-3.4-7.1-2.3-11.8c0.5-2,1.2-4,2.1-5.8c0.4-0.9,2.3-3.7,2.2-4.7
				c0.1,1.2,0.2,2.2,0.3,3.2c0.5,4.2,2.6,7.5,5.8,10.2c4.5,3.9,8.9,8.2,11.6,13.5c3.2,6.2,2,12.2,1.3,18.9c-0.2,2.5,1.6,1.1,2.5-0.1
				c2.1-2.6,3-7.3,6.2-8.9c0.9-0.5,1.8-0.7,2.9-0.6c0.6,0,3.6,1.2,3.8,1.1c-1.2,0.8-1.3,2.3-1.7,3.6c-0.7,1.8-1.6,3.6-2.2,5.5
				c-1.2,3.7-1.9,7.4-2.7,11.2c-2.2,9.8-7.1,18.9-16.4,23.6c-10.5,5.3-24.1,4.7-33.6-2.5c-8.9-6.7-12.9-19.4-9.7-30
				C1714.1,1493.7,1714.3,1493.8,1714.4,1493.9z"/>
		</g>
	</g>
</g>
<g id="Ebene_5">
	<path opacity="0.7" d="M1852.3,1248.6c0-30-19.8-55.4-47-63.8c0.8-4,1.3-8.2,1.3-12.4c0-29.9-21.6-54.7-50-59.7
		c0.4-2.7,0.7-5.4,0.7-8.2c0-1.4-0.1-2.8-0.2-4.1c15.1-6.5,26.8-19.4,31.6-35.3c3.9,1.1,8,1.7,12.3,1.7c24.4,0,44.1-19.8,44.1-44.1
		c0-14.1-6.6-26.6-16.8-34.6c0.3-2.2,0.5-4.4,0.5-6.6c0-7.8-2.2-15.1-6-21.4c3.8-6.4,6-13.9,6-21.9c0-15.9-8.5-29.7-21.2-37.3
		c6.2-8.4,9.9-18.7,9.9-29.9c0-18.1-9.6-34-24-42.8c4.7-7.3,7.5-16.1,7.5-25.4c0-19.7-12.1-36.6-29.3-43.6c0.2-1.7,0.3-3.5,0.3-5.3
		c0-22.7-18.4-41.2-41.2-41.2c-3.8,0-7.4,0.5-10.8,1.5c-9.1-6-20-9.5-31.7-9.5c-32.1,0-58.1,26-58.1,58.1c0,20.8,10.9,39,27.3,49.3
		c-7.8,9.3-12.6,21.2-12.6,34.3c0,4.6,0.6,9.1,1.7,13.3c-12.6,12.6-20.4,30-20.4,49.3c0,34.9,25.6,63.7,59,68.9
		c2.2,5.7,5.6,10.8,9.9,15c-0.4,0-0.8,0-1.2,0c-22.7,0-41,18.4-41,41c0,14.5,7.5,27.1,18.8,34.5c-9.6,9.2-15.5,22.1-15.5,36.4
		c0,11.5,3.8,22,10.2,30.5c-12.1,6.5-20.4,19.3-20.4,34c0,17,11,31.5,26.3,36.6c-0.3,2-0.4,4-0.4,6c0,2.1,0.2,4.1,0.4,6.1
		c-1,0-2-0.1-3-0.1c-32.1,0-58.1,26-58.1,58.1s26,58.1,58.1,58.1c5.7,0,11.2-0.8,16.4-2.4c-5.3,6.5-8.5,14.8-8.5,23.9
		c0,20.9,16.9,37.8,37.8,37.8c5.4,0,10.6-1.2,15.3-3.2c12.2,11.3,28.5,18.3,46.4,18.3c37.7,0,68.2-30.5,68.2-68.2
		c0-15.8-5.4-30.4-14.5-42C1844,1285.6,1852.3,1268.1,1852.3,1248.6z M1712.5,1317.5c-1,0.1-2.1,0.2-3.1,0.3
		c0.6-0.6,1.2-1.2,1.8-1.8c0.5,0.1,1.1,0.2,1.7,0.3C1712.7,1316.7,1712.6,1317.1,1712.5,1317.5z"/>
</g>
</svg>
