<?xml version="1.0" encoding="utf-8"?>
<!-- Generator: Adobe Illustrator 18.1.1, SVG Export Plug-In . SVG Version: 6.00 Build 0)  -->
<svg version="1.1" id="Ebene_3" xmlns="http://www.w3.org/2000/svg" xmlns:xlink="http://www.w3.org/1999/xlink" x="0px" y="0px"
	 viewBox="0 0 1588.1 951.7" enable-background="new 0 0 1588.1 951.7" xml:space="preserve">
<g>
	<path fill="none" stroke="#FFFFFF" stroke-width="6" stroke-miterlimit="10" d="M1381.8,633.8
		C1381.8,633.8,1381.8,633.8,1381.8,633.8c-1.6,0.4-51.3,14.7-61.5,42.8c-9.4,26-7,55.7-6.5,60.9c-18.1,10.5-32.5,12.3-32.5,12.3
		s-796.8-19.5-861.8-22.1c-65-2.6-109.2-28.6-109.2-28.6h-36.4v-20.8l-28.6-6.5l-20.8-29.2l-1.3-21.4c0,0-33.8-35.1-33.8-133.5
		c0-109.5,36.4-140.8,36.4-140.8l-6.5-14.3l26-39h29.5l0.3-19.1l28.8,0c0,0,27.3-16,94.9-29c67.6-13,885.2-24.7,903.4-18.2
		c2.7,1,5.8,2.4,9.1,4.4c0,0-4,52.8,19.8,77.4c17.9,18.5,50.8,28.1,50.8,28.1c12,43.4,16.5,92.9,16.5,125.3
		C1398.3,499.3,1402.9,552,1381.8,633.8z"/>
	<path fill="none" stroke="#FFFFFF" stroke-width="6" stroke-miterlimit="10" d="M1381.8,337.3c0,0-32.9-9.6-50.8-28.1
		c-23.8-24.7-19.8-77.4-19.8-77.4c19.1,11.3,46.9,39.1,62.4,80C1376.7,319.9,1379.4,328.5,1381.8,337.3z"/>
	<path fill="none" stroke="#FFFFFF" stroke-width="6" stroke-miterlimit="10" d="M1381.8,633.9c-1.3,5.2-2.8,10.5-4.3,16
		c-14.2,49.8-41.7,75.1-63.7,87.8c-0.5-5.2-2.9-34.9,6.5-60.9C1330.6,648.5,1380.3,634.3,1381.8,633.9z"/>
	<path fill="none" stroke="#FFFFFF" stroke-width="2" stroke-miterlimit="10" d="M1313.9,738.4c0,0,0-0.3-0.1-0.8"/>
	<path fill="none" stroke="#FFFFFF" stroke-width="2" stroke-miterlimit="10" d="M1381.8,633.8
		C1381.8,633.8,1381.8,633.8,1381.8,633.8"/>
	<path fill="none" stroke="#FFFFFF" stroke-width="2" stroke-miterlimit="10" d="M989.9,419.7h-56.7c-1.6,0-2.8-1.3-2.8-2.8v-47.1
		c0-1.6,1.3-2.8,2.8-2.8h56.7c1.6,0,2.8,1.3,2.8,2.8v47.1C992.7,418.5,991.5,419.7,989.9,419.7z"/>
	<path fill="none" stroke="#FFFFFF" stroke-width="2" stroke-miterlimit="10" d="M989.9,566.6h-56.7c-1.6,0-2.8-1.3-2.8-2.8v-47.1
		c0-1.6,1.3-2.8,2.8-2.8h56.7c1.6,0,2.8,1.3,2.8,2.8v47.1C992.7,565.3,991.5,566.6,989.9,566.6z"/>
	<path fill="none" stroke="#FFFFFF" stroke-width="2" stroke-miterlimit="10" d="M958.7,495.1h-25.5c-1.6,0-2.8-1.3-2.8-2.8v-47.1
		c0-1.6,1.3-2.8,2.8-2.8h25.5c1.6,0,2.8,1.3,2.8,2.8v47.1C961.5,493.9,960.3,495.1,958.7,495.1z"/>
	<ellipse fill="none" stroke="#FFFFFF" stroke-width="2" stroke-miterlimit="10" cx="1298.9" cy="490.1" rx="73.3" ry="87.3"/>
	<ellipse fill="none" stroke="#FFFFFF" stroke-width="2" stroke-miterlimit="10" cx="273.3" cy="451.7" rx="80.5" ry="87.3"/>
	<path fill="none" stroke="#FFFFFF" stroke-miterlimit="10" d="M1390.9,374.2c0,0-2.6,1.7-5.2,116.1c-2.6,114.4,3.5,106.6,3.5,106.6
		"/>
	<path fill="none" stroke="#FFFFFF" stroke-width="2" stroke-miterlimit="10" d="M1350.2,346.9c-88.4,0-206.7,3.9-380.9-62.4"/>
	<path fill="none" stroke="#FFFFFF" stroke-width="2" stroke-miterlimit="10" d="M1345,624.7c0,0-115.3,0-200.2,14.7
		c-84.9,14.7-164.7,48.5-164.7,48.5"/>
	<path fill="none" stroke="#FFFFFF" stroke-width="2" stroke-miterlimit="10" d="M825.2,461.7H613.3c-10.6,0-19.4-8.7-19.4-19.4
		V310.9c0-10.6,8.7-19.4,19.4-19.4h211.8c10.6,0,19.4,8.7,19.4,19.4v131.5C844.5,453,835.8,461.7,825.2,461.7z"/>
	<path fill="none" stroke="#FFFFFF" stroke-width="2" stroke-miterlimit="10" d="M211.5,603h232.6c0,0,59.7,40.3,119.5,40.3"/>
	<path fill="none" stroke="#FFFFFF" stroke-width="2" stroke-miterlimit="10" d="M207.3,593.9l17.1-7.8h222.3
		c0,0,57.1-36.4,119.5-37.7"/>
	<line fill="none" stroke="#FFFFFF" stroke-width="2" stroke-miterlimit="10" x1="565" y1="232.5" x2="565" y2="734.3"/>
	<line fill="none" stroke="#FFFFFF" stroke-width="2" stroke-miterlimit="10" x1="908.2" y1="226" x2="908.2" y2="740.8"/>
	<path fill="none" stroke="#FFFFFF" stroke-width="2" stroke-miterlimit="10" d="M594,310.9c0,0-54.9,49-169.3,47.7
		c-114.4-1.3-162.5-26-162.5-26"/>
	<polygon fill="none" stroke="#FFFFFF" stroke-width="6" stroke-miterlimit="10" points="245.3,671.9 220.8,671.9 213.4,642.7 
		224.5,642.7 	"/>
	<polygon fill="none" stroke="#FFFFFF" stroke-width="6" stroke-miterlimit="10" points="240.9,300.1 220.8,300.1 213.4,329.4 
		221.4,329.4 	"/>
	<path fill="none" stroke="#FFFFFF" stroke-width="4" stroke-miterlimit="10" d="M650,489.5l134.3-4.3c0,0,49.4,3.5,58.9,39
		s6.7,92.6-8.1,114.3c-14.7,21.7-29.2,41.7-61.3,46.9c-32.1,5.2-87.5,6.1-117,2.6s-79.7-39.9-79.7-39.9V551
		C577.2,551,591.9,495.6,650,489.5z"/>
	<path fill="none" stroke="#FFFFFF" stroke-width="2" stroke-miterlimit="10" d="M577.2,561.4c0,0,76.3-42.5,138.7-50.3
		c62.4-7.8,81.3,1.3,91.9,15.6c25.1,33.8,19.1,68.5,19.1,68.5s1.7,48.5-38.1,64.1s-97.9,8.7-117.9,4.3s-58.1-24.3-58.1-24.3h-35.5"
		/>
	<ellipse fill="none" stroke="#FFFFFF" stroke-width="4" stroke-miterlimit="10" cx="800.7" cy="588.1" rx="11.8" ry="46"/>
	<g>
		<path fill="#FFFFFF" d="M298.3,469.7c7.6-2.4,12.2-7.5,12.2-16.1c0-14.2-17.6-23.5-35.3-23.5h-1.9c7.9,3.8,13.6,13,13.6,24.2
			c0,21.3-16.4,34.1-35.1,34.1c-19.3,0-35.8-13-35.8-36c0-12.9,6.2-24.7,20.3-31.7c9.3-4.5,19-6.3,32-6.3
			c32.9,0,56.9,15.1,56.9,39.3c0,19.2-9.8,29.7-26.9,34V469.7z M230.9,452.6c0,11.7,8.3,19.6,20.5,19.6c12.6,0,21-7.9,21-19.6
			c0-12-8.3-19.9-21-19.9C239.2,432.6,230.9,440.5,230.9,452.6z"/>
	</g>
	<g>
		<path fill="#FFFFFF" d="M1272.3,476.4c-7.6,2.4-12.2,7.5-12.2,16.1c0,14.2,17.6,23.5,35.3,23.5h1.9c-7.9-3.8-13.6-13-13.6-24.2
			c0-21.3,16.4-34.1,35.1-34.1c19.3,0,35.8,13,35.8,36c0,12.9-6.2,24.7-20.3,31.7c-9.3,4.5-19,6.3-32,6.3
			c-32.9,0-56.9-15.1-56.9-39.3c0-19.2,9.8-29.7,26.9-34V476.4z M1339.7,493.5c0-11.7-8.3-19.6-20.5-19.6c-12.6,0-21,7.9-21,19.6
			c0,12,8.3,19.9,21,19.9C1331.4,513.4,1339.7,505.5,1339.7,493.5z"/>
	</g>
</g>
</svg>
