<?xml version="1.0" encoding="utf-8"?>
<!-- Generator: Adobe Illustrator 18.1.1, SVG Export Plug-In . SVG Version: 6.00 Build 0)  -->
<svg version="1.1" id="Ebene_5" xmlns="http://www.w3.org/2000/svg" xmlns:xlink="http://www.w3.org/1999/xlink" x="0px" y="0px"
	 viewBox="0 0 1489.9 525.5" enable-background="new 0 0 1489.9 525.5" xml:space="preserve">
<g>
	<g>
		<rect x="0" y="32.1" fill="#EDEDED" width="1489.9" height="461.4"/>
		<g>
			<rect x="1208.8" y="397.6" fill="#B2B2B2" width="9.9" height="89.8"/>
			<rect x="1218.7" y="397.6" fill="#B2B2B2" width="9.9" height="9.9"/>
			<rect x="1218.7" y="477.5" fill="#B2B2B2" width="9.9" height="9.9"/>
		</g>
		<g>
			<rect x="1447.7" y="397.6" fill="#B2B2B2" width="9.9" height="89.8"/>
			<rect x="1437.8" y="477.5" fill="#B2B2B2" width="9.9" height="9.9"/>
			<rect x="1437.8" y="397.6" fill="#B2B2B2" width="9.9" height="9.9"/>
		</g>
		<g>
			<path fill="#B2B2B2" d="M1301.5,420c4.1,0,7.9,0.7,10.7,2.9c2.9,2.3,4.8,5.9,4.8,12.3c0,6.2-1.7,10.2-4.8,12.6
				c-2.7,2.1-6.3,3-11.1,3h-6.3v13.6h-10.4V420H1301.5z M1294.9,441.9h6c2.1,0,3.3-0.4,4.1-1.2c1-0.9,1.2-2.6,1.2-5.3
				c0-3.3-0.5-4.8-1.4-5.5c-0.9-0.8-2.1-1-4.1-1h-5.8V441.9z"/>
			<path fill="#B2B2B2" d="M1337.7,414.7c3.4,0,5.9,2.6,5.9,6s-2.5,6-5.9,6c-3.3,0-5.9-2.6-5.9-6S1334.3,414.7,1337.7,414.7z
				 M1342.8,431.6v32.8h-10.1v-32.8H1342.8z"/>
			<path fill="#B2B2B2" d="M1381.5,463.9c-2.1,0.5-4.4,0.8-6.9,0.8c-9.1,0-11.6-4.5-11.6-12.5v-11.3h-4.8v-8.7h4.8v-9l10.1-0.9v9.9
				h8.1v8.7h-8.1v10.5c0,3.4,0.1,4.5,3.7,4.5c1.2,0,2.9-0.1,4.2-0.5L1381.5,463.9z"/>
		</g>
	</g>
	<g>
		<g>
			<line fill="none" stroke="#706F6F" stroke-width="8" stroke-miterlimit="10" x1="582.8" y1="174.6" x2="680.3" y2="96.1"/>
			<g>
				<polygon fill="#706F6F" points="681,122.2 674.9,100.5 655,89.8 706.3,75.2 				"/>
			</g>
		</g>
	</g>
	<rect x="0" y="0" fill="#0098A1" width="1489.9" height="32.1"/>
	<rect x="0" y="493.5" fill="#0098A1" width="1489.9" height="32.1"/>
	<g>
		<path fill="#135729" d="M1013.4,415.6C1013.4,415.6,1013.4,415.6,1013.4,415.6c-0.3,0-8.8,0.4-11.6,4.5c-2.5,3.8-3.3,8.7-3.4,9.5
			c-3.3,1-5.7,0.7-5.7,0.7s-127.5-34.3-137.8-37.2c-10.4-3-16.5-8.9-16.5-8.9l-5.9-1.4l0.8-3.3l-4.3-2.2l-2.2-5.5l0.6-3.5
			c0,0-4.1-7-0.2-22.8c4.3-17.6,11.4-21.2,11.4-21.2l-0.5-2.6l5.7-5.3l4.7,1.2l0.8-3.1l4.6,1.1c0,0,5-1.5,16.4-1
			c11.4,0.5,143.4,30.6,146.1,32.4c0.4,0.3,0.8,0.6,1.3,1.1c0,0-2.7,8.3,0.2,13.2c2.2,3.7,7.1,6.5,7.1,6.5c0.2,7.4-1,15.6-2.2,20.8
			C1021.3,394.6,1019.9,403.3,1013.4,415.6z"/>
		<path fill="#9D9D9C" d="M1024.9,367.9c0,0-4.9-2.8-7.1-6.5c-2.9-4.9-0.2-13.2-0.2-13.2c2.6,2.6,6,8.1,6.9,15.3
			C1024.8,364.9,1024.9,366.4,1024.9,367.9z"/>
		<path fill="#9D9D9C" d="M1013.4,415.6c-0.4,0.8-0.9,1.6-1.3,2.4c-4.2,7.5-9.6,10.5-13.7,11.6c0.1-0.9,0.9-5.7,3.4-9.5
			C1004.5,416,1013.1,415.6,1013.4,415.6z"/>
		<path fill="none" stroke="#FFFFFF" stroke-width="2" stroke-miterlimit="10" d="M998.4,429.8c0,0,0,0,0-0.1"/>
		<path fill="none" stroke="#FFFFFF" stroke-width="2" stroke-miterlimit="10" d="M1013.4,415.6
			C1013.4,415.6,1013.4,415.6,1013.4,415.6"/>
		
			<rect x="950" y="356.1" transform="matrix(0.9718 0.2358 -0.2358 0.9718 111.9665 -215.093)" fill="#FFFFFF" width="10.3" height="8.7"/>
		
			<rect x="944.2" y="379.8" transform="matrix(0.9718 0.2358 -0.2358 0.9718 117.3788 -213.0735)" fill="#FFFFFF" width="10.3" height="8.7"/>
		
			<rect x="947.1" y="367.7" transform="matrix(0.9718 0.2358 -0.2358 0.9718 114.53 -213.4817)" fill="#FFFFFF" width="5.2" height="8.7"/>
		
			<ellipse transform="matrix(-0.9718 -0.2358 0.2358 -0.9718 1891.094 1004.683)" fill="#FFFFFF" cx="1005.6" cy="389.2" rx="12.1" ry="14.4"/>
		
			<ellipse transform="matrix(-0.9718 -0.2358 0.2358 -0.9718 1579.5651 874.9528)" fill="#FFFFFF" cx="842.1" cy="343" rx="13.3" ry="14.4"/>
		<path fill="none" stroke="#FFFFFF" stroke-miterlimit="10" d="M1025,374.2c0,0-0.5,0.2-5.4,18.5c-4.9,18.3-3.6,17.3-3.6,17.3"/>
		<path fill="none" stroke="#FFFFFF" stroke-miterlimit="10" d="M1019.5,368.2c-14.2-3.5-33.4-7.4-58.8-24.9"/>
		<path fill="none" stroke="#FFFFFF" stroke-miterlimit="10" d="M1007.8,412.7c0,0-18.5-4.5-32.8-5.4s-28.4,1.4-28.4,1.4"/>
		<path fill="none" stroke="#FFFFFF" stroke-miterlimit="10" d="M920.4,363.7l-13.8-3.3c-7.3-1.8-11.8-9.2-10.1-16.5l0.2-0.8
			c1.8-7.3,9.2-11.8,16.5-10.1l13.8,3.3c7.3,1.8,11.8,9.2,10.1,16.5l-0.2,0.8C935.1,361,927.7,365.5,920.4,363.7z"/>
		<path fill="none" stroke="#FFFFFF" stroke-miterlimit="10" d="M826.3,365l37.4,9.1c0,0,8,8.8,17.7,11.2"/>
		<path fill="none" stroke="#FFFFFF" stroke-miterlimit="10" d="M825.9,363.3l3.1-0.6l35.8,8.7c0,0,10.6-3.6,20.7-1.4"/>
		<line fill="none" stroke="#FFFFFF" stroke-miterlimit="10" x1="897.6" y1="319.1" x2="878" y2="399.9"/>
		<line fill="none" stroke="#FFFFFF" stroke-miterlimit="10" x1="953.1" y1="331.5" x2="933" y2="414.3"/>
		<path fill="none" stroke="#FFFFFF" stroke-miterlimit="10" d="M899.2,332.9c0,0-10.8,5.7-29.1,1.1c-18.4-4.7-25.1-10.5-25.1-10.5"
			/>
		<polygon fill="#E30613" points="829,377.4 825.1,376.4 825,371.4 826.8,371.8 		"/>
		<polygon fill="#E30613" points="842.8,317.4 839.6,316.6 837.3,321 838.5,321.3 		"/>
		<path fill="none" stroke="#FFFFFF" stroke-miterlimit="10" d="M901.2,363.8l21.8,4.5c0,0,7.8,2.5,8,8.6s-2.5,15.2-5.8,18.1
			c-3.2,2.9-6.3,5.6-11.7,5.2s-14.3-2.4-18.9-4.2c-4.6-1.7-11.3-9.5-11.3-9.5l3.8-15.6C887.1,370.9,891.7,362.5,901.2,363.8z"/>
		<path fill="#3C3C3B" d="M886.7,372.5c0,0,13.9-3.9,24.3-2.7c10.3,1.2,13,3.4,14.2,6.1c2.7,6.4,0.4,11.8,0.4,11.8s-1.6,7.9-8.6,8.8
			s-16.1-2.4-19.1-3.9c-3-1.5-8.4-6.2-8.4-6.2l-5.7-1.4"/>
		
			<ellipse transform="matrix(-0.9718 -0.2358 0.2358 -0.9718 1726.3425 977.6116)" fill="#FFFFFF" cx="921.6" cy="385.6" rx="2" ry="7.6"/>
		<text transform="matrix(-0.2349 0.9678 -0.9718 -0.2358 834.841 333.8026)" font-family="'Calibre-Medium'" font-size="28.5277">6</text>
		<text transform="matrix(0.2349 -0.9678 0.9718 0.2358 1012.4092 399.1405)" font-family="'Calibre-Medium'" font-size="28.5277">6</text>
	</g>
	<g>
		<path fill="none" stroke="#E30613" stroke-width="2" stroke-miterlimit="10" d="M550.4,219.3"/>
		<path fill="#9D9D9C" d="M746.8,204.7l-1.8-13.2c2.3,0.9,3.9,2.3,4.2,4.6C750.5,205.2,746.8,204.7,746.8,204.7z"/>
		<path fill="#9D9D9C" d="M757,259.6c0.4,6.3-2.5,7.7-2.5,7.7c-0.1,0-0.1,0.1-0.2,0.1l-1.8-15C752.9,252.5,756.6,253.6,757,259.6z"
			/>
		<path fill="#343970" d="M752.6,248.3c0,2.5,0,4.4,0,4.9l0,0c0,0.1,0,0.1,0,0.1s0,0,0,0l1.7,14c-5.3,2.9-8.6,3.5-19.2,4.8
			c-10.7,1.3-38,5.5-44.4,5.8c-6.5,0.3-41.3,4.2-52.6,5.9c-11.3,1.7-52,7.2-60.1,6.8c-8.1-0.4-18.8-0.2-19.5-4.3
			c-0.7-3.6,0.5-4.5,0.5-4.5s-3.4-20.2-4.4-29c-1.1-8.8-1.7-20.9-1.7-20.9c0.2-7.2,0-7.1,0-7.1s-2.1-2-2.3-4.4
			c-0.3-2.4,1.6-7.7,20.3-10.9c0,0,53.1-5.4,72.7-8.4c20-3,67.2-8.9,81.8-10.1c0,0,12.9-2.3,19.7,0.5l1.7,12.7c0,0,0.6,2.5,1.3,6.1
			c-0.5,0-2.2-0.1-2.6,1c-0.4,1.3-2.5,10-0.3,22.3c2.3,12.3,5.2,14.8,6.1,14.7C751.9,248.3,752.3,248.3,752.6,248.3z"/>
		<path fill="none" stroke="#FFFFFF" stroke-miterlimit="10" d="M752.7,253.3l0-0.1l0,0c-33.5,3.3-71.3,11.5-92.7,18.8"/>
		<polygon fill="#FFFFFF" points="685,264.9 680.9,265.9 674,208.8 678.2,208.7 		"/>
		<path fill="none" stroke="#FFFFFF" stroke-miterlimit="10" d="M648.4,276.2l-27.4,3.6c-11.6,1.7-10.3-8.6-12.9-31.9
			c-2.7-23.3-4.7-36.1,5.3-37.1l26.7-3.1"/>
		<path fill="none" stroke="#FFFFFF" stroke-miterlimit="10" d="M553.4,224.9c0,0,7.2,2.9,26.4-1.7c19.3-4.6,24.3-7.9,24.3-7.9"/>
		<path fill="none" stroke="#FFFFFF" stroke-miterlimit="10" d="M558.5,280.9c0,0,9.9-5.4,28.1-5.7c18.1-0.2,24.5,2.4,24.5,2.4"/>
		
			<rect x="551.6" y="225.2" transform="matrix(0.9927 -0.1202 0.1202 0.9927 -23.4379 68.1261)" fill="#E30613" width="2.7" height="6.2"/>
		
			<rect x="557.5" y="273.9" transform="matrix(0.9927 -0.1202 0.1202 0.9927 -29.2482 69.188)" fill="#E30613" width="2.7" height="6.2"/>
		
			<ellipse transform="matrix(-0.9927 0.1202 -0.1202 -0.9927 1176.5034 429.9587)" fill="#FFFFFF" cx="575.3" cy="250.5" rx="13.8" ry="17.7"/>
		
			<ellipse transform="matrix(-0.9927 0.1202 -0.1202 -0.9927 1485.7106 373.0667)" fill="#FFFFFF" cx="731.6" cy="231.3" rx="15.1" ry="17.6"/>
		<path fill="#9D9D9C" d="M752.6,248.3c-0.3,0-0.8,0-1.3,0.1c-0.9,0.1-3.8-2.4-6.1-14.7c-2.3-12.3-0.2-21,0.3-22.3
			c0.4-1.1,2.1-1,2.6-1c1.2,5.7,2.9,14.1,3.6,19C752.3,234.5,752.5,242.9,752.6,248.3z"/>
		<path fill="#9D9D9C" d="M738.6,222.4l2.1,14.8c0,0,1.4-3.8,1.2-5.2c-0.2-1.3,1.1-1.5,0.9-2.7c-0.1-1.2-1.5-1.3-1.7-2.3
			C741.1,226.1,739.9,223.4,738.6,222.4z"/>
		<path fill="none" stroke="#FFFFFF" stroke-miterlimit="10" d="M561.6,230.1c0,0,20.6-2.3,25.8-4.3c5.2-2,7.2,3.1,7.7,7.2
			c0,0,3.3,26,3.2,31.1c-0.1,5.2-0.5,7-6.9,7c-6.4,0-19.5,0.4-23.7,1.5s-6-2.1-6.5-5.3c-0.5-3.1-4.4-27.5-3.5-32.3
			C558.6,230.3,561.6,230.1,561.6,230.1z"/>
		<g>
			
				<ellipse transform="matrix(-0.9927 0.1202 -0.1202 -0.9927 1307.7922 441.2337)" fill="#FFFFFF" cx="640.6" cy="260.1" rx="2.1" ry="8.1"/>
		</g>
		<path fill="none" stroke="#FFFFFF" stroke-miterlimit="10" d="M746.7,204.2c-26.7,3.2-74.5,5.4-93.8,4.5"/>
		<path fill="#9D9D9C" d="M635,209.9l7.7-5.3c0,0,9.1,14,11.6,37.1c2.4,22.1-2.3,37.2-2.3,37.2l-9.4-3.6c0,0,3.8-15.9,1.3-32.9
			C641.5,225.5,635,209.9,635,209.9z"/>
		<text transform="matrix(-0.1197 -0.9887 0.9927 -0.1202 738.6359 240.1762)"><tspan x="0" y="0" font-family="'Calibre-Medium'" font-size="20.7761">2</tspan><tspan x="9.3" y="0" font-family="'Calibre-Medium'" font-size="20.7761">6</tspan></text>
		<text transform="matrix(0.1197 0.9887 -0.9927 0.1202 567.9973 241.3604)"><tspan x="0" y="0" font-family="'Calibre-Medium'" font-size="20.7761">2</tspan><tspan x="9.3" y="0" font-family="'Calibre-Medium'" font-size="20.7761">6</tspan></text>
	</g>
	<g>
		<polygon fill="#8C9699" points="489.5,236.4 482.2,243 480.3,241 487.5,234.4 		"/>
		<polygon fill="#8C9699" points="481.8,235.5 474.5,242.2 472.6,240.2 479.8,233.6 		"/>
		<polygon fill="#8C9699" points="478.4,155.6 469.7,151.1 468.3,153.6 477.1,158 		"/>
		<polygon fill="#8C9699" points="471.3,158.4 462.5,154 461.1,156.4 469.9,160.9 		"/>
		<polygon fill="#BE1622" points="375.1,244.6 371.1,244.3 363.7,234.5 364.9,232.9 		"/>
		<polygon fill="#BE1622" points="366.1,178.3 360,191.6 358.2,190.7 362.4,179.5 		"/>
		<path fill="#858FA1" d="M563.6,209.2c0,0,3.1,2.9,3.3,7c0.3,5.7-5.5,9.9-17.5,12.9l-0.2,0c0,0-122.6,16.3-139.2,19.5
			c-16.8,3.3-34.9-4-34.9-4l-10.2-11.7c0,0-4.1-10-5.5-20.1c-1.6-11.5,0.6-21.2,0.6-21.2l6.1-13.2c0,0,16.2-11.5,32.6-12.9
			c17.1-1.4,126.9-17.4,134.8-18.3c7.9-0.9,23.5,0.3,24.7,6.5c0.9,5.1-1,9-1,9c5,1.2,6.3,10.3,7.9,21.6
			C566.5,195.5,568,206.2,563.6,209.2z"/>
		<path fill="#DADADA" d="M549.9,218.7c0.6,4.6,1.2,10.9,11.6,4.7c6.1-3.6,5.3-8.7,2.2-11.2c-1.6-1.3-4-1.4-6.2-1.2
			C553.4,211.6,549.1,212.7,549.9,218.7z"/>
		<path fill="#DADADA" d="M541.5,157c-0.7-4.6-1.7-10.8,9.9-7.7c6.9,1.9,7.5,7,5.1,10.2c-1.2,1.7-3.4,2.4-5.6,2.8
			C546.8,162.9,542.4,163,541.5,157z"/>
		<path fill="none" stroke="#E30613" stroke-miterlimit="10" d="M489.1,194.3"/>
		<path fill="none" stroke="#FFFFFF" stroke-miterlimit="10" d="M519.3,216.4c-5.9,1.6-24.5,7.2-27.8,5c-3.3-2.2-0.4-13.7-1.7-24.9
			c-1.3-11.6-7.7-23.9-5.6-26.9s17.9-2.6,29.1-2.5c14.2,0,39.9-2.9,43.2-0.3c3.3,2.6,4.4,5.7,5.5,16.2c1.1,10.5,4.4,20.2-2.3,23.5
			C553.1,209.8,525.2,214.8,519.3,216.4z"/>
		
			<ellipse transform="matrix(-0.9909 0.1345 -0.1345 -0.9909 1109.5679 300.5519)" fill="#FFFFFF" cx="544.6" cy="187.8" rx="13.2" ry="14.1"/>
		<path fill="none" stroke="#FFFFFF" stroke-miterlimit="10" d="M563.6,209.2c-11,1.2-54.8,14.5-67.8,19.4"/>
		<path fill="none" stroke="#FFFFFF" stroke-miterlimit="10" d="M557.1,162.6c-16,1.5-65.8,0.1-72.1-1.3"/>
		<path fill="none" stroke="#FFFFFF" stroke-miterlimit="10" d="M460.1,188.5c0,0,3.6,26.3,4.5,33.4c1,7.1-11.9,12.4-11.9,12.4"/>
		<path fill="#3C3C3B" d="M424.5,178.6l3.7,27c0,0,3.1,7.9,21.6,4.3s18.3-13.7,18.3-13.7s0.4-15.5-5-20c-6.5-5.4-11.7-4.6-16-4
			C439.5,173.1,424.5,178.6,424.5,178.6z"/>
		<path fill="none" stroke="#FFFFFF" stroke-miterlimit="10" d="M424.6,233.2l-23.4,3.2c-2.2,0.3-5.1-4.7-5.4-6.8L390,187
			c-0.3-2.1,1.5-7.7,3.7-8l23.1-3.1c2.2-0.3,4.1,1.2,4.4,3.2L428,229C428.3,231,426.8,232.9,424.6,233.2z"/>
		<path fill="none" stroke="#FFFFFF" stroke-miterlimit="10" d="M372.7,237c17.4-0.3,48.8,1.1,56.7,2.9"/>
		<path fill="none" stroke="#FFFFFF" stroke-miterlimit="10" d="M366.4,185.8c0.3,0.4,47.7-13.5,53-17.2"/>
		<path fill="none" stroke="#FFFFFF" stroke-miterlimit="10" d="M362.7,212.1c1.4,8.5,3.1,14.5,4.2,17c1.1,2.5,0.8,3.7,5.7,4.3
			s15,2.4,17.8,1.4c0,0,3.6-1,3.6-3.9c0-2.9-4.4-17.1-4.9-22.2c-0.5-5.1-0.5-19.7-1-21.6c-0.4-2-2.4-3.5-4.3-3.2
			c-1.9,0.3-5.9,1.4-9,2.6c-3.1,1.2-10.3,3.4-11.7,6.2C361.1,196.5,362.7,212.1,362.7,212.1z"/>
		<path fill="none" stroke="#FFFFFF" stroke-miterlimit="10" d="M421.8,185.5c0,0-30.4,5.9-29.6,11.9c0.9,6.9,31.8,4.3,31.8,4.3"/>
		
			<ellipse transform="matrix(-0.9909 0.1345 -0.1345 -0.9909 777.2145 368.6197)" fill="#FFFFFF" cx="376.2" cy="210.6" rx="13.2" ry="14.1"/>
		<path fill="none" stroke="#FFFFFF" stroke-miterlimit="10" d="M421.5,170.7l8.2,60.2c0,0,2.2,6.9,15,4.7s22.7-3.2,26.1-8.7
			c3.4-5.5,0.7-17.5,0.7-17.5s-2.9-32.1-5-38c-2.1-6-11.5-5.3-11.5-5.3L421.5,170.7z"/>
		
			<ellipse transform="matrix(-0.9909 0.1345 -0.1345 -0.9909 947.2967 310.391)" fill="#FFFFFF" cx="463.2" cy="187.2" rx="2.2" ry="8"/>
		<path fill="#9D9D9C" d="M458.1,171.1c0,0,7.5,5.8,9.1,17.1c1.5,11.2-4.3,18.4-4.3,18.4s4.5,0.1,7.3-5c3.6-6.5,0-22.5-1.9-24.8
			C464.7,170.6,458.1,171.1,458.1,171.1z"/>
		<text transform="matrix(0.134 0.9869 -0.9909 0.1345 368.6794 201.1224)" font-family="'Calibre-Medium'" font-size="20.7761">20</text>
		<text transform="matrix(-0.134 -0.9869 0.9909 -0.1345 552.2847 197.2805)" font-family="'Calibre-Medium'" font-size="20.7761">20</text>
	</g>
	<g>
		<g>
			<line fill="none" stroke="#706F6F" stroke-width="8" stroke-miterlimit="10" x1="1037.7" y1="398.4" x2="1129" y2="421.8"/>
			<g>
				<polygon fill="#706F6F" points="1108.6,438 1122.3,420.1 1119,397.8 1161.4,430.1 				"/>
			</g>
		</g>
	</g>
	<path fill="none" stroke="#E30613" stroke-width="8" stroke-miterlimit="10" d="M691,332.8"/>
	<g>
		<g>
			<line fill="none" stroke="#706F6F" stroke-width="8" stroke-miterlimit="10" x1="198.9" y1="403.1" x2="386.3" y2="403.1"/>
			<g>
				<polygon fill="#706F6F" points="370.5,423.9 379.4,403.1 370.5,382.4 419.7,403.1 				"/>
			</g>
		</g>
	</g>
	<g>
		<g>
			<line fill="none" stroke="#706F6F" stroke-width="8" stroke-miterlimit="10" x1="767.8" y1="225.3" x2="842.1" y2="225.3"/>
			<g>
				<polygon fill="#706F6F" points="826.4,246 835.2,225.3 826.4,204.5 875.6,225.3 				"/>
			</g>
		</g>
	</g>
	<g>
		<circle fill="#E30613" cx="557.5" cy="215.3" r="32.5"/>
		<g>
			<path fill="#FFFFFF" d="M558,221.2c2.3,0,4,1.7,4,4c0,2.3-1.7,3.9-4,3.9c-2.3,0-3.9-1.7-3.9-3.9
				C554.1,222.9,555.8,221.2,558,221.2z M561.3,218.3h-6.6l-0.4-19.5h7.3L561.3,218.3z"/>
		</g>
	</g>
	<g>
		<defs>
			<rect id="SVGID_1_" x="0" y="344.3" width="193.5" height="111.3"/>
		</defs>
		<clipPath id="SVGID_2_">
			<use xlink:href="#SVGID_1_"  overflow="visible"/>
		</clipPath>
		<g clip-path="url(#SVGID_2_)">
			<polygon fill="#8C9699" points="101.4,441 93.3,446.6 91.6,444.3 99.7,438.7 			"/>
			<polygon fill="#8C9699" points="93.9,439.1 85.8,444.7 84.1,442.5 92.2,436.9 			"/>
			<polygon fill="#8C9699" points="101.3,359.4 93.2,353.8 91.5,356.1 99.6,361.7 			"/>
			<polygon fill="#8C9699" points="93.8,361.3 85.7,355.7 84,357.9 92.1,363.5 			"/>
			<path fill="#858FA1" d="M178.5,424c0,0,2.6,3.3,2.3,7.4c-0.4,5.7-6.8,9.1-19.1,10.4l-0.2,0c0,0-123.7-0.4-140.6,0.6
				c-17.1,1-34-8.6-34-8.6l-8.6-12.9c0,0-2.7-10.5-2.7-20.7c0-11.6,3.4-20.9,3.4-20.9l7.8-12.3c0,0,17.6-9.2,34-8.4
				c17.1,0.9,128.1-0.1,136.1,0c8,0.1,23.3,3.4,23.6,9.8c0.2,5.2-2.2,8.8-2.2,8.8c4.8,1.9,4.9,11,4.9,22.5
				C183.2,410.9,183.2,421.7,178.5,424z"/>
			<path fill="#DADADA" d="M163.6,431.6c0,4.6-0.2,11,10.9,6.3c6.5-2.8,6.5-7.9,3.7-10.8c-1.4-1.5-3.7-2-6-2
				C168,425,163.6,425.5,163.6,431.6z"/>
			<path fill="#DADADA" d="M163.6,369.3c0-4.6-0.2-11,10.9-6.3c6.5,2.8,6.5,7.9,3.7,10.8c-1.4,1.5-3.7,2-6,2
				C168.1,375.9,163.7,375.3,163.6,369.3z"/>
			<path fill="none" stroke="#E30613" stroke-miterlimit="10" d="M106.7,399.2"/>
			<path fill="none" stroke="#FFFFFF" stroke-miterlimit="10" d="M133.6,425.2c-6.1,0.8-25.2,3.8-28.2,1.2
				c-2.9-2.6,1.5-13.6,1.7-24.9c0.2-11.7-4.4-24.7-1.9-27.4c2.5-2.7,18.1-0.1,29.2,1.4c14.1,1.9,39.9,2.5,42.8,5.5
				c2.9,3,3.6,6.3,3.3,16.8c-0.3,10.6,1.7,20.6-5.4,23C168,423.2,139.7,424.4,133.6,425.2z"/>
			<ellipse fill="#FFFFFF" cx="162.5" cy="400.2" rx="13.2" ry="14.1"/>
			<path fill="none" stroke="#FFFFFF" stroke-miterlimit="10" d="M178.5,424c-11-0.3-56.2,7-69.8,10.1"/>
			<path fill="none" stroke="#FFFFFF" stroke-miterlimit="10" d="M178.3,377c-16.1-0.6-65.2-8.7-71.3-11"/>
			<path fill="none" stroke="#FFFFFF" stroke-miterlimit="10" d="M75.9,389.6c0,0,0,26.6,0,33.7c0,7.2-13.4,10.6-13.4,10.6"/>
			<path fill="#3C3C3B" d="M41.9,374.9v27.3c0,0,2,8.2,20.8,7.1s19.9-11.1,19.9-11.1s2.5-15.3-2.3-20.5c-5.7-6.3-10.9-6.2-15.3-6.2
				C57.5,371.6,41.9,374.9,41.9,374.9z"/>
			<path fill="none" stroke="#FFFFFF" stroke-miterlimit="10" d="M34.7,429.1H11.1c-2.2,0-4.5-5.4-4.5-7.4v-43.1
				c0-2.1,2.5-7.4,4.7-7.4h23.3c2.2,0,3.9,1.7,3.9,3.8v50.4C38.6,427.4,36.8,429.1,34.7,429.1z"/>
			<path fill="none" stroke="#FFFFFF" stroke-miterlimit="10" d="M-17.3,425.9c17.2,2,48.2,7.7,55.8,10.5"/>
			<path fill="none" stroke="#FFFFFF" stroke-miterlimit="10" d="M-16.6,374.3c0.3,0.4,49.1-7,54.9-9.9"/>
			<path fill="none" stroke="#FFFFFF" stroke-miterlimit="10" d="M-23.8,399.9c0.2,8.6,1.1,14.8,1.9,17.4s0.3,3.7,5,5
				c4.7,1.3,14.6,4.4,17.5,3.7c0,0,3.7-0.5,4.1-3.4c0.4-2.9-2-17.5-1.9-22.7c0.2-5.1,2.1-19.6,2-21.6c-0.2-2-2-3.8-3.8-3.7
				c-1.9,0.1-6,0.6-9.2,1.4c-3.2,0.8-10.6,2-12.4,4.5C-23.3,384.2-23.8,399.9-23.8,399.9z"/>
			<path fill="none" stroke="#FFFFFF" stroke-miterlimit="10" d="M38.3,381.4c0,0-30.9,1.8-30.9,7.8c0,7,30.9,8.5,30.9,8.5"/>
			<ellipse fill="#FFFFFF" cx="-10.3" cy="400.2" rx="13.2" ry="14.1"/>
			<path fill="none" stroke="#FFFFFF" stroke-miterlimit="10" d="M40,366.7v60.7c0,0,1.2,7.1,14.3,6.7c13.1-0.4,22.9-0.1,27-5.1
				c4.1-5,3-17.2,3-17.2s1.4-32.2,0.1-38.4c-1.3-6.2-10.6-6.8-10.6-6.8H40z"/>
			<ellipse fill="#FFFFFF" cx="79.1" cy="388.7" rx="2.2" ry="8"/>
			<path fill="#9D9D9C" d="M76.2,372c0,0,6.7,6.7,6.7,18.2c0,11.3-6.7,17.7-6.7,17.7s4.5,0.7,7.9-4c4.4-5.9,3-22.3,1.5-24.9
				C82.8,372.4,76.2,372,76.2,372z"/>
			<text transform="matrix(0 0.9959 -1 0 -16.4802 391.1988)" font-family="'Calibre-Medium'" font-size="20.7761">19</text>
			<text transform="matrix(0 -0.9959 1 0 168.8066 409.2612)" font-family="'Calibre-Medium'" font-size="20.7761">19</text>
		</g>
	</g>
</g>
</svg>
