<?xml version="1.0" encoding="utf-8"?>
<!-- Generator: Adobe Illustrator 18.1.1, SVG Export Plug-In . SVG Version: 6.00 Build 0)  -->
<svg version="1.1" id="Ebene_3" xmlns="http://www.w3.org/2000/svg" xmlns:xlink="http://www.w3.org/1999/xlink" x="0px" y="0px"
	 viewBox="0 0 1588.1 951.7" enable-background="new 0 0 1588.1 951.7" xml:space="preserve">
<g>
	<path fill="none" stroke="#FFFFFF" stroke-width="2" stroke-miterlimit="10" d="M188.8,267"/>
	<path fill="none" stroke="#FFFFFF" stroke-width="6" stroke-miterlimit="10" d="M1377,322.4l-1-80.5c13,7.1,21.6,16.9,21.8,30.4
		C1398.7,328,1377,322.4,1377,322.4z"/>
	<path fill="none" stroke="#FFFFFF" stroke-width="6" stroke-miterlimit="10" d="M1398.3,658.8c-1.9,37.8-20.4,44.1-20.4,44.1
		c-0.4,0.1-0.7,0.3-1.1,0.4l0.2-91C1378.8,613,1400.1,622.5,1398.3,658.8z"/>
	<path fill="none" stroke="#FFFFFF" stroke-width="6" stroke-miterlimit="10" d="M1380.4,587.6c-1.6,15.2-3,26.3-3.3,29.5v0.1
		c-0.1,0.5-0.1,0.8-0.1,0.8s0,0,0.1,0.1l-0.2,85.2c-33.9,13.3-54.1,14.6-118.8,14.6c-65.4,0-231.6,5.5-270.6,2.7
		c-39-2.7-250.6-4.5-319.6-2.7c-69,1.8-316.9,5.5-365-2.7c-48.2-8.2-112.3-14.7-113.9-40c-1.4-22,6.1-26.8,6.1-26.8s0-0.9-0.1-2.6
		c-0.1-1.8-0.2-4.5-0.3-8c-0.3-7.1-0.7-17.2-1.2-29.2c-0.1-2.6-0.2-5.2-0.3-8c-1.6-40.6-3.5-97.2-3.5-129.2
		c0-53.8,4.8-126.7,4.8-126.7c0.2-1.1,0.3-2.1,0.4-3.1c3.5-24.4,4.6-33.7,4.9-37.2c0.2-2.3,0.1-2.2,0.1-2.2s-10.9-13.6-10.9-28.2
		c0-14.5,15-45.1,129.4-50.5c0,0,322.2,6.1,442,2.7c121.9-3.4,445.3-2.5,497.8-1.3c52.5,1.2,79.1-4.2,117.9,17l1,77.4
		c0,0,1.5,15.6,3.3,37.6c-2.9-0.6-13.1-2.3-16,4.1c-2.2,4.8-10.9,27.6-15.6,63.4c-2.6,19.7-3.9,43.3-2.2,70.1
		c0.5,8.5,1.2,16.2,2,23.3c6.2,55.9,19.1,69.3,23.9,69.3C1375.8,587.1,1378.7,587.3,1380.4,587.6z"/>
	<path fill="none" stroke="#FFFFFF" stroke-width="2" stroke-miterlimit="10" d="M1377.1,618v-5.7c-203.4-4.5-436,22-569.4,50.1"/>
	<polygon fill="none" stroke="#FFFFFF" stroke-width="2" stroke-miterlimit="10" points="962.9,636.8 937.5,640.2 937.5,294.6 
		962.9,297.2 	"/>
	<path fill="none" stroke="#FFFFFF" stroke-width="4" d="M701.4,669.7l19.3,10.1l-151.9,1.7c-69.9,1.8-55.8-57.4-54.5-194.9h219
		C733,584.7,701.4,669.7,701.4,669.7z"/>
	<path fill="none" stroke="#FFFFFF" stroke-width="2" stroke-miterlimit="10" d="M720.6,262.8L720.6,262.8L573.4,262
		c-60.8-0.9-58.1,77.2-59,218.8c0,1.9,0,3.9,0,5.8"/>
	<line fill="none" stroke="#FFFFFF" stroke-width="2" stroke-miterlimit="10" x1="720.7" y1="679.8" x2="720.7" y2="679.8"/>
	<path fill="none" stroke="#FFFFFF" stroke-width="2" stroke-miterlimit="10" d="M199.7,302.1c0,0,44.1,23.4,163,9.8
		s151.6-30,151.6-30"/>
	<path fill="none" stroke="#FFFFFF" stroke-width="2" stroke-miterlimit="10" d="M195,648.4c0,0,61.5-31.3,170.5-19.5
		S510.5,661,510.5,661"/>
	<path fill="none" stroke="#FFFFFF" stroke-width="6" stroke-miterlimit="10" d="M199.6,304.3c-0.3,3.6-1.4,12.9-4.9,37.2h-5.4
		v-37.2H199.6z"/>
	<path fill="none" stroke="#FFFFFF" stroke-width="6" stroke-miterlimit="10" d="M194.8,645.7h-8.1v-37.2h6.6
		c0.5,12,0.9,22.2,1.2,29.2C194.6,641.2,194.8,643.9,194.8,645.7z"/>
	<ellipse fill="none" stroke="#FFFFFF" stroke-width="2" stroke-miterlimit="10" cx="315.5" cy="472" rx="83.1" ry="106.9"/>
	<path fill="none" stroke="#FFFFFF" stroke-width="2" stroke-miterlimit="10" d="M1346.5,494.5c0.5,8.5,1.2,16.2,2,23.3
		c-14.9,35.1-46,59.3-81.9,59.3c-50.4,0-91.2-47.6-91.2-106.2c0-58.7,40.8-106.2,91.2-106.2c36.1,0,67.3,24.4,82.1,59.7
		C1346.2,444,1344.8,467.7,1346.5,494.5z"/>
	<path fill="none" stroke="#FFFFFF" stroke-width="6" stroke-miterlimit="10" d="M1380.4,587.6c-1.7-0.2-4.5-0.5-8-0.5
		c-4.9,0-17.8-13.4-23.9-69.3c-0.8-7.1-1.5-14.8-2-23.3c-1.7-26.8-0.4-50.4,2.2-70.1c4.6-35.8,13.4-58.5,15.6-63.4
		c2.9-6.4,13.2-4.8,16-4.1c3,35.1,7,86.6,7.6,116.8C1388.4,505,1383.8,555.4,1380.4,587.6z"/>
	<path fill="none" stroke="#FFFFFF" stroke-width="2" stroke-miterlimit="10" d="M1315.2,422.3l2,90.6c0,0,10.9-22.1,10.9-30.2
		s7.4-8.2,7.4-15.7s-8.3-8.6-8.3-14.8C1327.3,446.1,1322,429.1,1315.2,422.3z"/>
	<path fill="none" stroke="#FFFFFF" stroke-width="2" stroke-miterlimit="10" d="M248.3,340.1c0,0,125.3,0.9,158-7.3
		s40.9,23.6,40.9,49c0,0,0.9,158-3.6,188.9c-4.5,30.9-8.2,41.8-46.3,37.2c-38.1-4.5-117.1-11.8-143.5-8.2
		c-26.3,3.6-34.5-17.3-35.4-36.3c-0.9-19.1-6.6-168.3,2.5-196.4C229.8,338.9,248.3,340.1,248.3,340.1z"/>
	<g>
		<ellipse fill="none" stroke="#FFFFFF" stroke-width="4" stroke-miterlimit="10" cx="700.1" cy="576.9" rx="12.5" ry="48.8"/>
	</g>
	<path fill="none" stroke="#FFFFFF" stroke-width="2" stroke-miterlimit="10" d="M1377,322.4c-162.3,0-450.4-25-565.7-44"/>
	<path fill="none" stroke="#FFFFFF" stroke-width="4" stroke-miterlimit="10" d="M795.8,476.3C794,610.7,755,697.9,755,697.9
		l-34.3-18h0l-19.3-10.1c0,0,31.6-85,31.9-183.1c0-4.3,0-8.7-0.1-13c-2.7-103.5-30-201.6-30-201.6l17.4-9.2h0l32.6-17.2
		C753.1,245.7,797.7,336.5,795.8,476.3z"/>
	<g>
		<path fill="#FFFFFF" d="M1235.4,499.5c0,7.6,5.5,11.7,12.8,12.2v13.4c-14.3-1.5-24.3-11.4-24.3-25.6c0-15.4,8.7-24.4,22.3-24.4
			c9.4,0,17.2,7.7,26.1,15.6l18.4,16.5v-33.4h11.4V525h-8.5l-25.3-22.7c-8.8-7.9-15.3-14.5-22-14.5
			C1240,487.7,1235.4,492.2,1235.4,499.5z"/>
		<path fill="#FFFFFF" d="M1243.5,427.5c-5.5,1.8-8.9,5.5-8.9,11.7c0,10.4,12.8,17.1,25.7,17.1h1.4c-5.8-2.7-9.9-9.5-9.9-17.6
			c0-15.5,11.9-24.9,25.6-24.9c14.1,0,26.1,9.5,26.1,26.2c0,9.4-4.5,18-14.8,23.1c-6.8,3.2-13.8,4.6-23.3,4.6
			c-24,0-41.4-11-41.4-28.6c0-14,7.2-21.6,19.6-24.7V427.5z M1292.5,440c0-8.5-6-14.2-14.9-14.2c-9.2,0-15.3,5.7-15.3,14.2
			c0,8.7,6,14.5,15.3,14.5C1286.5,454.5,1292.5,448.7,1292.5,440z"/>
	</g>
	<g>
		<path fill="#FFFFFF" d="M345,441.4c0-7.6-5.5-11.7-12.8-12.2v-13.4c14.3,1.5,24.3,11.4,24.3,25.6c0,15.4-8.7,24.4-22.3,24.4
			c-9.4,0-17.2-7.7-26.1-15.6l-18.4-16.5V467h-11.4v-51.1h8.5l25.3,22.7c8.8,7.9,15.3,14.5,22,14.5C340.4,453.2,345,448.7,345,441.4
			z"/>
		<path fill="#FFFFFF" d="M336.9,513.4c5.5-1.8,8.9-5.5,8.9-11.7c0-10.4-12.8-17.1-25.7-17.1h-1.4c5.8,2.7,9.9,9.5,9.9,17.6
			c0,15.5-11.9,24.9-25.6,24.9c-14.1,0-26.1-9.5-26.1-26.2c0-9.4,4.5-18,14.8-23.1c6.8-3.2,13.8-4.6,23.3-4.6
			c24,0,41.4,11,41.4,28.6c0,14-7.2,21.6-19.6,24.7V513.4z M287.9,500.9c0,8.5,6,14.2,14.9,14.2c9.2,0,15.3-5.7,15.3-14.2
			c0-8.7-6-14.5-15.3-14.5C293.9,486.4,287.9,492.1,287.9,500.9z"/>
	</g>
</g>
</svg>
